<svg width="100" height="100" viewBox="0 0 100 100" fill="none" xmlns="http://www.w3.org/2000/svg"><style>
    
      .line-rocket1 {animation:line-rocket1-flame 200ms infinite linear; transform-origin: 34px 70px;}
      @keyframes line-rocket1-flame {
        0%{transform:scale(1);}
        50%{transform:scale(1.5);}
      }
    
  </style><path d="M23.0423 33.6122L34.8942 44.674L57.9797 21.5885C57.9797 21.5885 48.2127 18.0368 38.0018 20.7005C32.3771 22.1678 25.8108 28.0755 22.9855 30.824C22.1921 31.5959 22.233 32.8568 23.0423 33.6122Z" fill="#FFF" stroke="rgba(231,29,32,1)" stroke-width="4.0px"></path><path d="M68.8384 79.1389L57.5715 67.4818L80.2505 43.997C80.2505 43.997 83.9721 53.7004 81.487 63.9562C80.1181 69.6057 74.3259 76.2741 71.6272 79.147C70.8692 79.9538 69.6077 79.9348 68.8384 79.1389Z" fill="#FFF" stroke="rgba(231,29,32,1)" stroke-width="4.0px"></path><path d="M48.4639 73.5645L29.1921 54.2927C27.8323 52.9329 27.6346 50.8041 28.7698 49.2518C31.5469 45.4541 37.0548 38.2696 43.4415 31.8028C52.6523 22.4763 63.5869 15.2089 63.5869 15.2089C63.5869 15.2089 90.8321 6.49408 92.608 7.38198C94.3838 8.26989 86.3926 37.5707 86.3926 37.5707C86.3926 37.5707 81.9531 48.2255 70.8511 59.2124C63.356 66.6298 56.7991 71.5952 53.3297 74.0386C51.8113 75.108 49.7772 74.8778 48.4639 73.5645Z" fill="#FFF" stroke-width="4.0px"></path><path d="M63.5869 15.2089C63.5869 15.2089 52.6523 22.4763 43.4415 31.8028C37.0548 38.2696 31.5469 45.4541 28.7698 49.2518C27.6346 50.8041 27.8323 52.9329 29.1921 54.2927L48.4639 73.5645C49.7772 74.8778 51.8113 75.108 53.3297 74.0386C56.7991 71.5952 63.356 66.6298 70.8511 59.2124C81.9531 48.2255 86.3926 37.5707 86.3926 37.5707M63.5869 15.2089C63.5869 15.2089 90.8321 6.49408 92.608 7.38198C94.3838 8.26988 86.3926 37.5707 86.3926 37.5707M63.5869 15.2089L86.3926 37.5707" stroke="rgba(231,29,32,1)" stroke-width="4.0px"></path><circle cx="58.8676" cy="42.8981" r="8.87904" fill="#FFF" stroke="rgba(231,29,32,1)" stroke-width="4.0px"></circle><path class="line-rocket1" d="M33.5956 81.36C35.7821 78.4143 37.1248 71.0988 33.1053 67.5155C28.5122 63.4209 19.8661 67.5155 17.9048 71.4711C15.0996 77.1284 14.4724 87.2933 14.4724 87.2933C14.4724 87.2933 28.9233 87.6546 33.5956 81.36Z" fill="#FFF" stroke="rgba(231,29,32,1)" stroke-width="4.0px" style="animation-duration: 0.2s;"></path></svg>