<svg xmlns="http://www.w3.org/2000/svg" id="Layer_1" data-name="Layer 1" viewBox="0 0 400 300"><title>#11 handshake</title><rect width="76.58" height="96.84" x="246.58" y="32.15" fill="#e6e6e6" transform="translate(569.74 161.15) rotate(-180)"/><path fill="#a5a5a5" d="M249.84,52.45s14-1.33,14.32,10.69c0,0-1,21.76,8.13,31.89s32-12.57,38.37,34l-22.58,0-31-24.13L248.2,71.53Z" opacity=".2"/><circle cx="298.16" cy="72.18" r="14.59" fill="#fff"/><polyline fill="none" stroke="#a5a5a5" stroke-linecap="round" stroke-linejoin="round" stroke-width="4" points="291.74 70.75 295.72 76.9 303.36 67.45"/><rect width="29.15" height="7.14" x="282.15" y="41.32" fill="#a5a5a5" opacity=".4" transform="translate(593.45 89.78) rotate(-180)"/><rect width="76.58" height="96.84" x="82.99" y="32.17" fill="#e6e6e6"/><path fill="#a5a5a5" d="M156.3,52.47s-14-1.33-14.31,10.68c0,0,1,21.77-8.13,31.89s-32-12.56-38.37,34l22.58,0,31-24.12L158,71.54Z" opacity=".2"/><path fill="#d88b7c" d="M174.73,93.67s11.93,14.14,16.93,22.64,22.44,10.62,33.86-10.81c6.78-12.73,8.41-19.5,14.12-15.42s-7.34,21.34-7.34,21.34-5.78,39.75-57.57,27.58C107.44,123.19,174.73,93.67,174.73,93.67Z"/><ellipse cx="198.99" cy="262.16" fill="#e6e6e6" opacity=".45" rx="130.29" ry="18.73"/><path fill="#68e1fd" d="M277.66,97c6.11,23,14.27,82.66-68.93,75.57v-8.25s38-5.75,43-22.25c4.24-14-8.34-50.88,10-55.09C268.78,85.38,275.79,90,277.66,97Z"/><path d="M277.66,97c6.11,23,14.27,82.66-68.93,75.57v-8.25s38-5.75,43-22.25c4.24-14-8.34-50.88,10-55.09C268.78,85.38,275.79,90,277.66,97Z" opacity=".08"/><path fill="#f4a28c" d="M170,58.29s.67,7.69-.62,12.8a3.88,3.88,0,0,1-4.73,2.79c-2.57-.69-5.84-2.36-6.69-6.44l-2.31-6.74a6.92,6.92,0,0,1,3.05-7.4C163,50.17,169.82,53.59,170,58.29Z"/><polygon fill="#f4a28c" points="156.79 62.48 148 81.86 159.44 90.35 161.72 72.12 156.79 62.48"/><path fill="#24285b" d="M168.08,58.61a30.79,30.79,0,0,1-7.11-.55,6.43,6.43,0,0,1,0,7.06,5.24,5.24,0,0,1-6.33,2.09l.13-9.91a7.84,7.84,0,0,1,4-7,29,29,0,0,1,3.31-1.62c2.85-1.14,7,.76,9.59-1.17a1.86,1.86,0,0,1,2.95,1.22c.44,3-.09,7.76-4.17,9.41A7.28,7.28,0,0,1,168.08,58.61Z"/><path fill="#f4a28c" d="M161.79,64.89s0-3-2.28-2.74-2.18,4.52.85,4.92Z"/><path fill="#f4a28c" d="M170.16,63.15l2.15,3a1.23,1.23,0,0,1-.77,1.94l-2.95.56Z"/><path fill="#ce8172" d="M161.66,72.64A9.43,9.43,0,0,1,158.15,69s-2.74,4.81,2.86,8.84Z" opacity=".31"/><path fill="#f4a28c" d="M234.86,60.71s-.67,7.69.62,12.8a3.87,3.87,0,0,0,4.73,2.79c2.57-.69,5.83-2.36,6.69-6.44l2.31-6.73a6.94,6.94,0,0,0-3.05-7.4C241.81,52.6,235,56,234.86,60.71Z"/><polygon fill="#f4a28c" points="248.06 64.9 256.85 84.28 245.41 92.77 243.12 74.54 248.06 64.9"/><path fill="#f4a28c" d="M243.05,67.32s.06-3,2.29-2.75,2.18,4.53-.86,4.93Z"/><path fill="#f4a28c" d="M234.68,65.58l-2.14,3a1.23,1.23,0,0,0,.77,1.94l2.95.55Z"/><path fill="#ce8172" d="M243.19,75.06a9.51,9.51,0,0,0,3.51-3.62s2.74,4.81-2.86,8.84Z" opacity=".31"/><path fill="#68e1fd" d="M190.93,115.11,183,140.58,166.85,138l7.21-45.23S186,105.71,190.93,115.11Z"/><path d="M190.93,115.11,183,140.58,166.85,138l7.21-45.23S186,105.71,190.93,115.11Z" opacity=".08"/><polygon fill="#24285b" points="291.76 173.53 283.22 256.31 274.39 256.31 267.6 191.41 252.02 179.57 291.76 173.53"/><polygon fill="#24285b" points="252.02 179.57 252.02 256.37 262.38 256.37 271.89 188.72 252.02 179.57"/><path fill="#68e1fd" d="M169.39,87.81A30.71,30.71,0,0,0,151,81.37c-10.79,0-28.87,8.09-32.64,35.17s.11,57,.11,57l39.74,6S202,116.3,169.39,87.81Z"/><path d="M161.79,173.69l-3.6,5.88-39.74-6s-8-58.37,9.13-77.62l13.6,20.76Z" opacity=".08"/><path fill="#68e1fd" d="M239.64,90.08A30.69,30.69,0,0,1,258,83.38c10.8-.11,29,7.67,33.16,34.68s.72,57,.72,57l-39.66,6.62S207.47,119,239.64,90.08Z"/><path fill="#f4a28c" d="M125.83,103.24c-4.33,23.37-7.88,83.51,74.52,70.06l-.63-8.23s-38.33-2.81-44.58-18.88C149.84,132.58,159.55,94.81,141,92,133.8,91,127.16,96.1,125.83,103.24Z"/><path fill="#68e1fd" d="M123.9,103.47a57.5,57.5,0,0,0,.34,25.54l29-.25S158,99,145.4,91.36c0,0-3-2.6-9-1.08A17.35,17.35,0,0,0,123.9,103.47Z"/><path fill="#fff" d="M123.9,103.47a57.5,57.5,0,0,0,.34,25.54l29-.25S158,99,145.4,91.36c0,0-3-2.6-9-1.08A17.35,17.35,0,0,0,123.9,103.47Z" opacity=".2"/><path fill="#68e1fd" d="M154.94,256.38s.87,4.07,4.34,4.84,3.92,4.32.65,4.79-10.86-4.68-10.86-4.68l.91-5Z"/><path fill="#68e1fd" d="M106.74,256.38s-.88,4.07-4.34,4.84-3.93,4.32-.65,4.79,10.86-4.68,10.86-4.68l-.91-5Z"/><path d="M254,107.86s-4.49,16.06,10.21,28.31,12.09,33.87-16.11,39.19l4.12,6.31,42.4-7.24,2-29.67-15.2-30.59Z" opacity=".08"/><rect width="5.33" height="11.33" x="195.97" y="162.67" fill="#ffd200" transform="translate(-12.33 15.74) rotate(-4.4)"/><path fill="#ffd200" d="M230.85,55.67s-1.94,5.41,5.41,5.45,4.27,6.83,10.05,7.19,6.79-2,6.54-6.32.35-12.57-5.95-14.07S229.85,44.92,230.85,55.67Z"/><path fill="#68e1fd" d="M252.7,103.26c-.58-9.82,9.75-16.65,18.77-12.74,12.79,5.54,33.8,16,37.48,38.08,5.81,34.86-11,47.8-30.11,62.81l-4.27-8.75s23.29-25.17,10-48.3C274.34,116.66,253.51,116.75,252.7,103.26Z"/><path fill="#fff" d="M252.7,103.26c-.58-9.82,9.75-16.65,18.77-12.74,12.79,5.54,33.8,16,37.48,38.08,5.81,34.86-11,47.8-30.11,62.81l-4.27-8.75s23.29-25.17,10-48.3C274.34,116.66,253.51,116.75,252.7,103.26Z" opacity=".2"/><polygon fill="#f4a28c" points="275.07 183.68 269.94 186.17 274.39 193.84 278.84 191.41 275.07 183.68"/><polygon fill="#24285b" points="158.19 179.57 158.19 256.37 147.83 256.37 138.32 188.72 158.19 179.57"/><path fill="#d88b7c" d="M216.41,162.81l1,10.36s-8,3.59-12.71.86S206,159.6,216.41,162.81Z"/><path fill="#68e1fd" d="M254.47,256.38s-.87,4.07-4.34,4.84-3.92,4.32-.65,4.79,10.86-4.68,10.86-4.68l-.9-5Z"/><path fill="#68e1fd" d="M276.35,256.38s-.88,4.07-4.34,4.84-3.93,4.32-.65,4.79,10.86-4.68,10.86-4.68l-.91-5Z"/><polygon fill="#24285b" points="118.44 173.53 104.02 256.31 115.02 256.37 138.7 191.41 158.19 179.57 118.44 173.53"/><path fill="#f4a28c" d="M201.05,164.91s3.16-3.62,6.61-2,.8,1.72,3.8,3.4,7.37,9.4-9.73,7.46Z"/><circle cx="107.99" cy="72.19" r="14.59" fill="#fff"/><polyline fill="none" stroke="#a5a5a5" stroke-linecap="round" stroke-linejoin="round" stroke-width="4" points="102.79 70.77 106.76 76.92 114.4 67.47"/><rect width="29.15" height="7.14" x="94.85" y="41.34" fill="#a5a5a5" opacity=".4"/></svg>