<svg height="512" viewBox="0 0 74 74" width="512" xmlns="http://www.w3.org/2000/svg"><g id="line_color" data-name="line color"><path d="m34.775 27.69a7.922 7.922 0 0 0 -9.58 4.22 10.446 10.446 0 0 0 -10.54 2.44 10.991 10.991 0 1 1 20.12-6.66z" fill="#fed19a"/><path d="m14.655 34.85h-.052a.5.5 0 0 1 -.363-.219 11.386 11.386 0 0 1 -1.935-6.378 11.492 11.492 0 0 1 22.969-.585.5.5 0 0 1 -.651.5 7.332 7.332 0 0 0 -2.237-.346 7.457 7.457 0 0 0 -6.737 4.3.5.5 0 0 1 -.611.263 9.947 9.947 0 0 0 -10.038 2.323.5.5 0 0 1 -.345.142zm9.15-17.09a10.507 10.507 0 0 0 -10.5 10.49 10.4 10.4 0 0 0 1.452 5.326 10.957 10.957 0 0 1 10.18-2.27 8.43 8.43 0 0 1 9.281-4.285 10.472 10.472 0 0 0 -10.412-9.261z" fill="#323c6b"/><path d="m21.805 19.26a10.973 10.973 0 0 1 10.581 8.06 7.864 7.864 0 0 1 2.389.37 10.983 10.983 0 0 0 -19.675-6.137 10.947 10.947 0 0 1 6.705-2.293z" fill="#f4bb87"/><path d="m24.689 31.764c.17.047.341.091.507.146a7.886 7.886 0 0 1 .686-1.169 7.962 7.962 0 0 0 -1.193 1.023z" fill="#f4bb87"/><g fill="#323c6b"><path d="m23.8 13.942a.5.5 0 0 1 -.5-.5v-2.5a.5.5 0 0 1 1 0v2.5a.5.5 0 0 1 -.5.5z"/><path d="m23.8 13.942a.5.5 0 0 1 -.5-.5v-2.5a.5.5 0 0 1 1 0v2.5a.5.5 0 0 1 -.5.5z"/><path d="m10.905 21.116a.5.5 0 0 1 -.25-.067l-2.115-1.221a.5.5 0 0 1 .5-.866l2.115 1.221a.5.5 0 0 1 -.25.933z"/><path d="m8.239 36.568a.5.5 0 0 1 -.25-.933l1.942-1.121a.5.5 0 0 1 .5.866l-1.942 1.12a.5.5 0 0 1 -.25.068z"/><path d="m36.328 21.116a.5.5 0 0 1 -.25-.933l2.252-1.3a.5.5 0 0 1 .5.866l-2.252 1.3a.5.5 0 0 1 -.25.067z"/><path d="m16.32 15.741a.5.5 0 0 1 -.433-.25l-2.569-4.451a.5.5 0 1 1 .865-.5l2.569 4.451a.5.5 0 0 1 -.433.75z"/><path d="m8.79 28.563h-5.225a.5.5 0 0 1 0-1h5.225a.5.5 0 1 1 0 1z"/><path d="m31.04 15.451a.493.493 0 0 1 -.253-.069.5.5 0 0 1 -.179-.684l2.442-4.161a.5.5 0 0 1 .863.506l-2.441 4.157a.5.5 0 0 1 -.432.251z"/><path d="m14.655 34.85h-.052a.5.5 0 0 1 -.363-.219 11.386 11.386 0 0 1 -1.935-6.378 11.492 11.492 0 0 1 22.969-.585.5.5 0 0 1 -.651.5 7.332 7.332 0 0 0 -2.237-.346 7.457 7.457 0 0 0 -6.737 4.3.5.5 0 0 1 -.611.263 9.947 9.947 0 0 0 -10.038 2.323.5.5 0 0 1 -.345.142zm9.15-17.09a10.507 10.507 0 0 0 -10.5 10.49 10.4 10.4 0 0 0 1.452 5.326 10.957 10.957 0 0 1 10.18-2.27 8.43 8.43 0 0 1 9.281-4.285 10.472 10.472 0 0 0 -10.412-9.261z"/><path d="m13.44 63.71h-1.94a11.429 11.429 0 0 1 -9.475-5.043.5.5 0 0 1 .828-.561 10.431 10.431 0 0 0 8.646 4.6h1.941a.5.5 0 1 1 0 1z"/><path d="m18.065 63.71h-.937a.5.5 0 0 1 0-1h.938a.5.5 0 1 1 0 1z"/><path d="m67.048 37.47a.5.5 0 0 1 -.222-.052q-.349-.172-.709-.324a.5.5 0 0 1 .389-.922c.258.109.514.226.764.349a.5.5 0 0 1 -.222.948z"/><path d="m63.282 36.264a.5.5 0 0 1 -.081-.006 13.167 13.167 0 0 0 -3.247-.117.5.5 0 0 1 -.532-.389 12.814 12.814 0 0 0 -2.126-4.72.5.5 0 1 1 .811-.585 13.8 13.8 0 0 1 2.19 4.667 13.993 13.993 0 0 1 3.064.157.5.5 0 0 1 -.079.994z"/></g><path d="m71.565 49.04c0 5.77-4.69 11.17-10.46 11.17h-49.605a7.925 7.925 0 1 1 0-15.85c.1 0 .2 0 .31.01a10.079 10.079 0 0 1 -.31-2.53 10.445 10.445 0 0 1 10.44-10.45 10.308 10.308 0 0 1 3.26.52 7.936 7.936 0 0 1 14.09-.58 10.439 10.439 0 0 1 17.95 7.26c0 .26-.01.51-.03.76a10.448 10.448 0 0 1 14.36 9.69z" fill="#eeefee"/><path d="m61.105 60.71h-49.605a8.425 8.425 0 0 1 -.314-16.844 10.953 10.953 0 0 1 13.757-12.56 8.46 8.46 0 0 1 7.448-4.486 8.46 8.46 0 0 1 7 3.716 10.939 10.939 0 0 1 18.344 8.054v.034a10.951 10.951 0 0 1 14.33 10.416c0 6.217-5.121 11.67-10.96 11.67zm-49.58-15.85h-.025a7.425 7.425 0 1 0 0 14.85h49.61c5.306 0 9.96-4.986 9.96-10.67a9.949 9.949 0 0 0 -13.673-9.227.5.5 0 0 1 -.686-.5c.02-.236.028-.473.028-.719a9.939 9.939 0 0 0 -17.09-6.914.507.507 0 0 1 -.422.15.5.5 0 0 1 -.373-.249 7.455 7.455 0 0 0 -6.465-3.758 7.457 7.457 0 0 0 -6.737 4.3.5.5 0 0 1 -.611.263 9.946 9.946 0 0 0 -13.041 9.454 9.548 9.548 0 0 0 .295 2.4.5.5 0 0 1 -.528.624c-.089-.004-.167-.004-.242-.004z" fill="#323c6b"/><path d="m54.235 38.59c0 .26-.01.51-.03.76a10.381 10.381 0 0 1 3.028-.717c0-.015 0-.028 0-.043a10.372 10.372 0 0 0 -11.946-10.33 10.445 10.445 0 0 1 8.948 10.33z" fill="#dbd8dd"/><path d="m61.115 38.59a10.409 10.409 0 0 0 -1.5.12 10.445 10.445 0 0 1 8.95 10.33c0 5.77-4.69 11.17-10.46 11.17h3c5.77 0 10.46-5.4 10.46-11.17a10.452 10.452 0 0 0 -10.45-10.45z" fill="#dbd8dd"/><path d="m22.2 31.91c.081-.173.184-.333.276-.5-.178-.009-.356-.021-.536-.021a10.479 10.479 0 0 0 -1.471.115 10.082 10.082 0 0 1 1.731.406z" fill="#acc6cc"/><path d="m61.105 60.71h-49.605a8.425 8.425 0 0 1 -.314-16.844 10.953 10.953 0 0 1 13.757-12.56 8.46 8.46 0 0 1 7.448-4.486 8.46 8.46 0 0 1 7 3.716 10.939 10.939 0 0 1 18.344 8.054v.034a10.951 10.951 0 0 1 14.33 10.416c0 6.217-5.121 11.67-10.96 11.67zm-49.58-15.85h-.025a7.425 7.425 0 1 0 0 14.85h49.61c5.306 0 9.96-4.986 9.96-10.67a9.949 9.949 0 0 0 -13.673-9.227.5.5 0 0 1 -.686-.5c.02-.236.028-.473.028-.719a9.939 9.939 0 0 0 -17.09-6.914.507.507 0 0 1 -.422.15.5.5 0 0 1 -.373-.249 7.455 7.455 0 0 0 -6.465-3.758 7.457 7.457 0 0 0 -6.737 4.3.5.5 0 0 1 -.611.263 9.946 9.946 0 0 0 -13.041 9.454 9.548 9.548 0 0 0 .295 2.4.5.5 0 0 1 -.528.624c-.089-.004-.167-.004-.242-.004z" fill="#323c6b"/><g fill="#eeefee"><path d="m19.849 20.688c-.008-.013-.017-.026-.027-.038a.6.6 0 0 0 -.836-.11 2.751 2.751 0 0 0 -.456.39.6.6 0 0 0 .824.861 1.889 1.889 0 0 1 .357-.3.6.6 0 0 0 .138-.803z"/><path d="m17.986 22.724a.6.6 0 0 0 -.977-.084 9 9 0 0 0 -1.763 7.225.6.6 0 0 0 1.192.024 7.88 7.88 0 0 1 1.49-6.489.6.6 0 0 0 .058-.676z"/></g></g></svg>