<svg height="512" viewBox="0 0 512 512" width="512" xmlns="http://www.w3.org/2000/svg"><g id="flat"><path d="m119.098 323.314v-22.628l-19.595-11.313-19.596 11.313v22.628l19.596 11.313z" fill="#43dcfe"/><path d="m373.515 112.759a48.045 48.045 0 0 0 -55.1-31.8 72 72 0 0 0 -140.615-.914c-.6-.026-1.2-.045-1.8-.045a40 40 0 0 0 -39.394 33.094 60.01 60.01 0 0 0 -48.606 58.906 60 60 0 0 0 60 60h216a60 60 0 0 0 60-60 60.009 60.009 0 0 0 -50.485-59.241z" fill="#eaeae8"/><path d="m160 192h-24a8 8 0 0 1 0-16h24a8 8 0 0 1 0 16z" fill="#cbcbcb"/><path d="m248 192h-56a8 8 0 0 1 0-16h56a8 8 0 0 1 0 16z" fill="#cbcbcb"/><path d="m149.93 325.345-7.728 2.07-15.1-8.72v-13.39l15.1-8.72 7.728 2.07a8 8 0 1 0 4.14-15.455l-3.2-.857.858-3.2a8 8 0 0 0 -15.456-4.143l-2.07 7.727-15.1 8.719-11.6-6.694v-17.44l5.657-5.657a8 8 0 0 0 -11.313-11.314l-2.346 2.346-2.343-2.344a8 8 0 0 0 -11.313 11.314l5.656 5.657v17.44l-11.6 6.695-15.1-8.72-2.067-7.729a8 8 0 0 0 -15.455 4.141l.857 3.2-3.2.857a8 8 0 1 0 4.141 15.455l7.728-2.07 15.1 8.72v13.397l-15.1 8.72-7.728-2.07a8 8 0 1 0 -4.141 15.45l3.2.857-.857 3.2a8 8 0 1 0 15.455 4.143l2.07-7.727 15.1-8.72 11.6 6.695v17.44l-5.656 5.657a8 8 0 1 0 11.313 11.314l2.343-2.344 2.344 2.344a8 8 0 0 0 11.313-11.314l-5.657-5.657v-17.44l11.6-6.694 15.1 8.719 2.07 7.727a8 8 0 0 0 15.456-4.141l-.858-3.2 3.2-.857a8 8 0 1 0 -4.14-15.455zm-38.83-6.651-11.6 6.7-11.595-6.7v-13.388l11.6-6.7 11.6 6.7z" fill="#8feaff"/><path d="m412.497 360 8 8 8-8" fill="none" stroke="#000" stroke-linecap="round" stroke-linejoin="round" stroke-width="16"/><g fill="#eaeae8"><circle cx="256" cy="280" r="16"/><circle cx="56" cy="408" r="16"/><circle cx="432" cy="280" r="16"/><circle cx="136" cy="448" r="24"/><circle cx="352" cy="328" r="24"/></g><path d="m275.095 427.313v-22.627l-19.596-11.314-19.596 11.314v22.627l19.596 11.314z" fill="#43dcfe"/><path d="m305.926 429.344-7.728 2.071-15.1-8.721v-13.389l15.1-8.721 7.728 2.071a8 8 0 1 0 4.141-15.455l-3.2-.858.857-3.2a8 8 0 1 0 -15.455-4.142l-2.07 7.728-15.1 8.719-11.6-6.695v-17.44l5.657-5.656a8 8 0 0 0 -11.314-11.315l-2.343 2.344-2.343-2.344a8 8 0 0 0 -11.314 11.315l5.657 5.656v17.441l-11.6 6.694-15.1-8.719-2.069-7.728a8 8 0 1 0 -15.455 4.141l.857 3.2-3.2.858a8 8 0 1 0 4.14 15.455l7.728-2.071 15.1 8.721v13.389l-15.1 8.721-7.728-2.071a8 8 0 0 0 -4.14 15.455l3.2.858-.857 3.2a8 8 0 1 0 15.455 4.144l2.07-7.728 15.1-8.719 11.6 6.694v17.441l-5.657 5.656a8 8 0 1 0 11.314 11.315l2.343-2.344 2.343 2.344a8 8 0 1 0 11.314-11.315l-5.657-5.656v-17.44l11.6-6.695 15.1 8.72 2.07 7.727a8 8 0 1 0 15.455-4.141l-.857-3.2 3.2-.858a8 8 0 0 0 -4.141-15.455zm-38.831-6.65-11.6 6.695-11.6-6.695v-13.389l11.6-6.695 11.6 6.695z" fill="#8feaff"/><path d="m440.093 427.298v-22.627l-19.596-11.314-19.596 11.314v22.627l19.596 11.314z" fill="#43dcfe"/><path d="m470.924 429.329-7.724 2.071-15.1-8.72v-13.39l15.1-8.721 7.728 2.071a8 8 0 0 0 4.141-15.455l-3.2-.858.857-3.2a8 8 0 1 0 -15.455-4.141l-2.07 7.727-15.1 8.72-11.6-6.695v-17.438l5.657-5.656a8 8 0 0 0 -11.314-11.315l-2.343 2.344-2.343-2.344a8 8 0 0 0 -11.314 11.315l5.656 5.656v17.441l-11.6 6.694-15.1-8.719-2.07-7.728a8 8 0 1 0 -15.455 4.141l.857 3.2-3.2.858a8 8 0 1 0 4.14 15.455l7.728-2.071 15.1 8.721v13.389l-15.1 8.72-7.728-2.07a8 8 0 0 0 -4.14 15.455l3.2.858-.857 3.2a8 8 0 1 0 15.455 4.14l2.07-7.727 15.1-8.719 11.6 6.694v17.44l-5.657 5.657a8 8 0 1 0 11.314 11.315l2.343-2.344 2.343 2.344a8 8 0 1 0 11.314-11.315l-5.657-5.659v-17.439l11.6-6.695 15.1 8.719 2.07 7.727a8 8 0 1 0 15.455-4.14l-.857-3.2 3.2-.858a8 8 0 0 0 -4.141-15.455zm-38.831-6.65-11.6 6.7-11.6-6.7v-13.389l11.6-6.695 11.6 6.695z" fill="#8feaff"/></g></svg>