<svg height="512pt" viewBox="0 -47 512.00029 512" width="512pt" xmlns="http://www.w3.org/2000/svg"><path d="m436.71875 152.339844c0 7.617187-1.109375 14.980468-3.175781 21.933594-9.433594 31.871093-38.945313 55.113281-73.882813 55.113281-42.558594 0-77.050781-34.492188-77.050781-77.046875 0-33.179688 20.980469-61.46875 50.386719-72.308594 8.308594-3.070312 17.285156-4.738281 26.664062-4.738281 42.554688 0 77.058594 34.492187 77.058594 77.046875zm0 0" fill="#ffb52d"/><path d="m436.71875 152.339844c0 7.617187-1.109375 14.980468-3.175781 21.933594-8.304688 3.070312-17.296875 4.75-26.671875 4.75-42.546875 0-77.046875-34.503907-77.046875-77.050782 0-7.625 1.109375-14.988281 3.171875-21.941406 8.308594-3.070312 17.285156-4.738281 26.664062-4.738281 42.554688 0 77.058594 34.492187 77.058594 77.046875zm0 0" fill="#ffc14f"/><path d="m503.429688 323.011719c-.417969 11.394531-10.136719 20.257812-21.542969 20.257812h-265.273438c-16.574219 0-46.417969-18.609375-46.417969-51.679687 0-41.300782 45.417969-64.6875 78.742188-44.042969 1.753906 1.089844 4.082031.089844 4.464844-1.941406 6.160156-32.660157 34.84375-57.371094 69.304687-57.371094 9.058594 0 17.722657 1.710937 25.675781 4.820313 10.320313 4.039062 19.460938 10.445312 26.753907 18.539062 6.921875 7.6875 12.183593 16.917969 15.199219 27.105469.4375 1.476562 1.9375 2.351562 3.445312 2.042969 33.296875-6.753907 60.621094 25.515624 50.519531 56.539062-.625 1.921875.796875 3.898438 2.820313 3.898438h35.285156c11.886719 0 21.464844 9.859374 21.023438 21.832031zm0 0" fill="#5596fb"/><path d="m359.660156 225.390625c0 8.492187-1.964844 16.027344-5.175781 22.535156-9.277344 18.863281-28.921875 29.144531-41.246094 29.144531h-69.597656c-7.417969 0-12.457031 7.367188-9.953125 14.351563.035156.089844.066406.183594.101562.277344 2.007813 5.695312 8.21875 8.59375 13.886719 6.5 26.835938-9.894531 58.496094 9.253906 58.496094 40.890625 0 1.421875-.070313 2.816406-.203125 4.179687h-89.351562c-16.578126 0-46.421876-18.609375-46.421876-51.679687 0-42.878906 48.960938-66.453125 82.507813-41.476563 4.261719-34.871093 33.976563-61.878906 70.003906-61.878906 9.058594 0 17.722657 1.710937 25.675781 4.820313 6.953126 8.5625 11.277344 19.597656 11.277344 32.335937zm0 0" fill="#2476ed"/><path d="m333.25 199.695312c0 8.492188-1.960938 16.027344-5.175781 22.535157-9.273438 18.863281-28.917969 29.144531-41.246094 29.144531h-265.273437c-11.402344 0-21.121094-8.863281-21.539063-20.261719-.441406-11.972656 9.136719-21.828125 21.023437-21.828125h35.28125c2.023438 0 3.449219-1.976562 2.824219-3.898437-10.101562-31.023438 17.222657-63.292969 50.519531-56.539063 1.511719.308594 3.011719-.574218 3.453126-2.058594 8.640624-29.160156 35.652343-50.449218 67.625-50.449218 8.925781 0 17.46875 1.660156 25.328124 4.6875 22.230469 8.558594 39.042969 28.058594 43.820313 51.898437.480469 2.40625 3.195313 3.574219 5.300781 2.3125 33.253906-19.914062 78.058594 3.4375 78.058594 44.457031zm0 0" fill="#97bffd"/><path d="m333.25 199.695312c0 8.492188-1.960938 16.027344-5.175781 22.535157h-220.957031c-11.40625 0-21.125-8.863281-21.542969-20.257813-.4375-11.972656 9.140625-21.832031 21.023437-21.832031h35.285156c2.023438 0 3.449219-1.972656 2.820313-3.898437-10.089844-31.023438 17.222656-63.289063 50.519531-56.527344 1.511719.308594 3.011719-.570313 3.449219-2.046875 1.75-5.910157 4.25-11.492188 7.398437-16.640625 22.230469 8.558594 39.042969 28.058594 43.820313 51.898437.480469 2.40625 3.195313 3.574219 5.300781 2.3125 33.253906-19.914062 78.058594 3.4375 78.058594 44.457031zm0 0" fill="#b9d3fd"/><g fill="#ffa90b"><path d="m359.660156 0c-4.210937 0-7.625 3.414062-7.625 7.625v35.027344c0 4.210937 3.414063 7.628906 7.625 7.628906 4.214844 0 7.628906-3.417969 7.628906-7.628906v-35.027344c0-4.210938-3.414062-7.625-7.628906-7.625zm0 0"/><path d="m293.910156 23.199219c-2.105468-3.648438-6.769531-4.894531-10.417968-2.789063-3.648438 2.105469-4.898438 6.769532-2.792969 10.417969l17.515625 30.332031c2.109375 3.660156 6.78125 4.894532 10.417968 2.792969 3.644532-2.105469 4.894532-6.769531 2.789063-10.417969zm0 0"/><path d="m268.484375 90.890625-30.335937-17.511719c-3.648438-2.105468-8.3125-.855468-10.417969 2.792969-2.105469 3.644531-.855469 8.308594 2.792969 10.417969 31.351562 17.691406 30.523437 18.535156 34.140624 18.535156 7.78125 0 10.554688-10.34375 3.820313-14.234375zm0 0"/><path d="m488.800781 218.089844-30.335937-17.511719c-3.644532-2.105469-8.3125-.855469-10.417969 2.792969-2.105469 3.644531-.855469 8.3125 2.792969 10.417968 31.351562 17.691407 30.523437 18.535157 34.140625 18.535157 7.78125 0 10.554687-10.34375 3.820312-14.234375zm0 0"/><path d="m504.375 144.710938h-35.027344c-4.210937 0-7.625 3.417968-7.625 7.628906 0 4.210937 3.414063 7.625 7.625 7.625h35.027344c4.210938 0 7.625-3.414063 7.625-7.625 0-4.210938-3.414062-7.628906-7.625-7.628906zm0 0"/><path d="m454.660156 105.125c3.617188 0 2.800782-.851562 34.140625-18.539062 3.644531-2.105469 4.894531-6.769532 2.789063-10.417969-2.105469-3.648438-6.769532-4.898438-10.417969-2.789063l-30.332031 17.511719c-6.738282 3.890625-3.960938 14.234375 3.820312 14.234375zm0 0"/><path d="m435.832031 20.410156c-3.648437-2.105468-8.3125-.859375-10.417969 2.789063l-17.515624 30.335937c-2.105469 3.648438-.855469 8.3125 2.792968 10.417969 3.632813 2.097656 8.300782.871094 10.417969-2.792969l17.511719-30.332031c2.109375-3.648437.859375-8.3125-2.789063-10.417969zm0 0"/></g><path d="m287.867188 374.375c0 10.1875-3.367188 18.742188-8.316407 25.492188-8.574219 11.714843-21.914062 18.007812-30.761719 18.007812h-185.941406c-9.105468 0-16.929687-6.960938-17.445312-16.050781-.433594-7.632813 4.160156-14.257813 10.777344-16.863281 1.523437-.601563 2.191406-2.347657 1.601562-3.875-10.265625-26.558594 12.910156-55.082032 41.460938-49.59375 1.496093.285156 2.972656-.582032 3.417968-2.039063 7.398438-24.363281 30.035156-42.09375 56.816406-42.09375 6.851563 0 13.421876 1.160156 19.542969 3.296875 20.988281 7.308594 36.609375 26.070312 39.382813 48.796875 28.242187-21.015625 69.464844-1.175781 69.464844 34.921875zm0 0" fill="#97bffd"/><path d="m287.867188 374.375c0 10.1875-3.367188 18.742188-8.316407 25.492188h-151.574219c-9.101562 0-16.933593-6.949219-17.464843-16.035157-.441407-7.636719 4.152343-14.273437 10.773437-16.878906 1.519532-.601563 2.1875-2.347656 1.601563-3.871094-10.261719-26.566406 12.914062-55.085937 41.457031-49.597656 1.496094.285156 2.972656-.582031 3.417969-2.042969 2.339843-7.707031 6.210937-14.757812 11.257812-20.785156 19.601563 6.828125 34.523438 23.644531 38.667969 44.351562.40625 2.023438 2.691406 3 4.460938 1.941407 27.996093-16.761719 65.71875 2.894531 65.71875 37.425781zm0 0" fill="#b9d3fd"/></svg>