<?xml version="1.0" encoding="iso-8859-1"?>
<!-- Generator: Adobe Illustrator 19.0.0, SVG Export Plug-In . SVG Version: 6.00 Build 0)  -->
<svg version="1.1" id="Capa_1" xmlns="http://www.w3.org/2000/svg" xmlns:xlink="http://www.w3.org/1999/xlink" x="0px" y="0px"
	 viewBox="0 0 490.667 490.667" style="enable-background:new 0 0 490.667 490.667;" xml:space="preserve">
<circle style="fill:#FFC107;" cx="245.333" cy="245.333" r="160"/>
<g>
	<path style="fill:#FFD54F;" d="M245.333,64C251.224,64,256,59.224,256,53.333V10.667C256,4.776,251.224,0,245.333,0
		c-5.891,0-10.667,4.776-10.667,10.667v42.667C234.667,59.224,239.442,64,245.333,64z"/>
	<path style="fill:#FFD54F;" d="M245.333,426.667c-5.891,0-10.667,4.776-10.667,10.667V480c0,5.891,4.776,10.667,10.667,10.667
		c5.891,0,10.667-4.776,10.667-10.667v-42.667C256,431.442,251.224,426.667,245.333,426.667z"/>
	<path style="fill:#FFD54F;" d="M480,234.667h-42.667c-5.891,0-10.667,4.776-10.667,10.667c0,5.891,4.776,10.667,10.667,10.667H480
		c5.891,0,10.667-4.776,10.667-10.667C490.667,239.442,485.891,234.667,480,234.667z"/>
	<path style="fill:#FFD54F;" d="M64,245.333c0-5.891-4.776-10.667-10.667-10.667H10.667C4.776,234.667,0,239.442,0,245.333
		C0,251.224,4.776,256,10.667,256h42.667C59.224,256,64,251.224,64,245.333z"/>
	<path style="fill:#FFD54F;" d="M140.096,84.395c1.909,3.307,5.44,5.341,9.259,5.333c1.873,0.007,3.715-0.486,5.333-1.429
		c5.102-2.946,6.849-9.469,3.904-14.571l-21.333-36.949c-2.979-5.082-9.514-6.787-14.596-3.808
		c-5.035,2.951-6.763,9.401-3.878,14.474L140.096,84.395z"/>
	<path style="fill:#FFD54F;" d="M350.571,406.272c-2.98-5.082-9.515-6.786-14.597-3.806c-5.033,2.952-6.761,9.4-3.878,14.473
		l21.333,36.949c1.909,3.307,5.44,5.341,9.259,5.333c1.873,0.007,3.715-0.486,5.333-1.429c5.102-2.946,6.849-9.469,3.904-14.571
		L350.571,406.272z"/>
	<path style="fill:#FFD54F;" d="M411.605,160c1.873,0.007,3.715-0.486,5.333-1.429l36.949-21.333
		c5.22-2.731,7.238-9.176,4.507-14.396c-2.731-5.22-9.176-7.238-14.396-4.507c-0.266,0.139-0.525,0.289-0.778,0.45l-36.949,21.333
		c-5.102,2.946-6.849,9.47-3.904,14.571c1.905,3.3,5.426,5.333,9.237,5.333V160z"/>
	<path style="fill:#FFD54F;" d="M73.728,332.096l-36.949,21.333c-5.102,2.946-6.849,9.469-3.904,14.571
		c1.905,3.3,5.426,5.333,9.237,5.333c1.873,0.007,3.715-0.486,5.333-1.429l36.949-21.333c5.22-2.731,7.238-9.176,4.507-14.396
		c-2.731-5.22-9.176-7.238-14.396-4.507c-0.266,0.139-0.525,0.289-0.778,0.45L73.728,332.096z"/>
	<path style="fill:#FFD54F;" d="M36.779,137.237l36.949,21.333c1.613,0.939,3.446,1.433,5.312,1.429
		c5.891,0,10.666-4.776,10.666-10.667c0-3.81-2.033-7.331-5.333-9.237l-36.949-21.333c-4.972-3.16-11.564-1.692-14.724,3.279
		s-1.692,11.564,3.279,14.724c0.253,0.161,0.512,0.311,0.778,0.45L36.779,137.237z"/>
	<path style="fill:#FFD54F;" d="M453.888,353.429l-36.949-21.333c-4.972-3.16-11.564-1.692-14.724,3.279
		c-3.16,4.971-1.692,11.564,3.279,14.724c0.253,0.161,0.513,0.311,0.778,0.45l36.949,21.333c1.619,0.943,3.46,1.436,5.333,1.429
		c5.891,0,10.666-4.776,10.666-10.667c0-3.811-2.033-7.332-5.333-9.237V353.429z"/>
	<path style="fill:#FFD54F;" d="M336,88.299c1.619,0.943,3.46,1.436,5.333,1.429c3.818,0.008,7.349-2.027,9.259-5.333l21.333-36.949
		c2.911-5.121,1.119-11.633-4.002-14.544c-5.073-2.883-11.521-1.156-14.473,3.878l-21.333,36.949
		C329.168,78.824,330.906,85.346,336,88.299z"/>
	<path style="fill:#FFD54F;" d="M154.667,402.368c-5.102-2.945-11.625-1.198-14.571,3.904l-21.333,36.949
		c-2.945,5.102-1.198,11.625,3.904,14.571c1.619,0.943,3.46,1.436,5.333,1.429c3.818,0.008,7.35-2.027,9.259-5.333l21.333-36.949
		c2.94-5.105,1.186-11.627-3.919-14.567C154.671,402.37,154.669,402.369,154.667,402.368z"/>
</g>
<path d="M245.333,405.333c-88.366,0-160-71.634-160-160s71.634-160,160-160s160,71.634,160,160
	C405.239,333.66,333.66,405.239,245.333,405.333z M245.333,106.667c-76.583,0-138.667,62.083-138.667,138.667
	S168.75,384,245.333,384S384,321.917,384,245.333C383.906,168.789,321.878,106.761,245.333,106.667z"/>
<path d="M245.333,64c-5.891,0-10.667-4.776-10.667-10.667V10.667C234.667,4.776,239.442,0,245.333,0C251.224,0,256,4.776,256,10.667
	v42.667C256,59.224,251.224,64,245.333,64z"/>
<path d="M245.333,490.667c-5.891,0-10.667-4.776-10.667-10.667v-42.667c0-5.891,4.776-10.667,10.667-10.667
	c5.891,0,10.667,4.776,10.667,10.667V480C256,485.891,251.224,490.667,245.333,490.667z"/>
<path d="M480,256h-42.667c-5.891,0-10.667-4.776-10.667-10.667c0-5.891,4.776-10.667,10.667-10.667H480
	c5.891,0,10.667,4.776,10.667,10.667C490.667,251.224,485.891,256,480,256z"/>
<path d="M53.333,256H10.667C4.776,256,0,251.224,0,245.333c0-5.891,4.776-10.667,10.667-10.667h42.667
	c5.891,0,10.667,4.776,10.667,10.667C64,251.224,59.224,256,53.333,256z"/>
<path d="M149.333,89.728c-3.811,0-7.332-2.033-9.237-5.333l-21.333-36.949c-2.731-5.22-0.713-11.665,4.507-14.396
	c4.912-2.569,10.972-0.949,13.946,3.729l21.333,36.949c2.946,5.102,1.198,11.625-3.904,14.571c-1.621,0.936-3.461,1.429-5.333,1.429
	H149.333z"/>
<path d="M362.667,459.221c-3.811,0-7.332-2.033-9.237-5.333l-21.333-36.949c-3.16-4.972-1.692-11.564,3.279-14.724
	c4.971-3.16,11.564-1.692,14.724,3.279c0.161,0.253,0.311,0.513,0.45,0.778l21.333,36.949c2.946,5.102,1.198,11.625-3.904,14.571
	c-1.621,0.936-3.461,1.429-5.333,1.429H362.667z"/>
<path d="M411.605,160c-5.891,0-10.666-4.776-10.666-10.667c0-3.81,2.033-7.331,5.333-9.237l36.949-21.333
	c4.972-3.16,11.564-1.692,14.724,3.279s1.692,11.564-3.279,14.724c-0.253,0.161-0.513,0.311-0.778,0.45l-36.949,21.333
	C415.319,159.493,413.48,159.993,411.605,160z"/>
<path d="M42.112,373.333c-5.891,0-10.666-4.776-10.666-10.667c0-3.811,2.033-7.332,5.333-9.237l36.949-21.333
	c5.22-2.731,11.665-0.713,14.396,4.507c2.569,4.911,0.949,10.972-3.729,13.946l-36.949,21.333
	C45.826,372.826,43.986,373.327,42.112,373.333z"/>
<path d="M79.061,160c-1.872,0-3.712-0.493-5.333-1.429l-36.949-21.333c-4.972-3.16-6.44-9.753-3.279-14.724
	c2.974-4.678,9.035-6.299,13.946-3.729l36.949,21.333c5.09,2.966,6.812,9.497,3.846,14.587
	C86.336,157.972,82.844,159.987,79.061,160z"/>
<path d="M448.555,373.333c-1.872,0-3.712-0.493-5.333-1.429l-36.949-21.333c-5.22-2.731-7.238-9.176-4.507-14.396
	s9.176-7.238,14.396-4.507c0.266,0.139,0.525,0.289,0.778,0.45l36.949,21.333c5.102,2.946,6.849,9.469,3.904,14.571
	c-1.905,3.3-5.426,5.333-9.237,5.333V373.333z"/>
<path d="M341.333,89.728c-5.891,0-10.667-4.776-10.666-10.667c0-1.872,0.493-3.712,1.429-5.333l21.333-36.949
	c3.16-4.972,9.753-6.44,14.724-3.279c4.678,2.974,6.298,9.034,3.729,13.946l-21.333,36.949
	C348.648,87.688,345.136,89.72,341.333,89.728z"/>
<path d="M128,459.221c-5.891,0-10.667-4.776-10.666-10.667c0-1.872,0.493-3.712,1.429-5.333l21.333-36.949
	c2.731-5.22,9.176-7.238,14.396-4.507s7.238,9.176,4.507,14.396c-0.139,0.266-0.289,0.525-0.45,0.778l-21.333,36.949
	C135.314,457.182,131.803,459.214,128,459.221z"/>
<g>
</g>
<g>
</g>
<g>
</g>
<g>
</g>
<g>
</g>
<g>
</g>
<g>
</g>
<g>
</g>
<g>
</g>
<g>
</g>
<g>
</g>
<g>
</g>
<g>
</g>
<g>
</g>
<g>
</g>
</svg>
