<svg height="480pt" viewBox="0 0 480 480" width="480pt" xmlns="http://www.w3.org/2000/svg"><path d="m407.605469 192c0 66.273438-53.726563 120-120 120-66.273438 0-120-53.726562-120-120s53.726562-120 120-120c66.273437 0 120 53.726562 120 120zm0 0" fill="#fdd020"/><path d="m287.605469 48c-4.417969 0-8-3.582031-8-8v-32c0-4.417969 3.582031-8 8-8s8 3.582031 8 8v32c0 4.417969-3.582031 8-8 8zm0 0" fill="#fdd020"/><path d="m471.605469 200h-32c-4.417969 0-8-3.582031-8-8s3.582031-8 8-8h32c4.417969 0 8 3.582031 8 8s-3.582031 8-8 8zm0 0" fill="#fdd020"/><path d="m383.605469 296c-5.851563 0-11.6875.585938-17.425781 1.742188-4.324219-21.582032-18.304688-39.992188-37.929688-49.957032-19.628906-9.964844-42.742188-10.382812-62.71875-1.136718-18.078125-49.796876-73.101562-75.507813-122.898438-57.429688-49.796874 18.082031-75.507812 73.105469-57.429687 122.902344-43.621094 1.378906-78.078125 37.480468-77.421875 81.121094.652344 43.636718 36.179688 78.6875 79.824219 78.757812h296c48.601562 0 88-39.398438 88-88s-39.398438-88-88-88zm0 0" fill="#a3d4f7"/><g fill="#fdd020"><path d="m175.605469 80-32-32"/><path d="m175.605469 88c-2.121094 0-4.15625-.84375-5.65625-2.34375l-32-32c-2.082031-2.007812-2.914063-4.984375-2.183594-7.78125.734375-2.796875 2.917969-4.980469 5.714844-5.710938 2.796875-.734374 5.773437.101563 7.78125 2.179688l32 32c2.285156 2.289062 2.96875 5.730469 1.730469 8.71875-1.234376 2.988281-4.152344 4.9375-7.386719 4.9375zm0 0"/><path d="m399.605469 80 32-32"/><path d="m399.605469 88c-3.234375 0-6.152344-1.949219-7.390625-4.9375-1.238282-2.988281-.554688-6.429688 1.734375-8.71875l32-32c2.007812-2.078125 4.980469-2.914062 7.78125-2.179688 2.796875.730469 4.980469 2.914063 5.710937 5.710938.734375 2.796875-.101562 5.773438-2.179687 7.78125l-32 32c-1.5 1.5-3.535157 2.34375-5.65625 2.34375zm0 0"/></g><path d="m295.605469 40v-32c0-4.417969-3.582031-8-8-8s-8 3.582031-8 8v32c0 4.417969 3.582031 8 8 8s8-3.582031 8-8zm0 0"/><path d="m471.605469 184h-32c-4.417969 0-8 3.582031-8 8s3.582031 8 8 8h32c4.417969 0 8-3.582031 8-8s-3.582031-8-8-8zm0 0"/><path d="m383.605469 288c-3.832031 0-7.660157.230469-11.464844.6875-.070313-.238281-.175781-.464844-.25-.703125 42.957031-37.597656 55.773437-99.117187 31.402344-150.738281-24.371094-51.617188-80.015625-80.820313-136.339844-71.546875-56.328125 9.277343-99.671875 54.777343-106.203125 111.484375-51.109375 7.40625-89.054688 51.171875-89.144531 102.816406.003906 8.433594 1.054687 16.832031 3.117187 25.007812-45.414062 6.929688-77.859375 47.632813-74.484375 93.453126 3.371094 45.820312 41.425781 81.332031 87.367188 81.539062h296c53.019531 0 96-42.980469 96-96s-42.980469-96-96-96zm-96-208c45.683593-.023438 86.796875 27.71875 103.875 70.085938 17.082031 42.371093 6.703125 90.871093-26.21875 122.539062-.152344-.257812-.34375-.488281-.488281-.746094-1.371094-2.339844-2.847657-4.605468-4.433594-6.789062-.800782-1.113282-1.648438-2.179688-2.503906-3.242188-.855469-1.0625-1.785157-2.121094-2.710938-3.152344-1.882812-2.109374-3.878906-4.113281-5.976562-6.007812-.496094-.457031-.992188-.902344-1.496094-1.34375-4.421875-3.8125-9.25-7.121094-14.398438-9.871094-.714844-.382812-1.441406-.71875-2.160156-1.082031-2.429688-1.195313-4.917969-2.261719-7.457031-3.199219-1.445313-.53125-2.914063-1.042968-4.40625-1.527344-1.210938-.367187-2.402344-.753906-3.632813-1.0625-2.679687-.691406-5.394531-1.238281-8.128906-1.648437-.800781-.113281-1.601562-.199219-2.398438-.289063-11.859374-1.53125-23.914062-.277343-35.203124 3.664063-1.066407-2.261719-2.191407-4.472656-3.375-6.632813-.527344-.953124-1.128907-1.855468-1.679688-2.785156-.710938-1.183594-1.390625-2.398437-2.144531-3.542968-.75-1.144532-1.414063-2.015626-2.128907-3.023438-.710937-1.007812-1.367187-2.007812-2.09375-2.976562-.730468-.96875-1.601562-1.984376-2.402343-2.976563-.796875-.992187-1.4375-1.824219-2.199219-2.695313-.757812-.871093-1.71875-1.832031-2.574219-2.75-.855469-.921874-1.601562-1.738281-2.402343-2.5625-.796876-.824218-1.839844-1.71875-2.757813-2.566406-.921875-.847656-1.695313-1.601562-2.585937-2.402344-.886719-.796874-1.933594-1.597656-2.910157-2.359374-.976562-.757813-1.816406-1.496094-2.753906-2.199219-.933594-.703125-2.023437-1.421875-3.039063-2.128907-1.015624-.703124-1.929687-1.382812-2.917968-2.023437-.992188-.640625-2.113282-1.277344-3.203125-1.910156-1.085938-.632813-2.023438-1.25-3.0625-1.824219-1.039063-.578125-2.175781-1.113281-3.265625-1.664062-1.085938-.550782-2.132813-1.121094-3.199219-1.601563-1.0625-.480469-2.230469-.960937-3.351563-1.429687-1.121093-.472657-2.222656-.96875-3.359374-1.402344-1.136719-.429688-2.289063-.800782-3.441407-1.199219-1.152343-.398437-2.304687-.800781-3.480469-1.175781-1.175781-.375-2.308593-.625-3.460937-.9375s-2.402344-.664063-3.648437-.941406c-1.25-.28125-2.328126-.464844-3.503907-.6875-1.175781-.226563-2.488281-.496094-3.746093-.691407-1.253907-.191406-2.398438-.292969-3.582032-.4375s-2.519531-.3125-3.800781-.417969c-1.28125-.101562-2.398437-.125-3.617187-.175781-1.136719-.085937-2.175782-.207031-3.296876-.207031 7.996094-55.027344 55.117188-95.882812 110.722657-96zm96 384h-296c-39.441407.171875-71.667969-31.441406-72.257813-70.878906-.585937-39.4375 30.683594-71.996094 70.113282-73 2.558593-.074219 4.929687-1.367188 6.375-3.480469 1.449218-2.109375 1.796874-4.789063.9375-7.199219-9.253907-25.75-5.957032-54.347656 8.914062-77.316406s39.609375-37.679688 66.894531-39.773438c2.320313-.183593 4.636719-.359374 7-.359374 36.734375.148437 69.546875 23.015624 82.398438 57.433593.777343 2.085938 2.386719 3.757813 4.445312 4.605469 2.058594.851562 4.378907.804688 6.402344-.128906 8.390625-3.894532 17.527344-5.90625 26.777344-5.902344 2.890625.027344 5.777343.242188 8.640625.648438.589844.078124 1.199218.144531 1.796875.238281 2.457031.414062 4.890625.96875 7.28125 1.664062.992187.289063 1.96875.601563 2.945312.9375 1.878907.632813 3.710938 1.359375 5.511719 2.167969 1.40625.632812 2.773438 1.328125 4.121094 2.054688 1.007812.535156 1.980468 1.113281 2.949218 1.703124 1.90625 1.167969 3.75 2.429688 5.519532 3.785157.875.664062 1.746094 1.335937 2.578125 2.046875 1.070312.90625 2.128906 1.816406 3.136719 2.792968 1.507812 1.460938 2.941406 3 4.292968 4.609376.691406.800781 1.335938 1.597656 1.984375 2.480468 1.515625 1.957032 2.914063 4 4.191407 6.117188.273437.457031.515624.929687.800781 1.386718 1.449219 2.546876 2.730469 5.1875 3.824219 7.902344 1.386718 3.480469 2.457031 7.082032 3.199218 10.753906.875 4.332032 5.09375 7.136719 9.425782 6.261719 5.203124-1.03125 10.496093-1.550781 15.800781-1.550781 44.183593 0 80 35.816406 80 80s-35.816407 80-80 80zm0 0"/><path d="m175.605469 88c3.234375 0 6.152343-1.949219 7.386719-4.9375 1.238281-2.988281.554687-6.429688-1.730469-8.71875l-32-32c-2.007813-2.078125-4.984375-2.914062-7.78125-2.179688-2.796875.730469-4.980469 2.914063-5.714844 5.710938-.730469 2.796875.101563 5.773438 2.183594 7.78125l32 32c1.5 1.5 3.535156 2.34375 5.65625 2.34375zm0 0"/><path d="m405.261719 85.65625 32-32c2.078125-2.007812 2.914062-4.984375 2.179687-7.78125-.730468-2.796875-2.914062-4.980469-5.710937-5.710938-2.800781-.734374-5.773438.101563-7.78125 2.179688l-32 32c-2.082031 2.007812-2.914063 4.984375-2.183594 7.78125.734375 2.796875 2.917969 4.980469 5.714844 5.710938 2.796875.734374 5.773437-.101563 7.78125-2.179688zm0 0"/></svg>