<svg height="480pt" viewBox="0 -16 480 480" width="480pt" xmlns="http://www.w3.org/2000/svg"><g fill="#fdd020"><path d="m424 160c0 57.4375-46.5625 104-104 104s-104-46.5625-104-104 46.5625-104 104-104 104 46.5625 104 104zm0 0"/><path d="m472 168h-16c-4.417969 0-8-3.582031-8-8s3.582031-8 8-8h16c4.417969 0 8 3.582031 8 8s-3.582031 8-8 8zm0 0"/><path d="m304 32c-4.417969 0-8-3.582031-8-8v-16c0-4.417969 3.582031-8 8-8s8 3.582031 8 8v16c0 4.417969-3.582031 8-8 8zm0 0"/><path d="m416 72c-3.234375 0-6.152344-1.949219-7.390625-4.9375s-.550781-6.429688 1.734375-8.71875l16-16c2.007812-2.078125 4.984375-2.914062 7.78125-2.179688 2.796875.730469 4.980469 2.914063 5.710938 5.710938.734374 2.796875-.101563 5.773438-2.179688 7.78125l-16 16c-1.5 1.5-3.535156 2.34375-5.65625 2.34375zm0 0"/></g><path d="m371.03125 360c30.171875.726562 58.363281-14.957031 73.660156-40.96875s15.296875-58.273438 0-84.285156c-15.296875-26.015625-43.488281-41.695313-73.660156-40.96875-5.640625 0-11.265625.554687-16.800781 1.648437-6.925781-32.023437-35.371094-54.792969-68.132813-54.539062-10.019531.003906-19.917968 2.144531-29.042968 6.28125-16.0625-41.289063-59.039063-65.5-102.675782-57.84375-43.640625 7.65625-75.808594 45.046875-76.859375 89.339843.023438 10.351563 1.859375 20.617188 5.425781 30.335938-27.144531.160156-52.117187 14.878906-65.402343 38.546875-13.289063 23.671875-12.847657 52.65625 1.152343 75.910156 14 23.257813 39.40625 37.207031 66.542969 36.542969" fill="#a3d4f7"/><path d="m336 392c0 17.671875-14.328125 32-32 32s-32-14.328125-32-32c0-24 32-80 32-80s32 56 32 80zm0 0" fill="#60a2d7"/><path d="m256 312c0 17.671875-14.328125 32-32 32s-32-14.328125-32-32c0-24 32-80 32-80s32 56 32 80zm0 0" fill="#60a2d7"/><path d="m184 408c0 17.671875-14.328125 32-32 32s-32-14.328125-32-32c0-24 32-80 32-80s32 56 32 80zm0 0" fill="#60a2d7"/><path d="m456 152c-4.417969 0-8 3.582031-8 8s3.582031 8 8 8h16c4.417969 0 8-3.582031 8-8s-3.582031-8-8-8zm0 0"/><path d="m304 32c4.417969 0 8-3.582031 8-8v-16c0-4.417969-3.582031-8-8-8s-8 3.582031-8 8v16c0 4.417969 3.582031 8 8 8zm0 0"/><path d="m426.34375 42.34375-16 16c-2.078125 2.007812-2.914062 4.984375-2.179688 7.78125.730469 2.796875 2.914063 4.980469 5.710938 5.710938 2.796875.734374 5.773438-.101563 7.78125-2.179688l16-16c2.078125-2.007812 2.914062-4.984375 2.179688-7.78125-.730469-2.796875-2.914063-4.980469-5.710938-5.710938-2.796875-.734374-5.773438.101563-7.78125 2.179688zm0 0"/><path d="m304 432c22.082031-.027344 39.972656-17.917969 40-40 0-25.390625-29.671875-78.046875-33.054688-84-1.542968-2.332031-4.148437-3.738281-6.945312-3.738281s-5.402344 1.40625-6.945312 3.738281c-3.382813 5.953125-33.054688 58.609375-33.054688 84 .027344 22.082031 17.917969 39.972656 40 40zm0-103.246094c10.097656 19.335938 24 49.101563 24 63.246094 0 13.253906-10.746094 24-24 24s-24-10.746094-24-24c0-14.144531 13.902344-43.910156 24-63.246094zm0 0"/><path d="m224 352c22.082031-.027344 39.972656-17.917969 40-40 0-25.390625-29.671875-78.046875-33.054688-84-1.542968-2.332031-4.148437-3.738281-6.945312-3.738281s-5.402344 1.40625-6.945312 3.738281c-3.382813 5.953125-33.054688 58.609375-33.054688 84 .027344 22.082031 17.917969 39.972656 40 40zm0-103.246094c10.097656 19.335938 24 49.101563 24 63.246094 0 13.253906-10.746094 24-24 24s-24-10.746094-24-24c0-14.144531 13.902344-43.910156 24-63.246094zm0 0"/><path d="m145.054688 324c-3.382813 5.953125-33.054688 58.609375-33.054688 84 0 22.089844 17.910156 40 40 40s40-17.910156 40-40c0-25.390625-29.671875-78.046875-33.054688-84-1.542968-2.332031-4.148437-3.738281-6.945312-3.738281s-5.402344 1.40625-6.945312 3.738281zm6.945312 108c-13.253906 0-24-10.746094-24-24 0-14.144531 13.902344-43.910156 24-63.246094 10.097656 19.335938 24 49.101563 24 63.246094 0 13.253906-10.746094 24-24 24zm0 0"/><path d="m85.238281 368c4.421875 0 8-3.582031 8-8s-3.578125-8-8-8c-24.289062.640625-47.054687-11.824219-59.597656-32.636719-12.546875-20.8125-12.9375-46.761719-1.027344-67.941406 11.910157-21.183594 34.285157-34.328125 58.585938-34.421875 2.570312-.074219 4.949219-1.375 6.390625-3.503906 1.445312-2.125 1.777344-4.816406.898437-7.230469-3.253906-8.839844-4.929687-18.183594-4.953125-27.601563.621094-46.179687 38.484375-83.148437 84.664063-82.664062 20.445312.027344 40.207031 7.351562 55.730469 20.65625 1.8125 1.601562 3.566406 3.199219 5.238281 4.878906.511719.519532 1.0625 1.015625 1.601562 1.601563 2.042969 2.214843 3.96875 4.539062 5.765625 6.960937.433594.574219.863282 1.148438 1.28125 1.734375 1.773438 2.503907 3.410156 5.101563 4.894532 7.785157.289062.519531.554687 1.054687.800781 1.597656 1.523437 2.863281 2.875 5.816406 4.046875 8.839844.785156 2.0625 2.382812 3.710937 4.421875 4.554687 2.039062.84375 4.335937.808594 6.347656-.097656 8.085937-3.683594 16.867187-5.59375 25.75-5.601563 28.949219-.214844 54.101563 19.851563 60.320313 48.121094.886718 4.304688 5.074218 7.089844 9.386718 6.242188 2.398438-.472657 4.800782-.800782 7.199219-1.058594 1.191406-.117188 2.398437-.152344 3.589844-.214844 1.195312-.0625 2.347656-.160156 3.515625-.167969 1.535156 0 3.070312.054688 4.605468.128907.800782 0 1.671876.0625 2.503907.128906 1.785156.140625 3.5625.359375 5.335937.621094.511719.074218 1.03125.144531 1.542969.234374 1.917969.320313 3.8125.710938 5.691406 1.175782l1.085938.269531c1.929687.503906 3.832031 1.074219 5.710937 1.722656l1.027344.367188c1.847656.664062 3.679688 1.390625 5.46875 2.191406.394531.175781.800781.359375 1.152344.542969 1.738281.800781 3.449218 1.671875 5.121094 2.609375 23.71875 13.085937 38.507812 37.976562 38.664062 65.0625-.566406 41.972656-34.992188 75.570312-76.96875 75.113281-4.417969 0-8 3.582031-8 8s3.582031 8 8 8c50.808594.449219 92.394531-40.308594 92.96875-91.113281-.113281-30.183594-15.257812-58.328125-40.382812-75.054688 5.488281-13.265625 8.335937-27.476562 8.382812-41.832031.03125-49.265625-32.152344-92.761719-79.277344-107.132812-47.125-14.371094-98.105468 3.761718-125.570312 44.660156-16.8125-11.390625-36.644532-17.496094-56.953125-17.527344-55.019531-.488281-100.058594 43.644531-100.6875 98.664062.011719 7.824219.984375 15.613282 2.894531 23.199219-41.371094 5.585938-72.277344 40.839844-72.40625 82.585938.527344 46.582031 38.652344 83.957031 85.238281 83.550781zm234.761719-304c52.996094.058594 95.941406 43.003906 96 96 .007812 11.652344-2.140625 23.207031-6.335938 34.078125-.175781-.078125-.367187-.132813-.542968-.214844-2.5625-1.128906-5.179688-2.144531-7.855469-3.039062-.394531-.128907-.800781-.289063-1.152344-.417969-2.816406-.910156-5.6875-1.679688-8.609375-2.328125-.289062-.0625-.566406-.148437-.847656-.214844-2.902344-.617187-5.855469-1.078125-8.847656-1.414062-.304688-.042969-.609375-.113281-.921875-.144531-3.273438-.34375-6.5625-.515626-9.855469-.519532-3.644531-.003906-7.285156.207032-10.902344.628906-10.449218-32.023437-40.371094-53.648437-74.058594-53.527343-2.132812 0-4.238281.085937-6.316406.257812-6.265625.5-12.441406 1.761719-18.402344 3.75-.09375-.207031-.222656-.398437-.328124-.605469-1.085938-2.242187-2.269532-4.425781-3.519532-6.5625-.519531-.886718-1.089844-1.75-1.601562-2.621093-.910156-1.449219-1.847656-2.875-2.832032-4.265625-.6875-.976563-1.375-1.945313-2.09375-2.886719-.914062-1.210937-1.871093-2.402344-2.847656-3.539063-2.589844-3.164062-5.371094-6.167968-8.328125-8.988281 17.730469-27.039062 47.867188-43.355469 80.199219-43.425781zm0 0"/></svg>