<svg height="512pt" viewBox="0 0 512 512" width="512pt" xmlns="http://www.w3.org/2000/svg"><path d="m309.332031 64c-27.5625 0-77.714843 13.226562-94.933593 48.683594-1.597657 3.304687-1.386719 7.1875.554687 10.304687 1.941406 3.113281 5.378906 5.011719 9.046875 5.011719 55.703125 0 105.878906 33.214844 127.785156 84.609375 2.175782 5.097656 7.894532 7.699219 13.121094 5.949219 26.21875-8.53125 46.933594-6.3125 68.011719 2.667968 1.34375.574219 2.773437.851563 4.179687.851563 1.941406 0 3.882813-.53125 5.589844-1.578125 2.964844-1.789062 4.84375-4.925781 5.054688-8.382812 2.539062-38.890626-10.644532-75.882813-37.160157-104.191407-26.132812-27.925781-63.019531-43.925781-101.25-43.925781zm0 0" fill="#ffc107"/><path d="m441.324219 201.601562c-23.296875-9.921874-47.320313-12.886718-73.878907-5.996093-27.050781-54.335938-82.347656-88.9375-143.445312-88.9375-78.101562 0-144.617188 56.640625-157.609375 132.863281-39.425781 12.84375-66.390625 49.34375-66.390625 91.136719 0 52.925781 43.070312 96 96 96h298.667969c64.679687 0 117.332031-52.652344 117.332031-117.335938 0-46.761719-27.734375-89.023437-70.675781-107.730469zm0 0" fill="#bbdefb"/><path d="m334.039062 277.867188-64-21.332032c-3.117187-1.027344-6.445312-.597656-9.132812 1.128906-2.707031 1.75-4.5 4.609376-4.863281 7.808594l-8.980469 80.808594-28.972656-14.503906c-2.984375-1.472656-6.484375-1.515625-9.449219-.042969-2.988281 1.449219-5.121094 4.222656-5.78125 7.507813l-32 160c-1.003906 4.972656 1.664063 9.984374 6.378906 11.945312 1.34375.535156 2.730469.8125 4.09375.8125 3.480469 0 6.847657-1.707031 8.875-4.757812l58.773438-88.171876 34.242187 17.132813c2.792969 1.386719 6.058594 1.472656 8.957032.277344 2.902343-1.238281 5.078124-3.691407 5.996093-6.65625l42.667969-138.667969c1.726562-5.546875-1.300781-11.453125-6.804688-13.289062zm0 0" fill="#ffc107"/><path d="m181.332031 512c-1.363281 0-2.75-.277344-4.074219-.8125-4.714843-1.960938-7.378906-6.953125-6.378906-11.945312l32-160c.640625-3.261719 2.796875-6.035157 5.78125-7.507813 2.988282-1.472656 6.488282-1.429687 9.453125.042969l28.96875 14.503906 8.980469-80.808594c.363281-3.199218 2.15625-6.082031 4.867188-7.808594 2.6875-1.726562 6.015624-2.15625 9.128906-1.128906l64 21.332032c5.503906 1.835937 8.511718 7.722656 6.804687 13.269531l-42.664062 138.664062c-.917969 2.988281-3.117188 5.441407-5.996094 6.65625-2.902344 1.21875-6.164063 1.132813-8.960937-.277343l-34.238282-17.128907-58.773437 88.171875c-2.050781 3.070313-5.417969 4.777344-8.898438 4.777344zm39.722657-154.878906-18.6875 93.4375 34.089843-51.132813c3.007813-4.503906 8.855469-6.058593 13.65625-3.628906l31.402344 15.703125 35.925781-116.671875-41.601562-13.867187-9.214844 82.902343c-.40625 3.453125-2.433594 6.527344-5.503906 8.191407-3.117188 1.664062-6.742188 1.707031-9.878906.167968zm0 0"/><path d="m394.667969 426.667969h-42.667969c-5.886719 0-10.667969-4.78125-10.667969-10.667969s4.78125-10.667969 10.667969-10.667969h42.667969c52.925781 0 96-43.070312 96-96 0-52.925781-43.074219-96-96-96-9.324219 0-19.074219 1.707031-29.78125 5.25-5.269531 1.769531-10.988281-.875-13.144531-5.972656-21.800782-51.394531-71.933594-84.609375-127.742188-84.609375-69.695312 0-128.789062 52.136719-137.449219 121.28125-.535156 4.414062-3.777343 8-8.085937 9.042969-33.621094 8.128906-57.132813 37.890625-57.132813 72.34375 0 41.171875 33.496094 74.664062 74.667969 74.664062h42.667969c5.886719 0 10.664062 4.78125 10.664062 10.667969s-4.777343 10.667969-10.664062 10.667969h-42.667969c-52.929688 0-96-43.074219-96-96 0-41.898438 26.964844-78.378907 66.410156-91.117188 13.035156-76.242187 79.550782-132.882812 157.589844-132.882812 61.207031 0 116.480469 34.601562 143.402344 88.9375 9.449218-2.410157 18.453125-3.605469 27.265625-3.605469 64.679687 0 117.332031 52.628906 117.332031 117.332031 0 64.683594-52.652344 117.335938-117.332031 117.335938zm0 0"/><path d="m437.332031 213.332031c-5.886719 0-10.664062-4.777343-10.664062-10.664062 0-64.707031-52.652344-117.335938-117.335938-117.335938-24.296875 0-64.125 12.738281-75.730469 36.652344-2.582031 5.3125-8.941406 7.507813-14.253906 4.925781-5.308594-2.558594-7.507812-8.9375-4.949218-14.226562 17.195312-35.457032 67.351562-48.683594 94.933593-48.683594 76.460938 0 138.667969 62.207031 138.667969 138.667969 0 5.886719-4.777344 10.664062-10.667969 10.664062zm0 0"/><path d="m309.332031 42.667969c-5.886719 0-10.664062-4.78125-10.664062-10.667969v-21.332031c0-5.890625 4.777343-10.667969 10.664062-10.667969 5.890625 0 10.667969 4.777344 10.667969 10.667969v21.332031c0 5.886719-4.777344 10.667969-10.667969 10.667969zm0 0"/><path d="m188.652344 92.652344c-2.730469 0-5.464844-1.046875-7.554688-3.117188l-15.082031-15.082031c-4.160156-4.160156-4.160156-10.921875 0-15.082031s10.921875-4.160156 15.082031 0l15.082032 15.082031c4.160156 4.160156 4.160156 10.921875 0 15.082031-2.066407 2.070313-4.796876 3.117188-7.527344 3.117188zm0 0"/><path d="m501.332031 213.332031h-21.332031c-5.886719 0-10.667969-4.777343-10.667969-10.664062 0-5.890625 4.78125-10.667969 10.667969-10.667969h21.332031c5.890625 0 10.667969 4.777344 10.667969 10.667969 0 5.886719-4.777344 10.664062-10.667969 10.664062zm0 0"/><path d="m430.015625 92.652344c-2.730469 0-5.460937-1.046875-7.550781-3.117188-4.160156-4.160156-4.160156-10.921875 0-15.082031l15.082031-15.082031c4.160156-4.160156 10.921875-4.160156 15.082031 0s4.160156 10.921875 0 15.082031l-15.082031 15.082031c-2.070313 2.070313-4.800781 3.117188-7.53125 3.117188zm0 0"/></svg>