<?xml version="1.0" encoding="UTF-8" standalone="no"?>
<svg id="svg6313" xmlns:rdf="http://www.w3.org/1999/02/22-rdf-syntax-ns#" xmlns="http://www.w3.org/2000/svg" height="247.73mm" width="141.91mm" version="1.1" xmlns:cc="http://creativecommons.org/ns#" xmlns:xlink="http://www.w3.org/1999/xlink" viewBox="0 0 502.84251 877.78864" xmlns:dc="http://purl.org/dc/elements/1.1/">
<defs id="defs6315">
<linearGradient id="d" y2="74.189" gradientUnits="userSpaceOnUse" y1="498.59" x2="184.55" x1="184.55">
<stop id="stop13" stop-color="#1D71B8" offset="0"/>
<stop id="stop15" stop-color="#36A9E1" offset=".297"/>
<stop id="stop17" stop-color="#008D36" offset=".7273"/>
<stop id="stop19" stop-color="#95C11F" offset="1"/>
</linearGradient>
<linearGradient id="linearGradient6266" y2="190.68" xlink:href="#linearGradient6260" gradientUnits="userSpaceOnUse" x2="210.58" y1="278.29" x1="211.34"/>
<linearGradient id="linearGradient6260">
<stop id="stop6262" stop-color="#e33e3e" offset="0"/>
<stop id="stop6264" stop-color="#e0ec7b" offset="1"/>
</linearGradient>
<linearGradient id="linearGradient6272" y2="473.72" xlink:href="#linearGradient6260" gradientUnits="userSpaceOnUse" x2="211.7" y1="397.34" x1="212.46"/>
</defs>
<g id="layer1" transform="translate(-97.15 -70.611)">
<g id="g6274" transform="matrix(1.6366 0 0 1.6366 46.523 39.919)">
<path id="path8" d="m338.18 42.84c0-13.303-10.785-24.087-24.088-24.087h-259.07c-13.303 0-24.088 10.784-24.088 24.087s10.785 24.088 24.088 24.088h259.07c13.303 0 24.088-10.785 24.088-24.088z" fill="#95c11f"/>
<path id="path10" d="m338.18 531.01c0-13.305-10.785-24.088-24.088-24.088h-259.07c-13.303 0-24.088 10.783-24.088 24.088 0 13.302 10.785 24.088 24.088 24.088h259.07c13.303 0 24.088-10.786 24.088-24.088z" fill="#1d71b8"/>
<path id="path21" d="m299.74 498.59h-230.37l-0.869-3.396c-0.99-3.866-23.604-95.252 30.225-144.69 19.908-18.283 34.309-28.842 43.838-35.829 16.043-11.76 18.933-13.88 18.933-28.29 0-14.412-2.89-16.531-18.933-28.291-9.53-6.987-23.93-17.544-43.838-35.828-53.829-49.43-31.215-140.81-30.225-144.68l0.869-3.397h230.37l0.869 3.397c0.99 3.865 23.604 95.252-30.224 144.69-19.91 18.284-34.311 28.841-43.84 35.828-16.043 11.759-18.933 13.878-18.933 28.291 0 14.41 2.89 16.53 18.933 28.29 9.53 6.987 23.93 17.546 43.84 35.829 53.828 49.435 31.213 140.82 30.224 144.69l-0.869 3.396zm-223.25-9.032h216.13c3.481-16.807 15.936-91.736-28.342-132.4-19.541-17.945-33.141-27.915-43.071-35.196-16.462-12.068-22.623-16.584-22.623-35.573s6.161-23.505 22.623-35.575c9.93-7.28 23.53-17.25 43.071-35.196 44.336-40.717 31.838-115.6 28.345-132.4h-216.13c-3.482 16.808-15.937 91.736 28.34 132.4 19.541 17.946 33.14 27.916 43.07 35.196 16.462 12.07 22.624 16.586 22.624 35.575s-6.161 23.505-22.624 35.573c-9.93 7.281-23.53 17.251-43.07 35.196-44.335 40.718-31.836 115.6-28.343 132.4z" fill="url(#d)"/>
<path id="path23" d="m173.5 260.7" stroke="#000" stroke-miterlimit="10" stroke-width="9.0319" fill="none"/>
<path id="path6270" d="m103.3 190.94c1.3978 2.1093 2.8877 4.1709 4.5 6.166 18.966 23.495 47.228 37.617 67.994 59.443 4.8558 6.5584 7.7418 14.461 8.7266 22.535 1.7839-15.223 11.136-28.805 24.107-36.756 19.966-15.479 42.823-30.401 57.053-51.389h-162.38z" fill="url(#linearGradient6266)"/>
<path id="path6257" d="m184.44 395.62c-1.2891 5.9662-8.9692 11.274-19.857 14.791-22.224 7.598-46.816 14.526-62.809 24.959-13.035 8.9214-15.467 19.926-15.062 30.27 0.25961 3.3927 0.9506 6.7086 2.0195 10.062h191.65c4.4497-14.436 3.0046-30.44-16.74-42.826-19.613-11.533-51.295-17.505-72.074-28.494-3.8432-2.622-6.2289-5.7603-7.1309-8.7617z" fill="url(#linearGradient6272)"/>
</g>
</g>
</svg>
