<?xml version="1.0" encoding="iso-8859-1"?>
<!-- Generator: Adobe Illustrator 19.0.0, SVG Export Plug-In . SVG Version: 6.00 Build 0)  -->
<svg version="1.1" id="Capa_1" xmlns="http://www.w3.org/2000/svg" xmlns:xlink="http://www.w3.org/1999/xlink" x="0px" y="0px"
	 viewBox="0 0 512 512" style="enable-background:new 0 0 512 512;" xml:space="preserve">
<path style="fill:#90CAF9;" d="M412.864,176.032C397.92,102.016,333.088,48,256,48c-64.032,0-121.504,38.112-146.688,96.032
	C48.8,145.472,0,195.136,0,256c0,61.76,50.24,112,112,112h304c52.928,0,96-43.072,96-96
	C512,218.016,466.464,174.656,412.864,176.032z"/>
<path style="fill:#E3F2FD;" d="M336,304c-1.408,0-2.784,0.032-4.128,0.096C317.632,248.288,267.008,208,208,208
	c-45.6,0-87.968,24.8-110.752,64c-0.416,0-0.832,0-1.248,0c-52.928,0-96,43.072-96,96s43.072,96,96,96h240c44.128,0,80-35.872,80-80
	S380.128,304,336,304z"/>
<g>
</g>
<g>
</g>
<g>
</g>
<g>
</g>
<g>
</g>
<g>
</g>
<g>
</g>
<g>
</g>
<g>
</g>
<g>
</g>
<g>
</g>
<g>
</g>
<g>
</g>
<g>
</g>
<g>
</g>
</svg>
