<?xml version="1.0" encoding="iso-8859-1"?>
<!-- Generator: Adobe Illustrator 19.0.0, SVG Export Plug-In . SVG Version: 6.00 Build 0)  -->
<svg version="1.1" id="Capa_1" xmlns="http://www.w3.org/2000/svg" xmlns:xlink="http://www.w3.org/1999/xlink" x="0px" y="0px"
	 viewBox="0 0 512 512" style="enable-background:new 0 0 512 512;" xml:space="preserve">
<path style="fill:#65AAFC;" d="M457.653,128.423c-0.36,0-0.714,0.019-1.072,0.027c-6.294-38.776-39.919-68.384-80.472-68.384
	c-26.594,0-50.213,12.733-65.098,32.434c-1.548,2.048-4.205,2.973-6.64,2.161c-7.733-2.579-16.098-3.774-24.811-3.258
	c-22.282,1.317-41.646,13.866-52.555,31.981c34.098,5.458,63.807,24.06,83.753,50.459c2.487,3.292,6.757,4.778,10.671,3.472
	c12.427-4.145,25.871-6.065,39.875-5.237c35.679,2.109,66.705,22.134,84.273,51.076h11.296c25.974,0,47.704-20.585,48.138-46.555
	C505.454,150.068,484.081,128.423,457.653,128.423z"/>
<g>
	<path style="fill:#2E84FF;" d="M467.214,222.032c-17.577-28.896-48.587-48.879-84.231-50.986
		c-7.607-0.45-15.047-0.083-22.251,1.006c0.191,0.01,0.381,0.016,0.572,0.027c35.678,2.109,66.705,22.134,84.273,51.076h11.296
		C460.415,223.154,463.873,222.758,467.214,222.032z"/>
	<path style="fill:#2E84FF;" d="M332.437,172.81c-23.754-31.437-61.347-51.825-103.718-52.111c-0.59,0.881-1.165,1.774-1.714,2.684
		c34.098,5.458,63.807,24.06,83.753,50.459c2.487,3.292,6.757,4.778,10.671,3.473c3.946-1.316,7.995-2.406,12.131-3.257
		C333.157,173.677,332.779,173.262,332.437,172.81z"/>
</g>
<path style="fill:#AAE8FF;" d="M216.832,336.079c0.444,0,0.881,0.024,1.322,0.033c7.767-47.844,49.255-84.377,99.293-84.377
	c32.814,0,61.956,15.711,80.323,40.019c1.909,2.527,5.188,3.668,8.193,2.666c9.541-3.183,19.863-4.656,30.614-4.021
	c8.29,0.49,16.246,2.259,23.696,5.076c1.338-7.532,1.888-15.337,1.545-23.329c-2.317-53.913-45.613-97.917-99.481-101.102
	c-14.004-0.828-27.448,1.091-39.875,5.237c-3.914,1.306-8.184-0.181-10.671-3.472c-23.922-31.661-61.879-52.124-104.619-52.124
	c-65.174,0-119.212,47.584-129.327,109.9c-0.574-0.013-1.145-0.043-1.722-0.043c-42.474,0-76.822,34.786-76.11,77.423
	c0.697,41.737,35.62,74.82,77.363,74.82h82.209C165.019,356.135,188.576,336.079,216.832,336.079z"/>
<g>
	<path style="fill:#6BD9FC;" d="M20.657,307.965c-0.712-42.636,33.636-77.423,76.111-77.423c0.006,0,0.012,0,0.017,0
		c0.982,0.001,1.821-0.683,1.992-1.651c10.228-58.162,58.792-103.108,118.68-107.794c-3.395-0.264-6.823-0.412-10.286-0.412
		c-65.173,0-119.211,47.584-129.327,109.9c-0.575-0.013-1.145-0.043-1.722-0.043c-42.215,0-76.403,34.363-76.12,76.643
		c0.279,41.587,35.544,75.6,77.132,75.6h20.887C56.277,382.786,21.354,349.703,20.657,307.965z"/>
	<path style="fill:#6BD9FC;" d="M435.545,289.368c-10.752-0.636-21.073,0.838-30.614,4.021c-3.005,1.002-6.283-0.139-8.193-2.666
		c-18.366-24.308-47.509-40.019-80.323-40.019c-50.038,0-91.526,36.533-99.293,84.377c-0.441-0.01-0.879-0.033-1.322-0.033
		c-32.61,0-58.981,26.708-58.435,59.442c0.535,32.044,27.348,57.444,59.397,57.444h213.883c46.122,0,83.279-38.38,81.278-84.944
		C510.144,325.596,476.903,291.813,435.545,289.368z"/>
</g>
<path style="fill:#65AAFC;" d="M179.044,394.49c-0.547-32.735,25.825-59.442,58.435-59.442c0.444,0,0.881,0.024,1.322,0.034
	c7.201-44.359,43.396-78.973,88.511-83.783c-3.58-0.386-7.214-0.594-10.897-0.594c-50.038,0-91.526,36.533-99.293,84.378
	c-0.441-0.01-0.879-0.034-1.322-0.034c-32.61,0-58.981,26.708-58.435,59.442c0.535,32.044,27.347,57.444,59.396,57.444h21.679
	C206.391,451.934,179.579,426.534,179.044,394.49z"/>
<g>
</g>
<g>
</g>
<g>
</g>
<g>
</g>
<g>
</g>
<g>
</g>
<g>
</g>
<g>
</g>
<g>
</g>
<g>
</g>
<g>
</g>
<g>
</g>
<g>
</g>
<g>
</g>
<g>
</g>
</svg>
