<svg id="Capa_1" enable-background="new 0 0 512 512" height="512" viewBox="0 0 512 512" width="512" xmlns="http://www.w3.org/2000/svg"><g><path d="m429.5 76v150c41.421 0 75-33.579 75-75s-33.579-75-75-75z" fill="#8adefd"/><path d="m474.5 151c0-41.421-20.147-75-45-75-6.838 0-13.455.933-19.75 2.647-13.458-41.299-52.272-71.147-98.062-71.147s-84.604 29.848-98.063 71.147l42.375 147.353h173.5c24.853 0 45-33.579 45-75z" fill="#bcf7fc"/><path d="m256 106v120c33.137 0 60-26.863 60-60s-26.863-60-60-60z" fill="#58c4fe"/><path d="m286 166c0-33.137-13.431-60-30-60-5.475 0-10.773.748-15.813 2.121-10.768-33.038-41.805-56.921-78.437-56.921s-67.669 23.883-78.437 56.921c-5.04-1.373-10.338-2.121-15.813-2.121-33.137 0-60 26.863-60 60s26.863 60 60 60h188.5c16.569 0 30-26.863 30-60z" fill="#8adefd"/><path d="m429.5 68.5c-5.01 0-10.012.458-14.943 1.367-16.618-42.063-57.129-69.867-102.869-69.867-33.394 0-64.659 14.871-85.779 40.799-2.616 3.211-2.134 7.936 1.078 10.552 3.211 2.617 7.937 2.133 10.551-1.078 18.259-22.417 45.286-35.273 74.15-35.273 41.529 0 78.072 26.512 90.932 65.971 1.238 3.802 5.243 5.962 9.102 4.913 5.808-1.582 11.789-2.383 17.779-2.383 37.22 0 67.5 30.28 67.5 67.5s-30.28 67.5-67.5 67.5h-131.119c15.312-12.385 25.118-31.318 25.118-52.5 0-37.22-30.28-67.5-67.5-67.5-3.694 0-7.384.305-11.03.909-13.795-33.588-46.43-55.71-83.22-55.71s-69.425 22.122-83.22 55.709c-3.646-.604-7.336-.909-11.03-.909-37.22 0-67.5 30.28-67.5 67.5s30.28 67.5 67.5 67.5h362c45.49 0 82.5-37.009 82.5-82.5s-37.01-82.5-82.5-82.5zm-173.5 150h-188.5c-28.948 0-52.5-23.551-52.5-52.5s23.552-52.5 52.5-52.5c4.663 0 9.319.625 13.84 1.857 3.864 1.054 7.864-1.11 9.104-4.912 10.087-30.95 38.744-51.745 71.306-51.745s61.219 20.795 71.307 51.745c1.239 3.802 5.241 5.966 9.104 4.912 4.521-1.232 9.177-1.857 13.84-1.857 28.948 0 52.5 23.551 52.5 52.5s-23.553 52.5-52.501 52.5z"/><path d="m256 248.5c-4.143 0-7.5 3.358-7.5 7.5v30c0 4.142 3.357 7.5 7.5 7.5s7.5-3.358 7.5-7.5v-30c0-4.142-3.357-7.5-7.5-7.5z"/><path d="m193.167 248.5c-4.143 0-7.5 3.358-7.5 7.5v30c0 4.142 3.357 7.5 7.5 7.5s7.5-3.358 7.5-7.5v-30c0-4.142-3.357-7.5-7.5-7.5z"/><path d="m318.833 248.5c-4.143 0-7.5 3.358-7.5 7.5v30c0 4.142 3.357 7.5 7.5 7.5s7.5-3.358 7.5-7.5v-30c0-4.142-3.357-7.5-7.5-7.5z"/><path d="m381.667 248.5c-4.143 0-7.5 3.358-7.5 7.5v30c0 4.142 3.357 7.5 7.5 7.5s7.5-3.358 7.5-7.5v-30c0-4.142-3.357-7.5-7.5-7.5z"/><path d="m444.5 248.5c-4.143 0-7.5 3.358-7.5 7.5v30c0 4.142 3.357 7.5 7.5 7.5s7.5-3.358 7.5-7.5v-30c0-4.142-3.357-7.5-7.5-7.5z"/><path d="m67.5 248.5c-4.143 0-7.5 3.358-7.5 7.5v30c0 4.142 3.357 7.5 7.5 7.5s7.5-3.358 7.5-7.5v-30c0-4.142-3.357-7.5-7.5-7.5z"/><path d="m130.333 248.5c-4.143 0-7.5 3.358-7.5 7.5v30c0 4.142 3.357 7.5 7.5 7.5s7.5-3.358 7.5-7.5v-30c0-4.142-3.357-7.5-7.5-7.5z"/><path d="m256 394.167c-4.143 0-7.5 3.358-7.5 7.5v30c0 4.142 3.357 7.5 7.5 7.5s7.5-3.358 7.5-7.5v-30c0-4.143-3.357-7.5-7.5-7.5z"/><path d="m193.167 394.167c-4.143 0-7.5 3.358-7.5 7.5v30c0 4.142 3.357 7.5 7.5 7.5s7.5-3.358 7.5-7.5v-30c0-4.143-3.357-7.5-7.5-7.5z"/><path d="m318.833 394.167c-4.143 0-7.5 3.358-7.5 7.5v30c0 4.142 3.357 7.5 7.5 7.5s7.5-3.358 7.5-7.5v-30c0-4.143-3.357-7.5-7.5-7.5z"/><path d="m381.667 394.167c-4.143 0-7.5 3.358-7.5 7.5v30c0 4.142 3.357 7.5 7.5 7.5s7.5-3.358 7.5-7.5v-30c0-4.143-3.357-7.5-7.5-7.5z"/><path d="m444.5 394.167c-4.143 0-7.5 3.358-7.5 7.5v30c0 4.142 3.357 7.5 7.5 7.5s7.5-3.358 7.5-7.5v-30c0-4.143-3.357-7.5-7.5-7.5z"/><path d="m67.5 394.167c-4.143 0-7.5 3.358-7.5 7.5v30c0 4.142 3.357 7.5 7.5 7.5s7.5-3.358 7.5-7.5v-30c0-4.143-3.357-7.5-7.5-7.5z"/><path d="m130.333 394.167c-4.143 0-7.5 3.358-7.5 7.5v30c0 4.142 3.357 7.5 7.5 7.5s7.5-3.358 7.5-7.5v-30c0-4.143-3.357-7.5-7.5-7.5z"/><path d="m287.417 321.333c-4.143 0-7.5 3.358-7.5 7.5v30c0 4.142 3.357 7.5 7.5 7.5s7.5-3.358 7.5-7.5v-30c0-4.142-3.357-7.5-7.5-7.5z"/><path d="m224.583 321.333c-4.143 0-7.5 3.358-7.5 7.5v30c0 4.142 3.357 7.5 7.5 7.5s7.5-3.358 7.5-7.5v-30c0-4.142-3.357-7.5-7.5-7.5z"/><path d="m350.25 321.333c-4.143 0-7.5 3.358-7.5 7.5v30c0 4.142 3.357 7.5 7.5 7.5s7.5-3.358 7.5-7.5v-30c0-4.142-3.357-7.5-7.5-7.5z"/><path d="m413.083 321.333c-4.143 0-7.5 3.358-7.5 7.5v30c0 4.142 3.357 7.5 7.5 7.5s7.5-3.358 7.5-7.5v-30c0-4.142-3.357-7.5-7.5-7.5z"/><path d="m98.917 321.333c-4.143 0-7.5 3.358-7.5 7.5v30c0 4.142 3.357 7.5 7.5 7.5s7.5-3.358 7.5-7.5v-30c0-4.142-3.357-7.5-7.5-7.5z"/><path d="m161.75 321.333c-4.143 0-7.5 3.358-7.5 7.5v30c0 4.142 3.357 7.5 7.5 7.5s7.5-3.358 7.5-7.5v-30c0-4.142-3.357-7.5-7.5-7.5z"/><path d="m287.417 467c-4.143 0-7.5 3.358-7.5 7.5v30c0 4.142 3.357 7.5 7.5 7.5s7.5-3.358 7.5-7.5v-30c0-4.142-3.357-7.5-7.5-7.5z"/><path d="m224.583 467c-4.143 0-7.5 3.358-7.5 7.5v30c0 4.142 3.357 7.5 7.5 7.5s7.5-3.358 7.5-7.5v-30c0-4.142-3.357-7.5-7.5-7.5z"/><path d="m350.25 467c-4.143 0-7.5 3.358-7.5 7.5v30c0 4.142 3.357 7.5 7.5 7.5s7.5-3.358 7.5-7.5v-30c0-4.142-3.357-7.5-7.5-7.5z"/><path d="m413.083 467c-4.143 0-7.5 3.358-7.5 7.5v30c0 4.142 3.357 7.5 7.5 7.5s7.5-3.358 7.5-7.5v-30c0-4.142-3.357-7.5-7.5-7.5z"/><path d="m98.917 467c-4.143 0-7.5 3.358-7.5 7.5v30c0 4.142 3.357 7.5 7.5 7.5s7.5-3.358 7.5-7.5v-30c0-4.142-3.357-7.5-7.5-7.5z"/><path d="m161.75 467c-4.143 0-7.5 3.358-7.5 7.5v30c0 4.142 3.357 7.5 7.5 7.5s7.5-3.358 7.5-7.5v-30c0-4.142-3.357-7.5-7.5-7.5z"/></g></svg>