<svg id="Capa_1" enable-background="new 0 0 512 512" height="512" viewBox="0 0 512 512" width="512" xmlns="http://www.w3.org/2000/svg"><g><path d="m298.667 136.533c-24.519 0-44.192-21.037-42.423-45.908 1.452-20.415 17.624-37.114 37.984-39.198 2.866-.293 5.679-.298 8.417-.043 3.737.349 7.184-2.012 8.408-5.561 9.195-26.663 34.493-45.823 64.28-45.823 22.349 0 42.17 10.788 54.563 27.435 3.16 4.244 8.089 6.734 13.38 6.7.108-.001.215-.001.323-.001 28.568 0 51.671 23.397 51.193 52.075-.469 28.073-23.958 50.325-52.035 50.325z" fill="#daeaff"/><path d="m443.6 34.133c-.108 0-.216 0-.323.001-5.291.035-10.221-2.456-13.38-6.7-12.393-16.646-32.215-27.434-54.564-27.434-4.036 0-7.985.363-11.827 1.038 17.418 3.068 32.548 12.766 42.696 26.397 3.16 4.244 8.089 6.734 13.38 6.7.108-.001.215-.001.323-.001 28.568 0 51.671 23.397 51.193 52.075-.469 28.073-23.958 50.325-52.035 50.325h23.694c28.077 0 51.567-22.252 52.035-50.325.479-28.678-22.624-52.076-51.192-52.076z" fill="#bed8fb"/><path d="m451.455 34.733c-2.561-.394-5.184-.599-7.855-.599-.108 0-.216 0-.323.001-5.291.035-10.221-2.456-13.38-6.7-.931-1.25-1.909-2.463-2.921-3.646-24.646 9.586-42.168 33.55-42.168 61.544 0 4.267 3.459 7.726 7.726 7.726s7.726-3.459 7.726-7.726c0-27.884 22.685-50.569 50.569-50.569.211 0 .419-.015.626-.031z" fill="#cbe0fc"/><g><g><path d="m443.733 170.667h-.023c-1.257 0-2.34-.846-2.692-2.053-8.268-28.396-34.486-49.147-65.552-49.147-11.616 0-22.547 2.91-32.12 8.03-3.751 2.007-8.409.958-10.794-2.565-9.203-13.595-24.765-22.532-42.419-22.532-4.129 0-8.142.491-11.986 1.416-4.165 1.002-8.466-1.236-9.811-5.304-12.364-37.394-47.597-64.378-89.136-64.378-51.841 0-93.867 42.026-93.867 93.867 0 1.177.03 2.347.079 3.512.049 1.153-.33 2.284-1.04 3.193l-.073.094c-.889 1.139-2.235 1.812-3.679 1.89-45.42 2.474-81.393 40.443-80.607 86.661.794 46.722 39.663 83.849 86.392 83.849h356.311c37.519 0 68.792-29.845 69.279-67.36.494-38.118-30.257-69.173-68.262-69.173z" fill="#ecf4ff"/><path d="m443.733 170.667h-.023c-1.257 0-2.34-.846-2.692-2.053-8.268-28.396-34.486-49.147-65.552-49.147-11.616 0-22.547 2.91-32.12 8.03-3.751 2.007-8.409.958-10.794-2.565-9.203-13.595-24.765-22.532-42.419-22.532-4.129 0-8.142.491-11.986 1.416-4.165 1.002-8.466-1.236-9.811-5.304-12.364-37.394-47.597-64.378-89.136-64.378-51.841 0-93.867 42.026-93.867 93.867 0 1.177.03 2.347.079 3.512.049 1.153-.33 2.284-1.04 3.193l-.073.094c-.889 1.139-2.235 1.812-3.679 1.89-45.42 2.474-81.393 40.443-80.607 86.661.794 46.722 39.663 83.849 86.392 83.849h356.311c37.519 0 68.792-29.845 69.279-67.36.494-38.118-30.257-69.173-68.262-69.173z" fill="#ecf4ff"/><path d="m443.733 170.667h-.023c-1.257 0-2.34-.846-2.692-2.053-8.268-28.396-34.486-49.147-65.552-49.147-4.039 0-7.993.36-11.839 1.034 25.73 4.507 46.504 23.414 53.696 48.113.352 1.207 1.434 2.053 2.692 2.053h.023c38.004 0 68.755 31.055 68.261 69.173-.487 37.515-31.76 67.36-69.279 67.36h23.694c37.519 0 68.792-29.845 69.279-67.36.496-38.118-30.255-69.173-68.26-69.173z" fill="#daeaff"/><path d="m162.94 221.867c0 4.268 3.459 7.726 7.726 7.726s7.726-3.459 7.726-7.726c0-52.837-40.991-96.279-92.842-100.197-.139 2.093-.217 4.202-.217 6.33 0 1.177.03 2.347.079 3.512.049 1.153-.33 2.284-1.04 3.193l-.073.094c-.889 1.14-2.235 1.812-3.679 1.89-.685.037-1.36.108-2.041.162 46.578.364 84.361 38.354 84.361 85.016z" fill="#ddeafb"/><g><path d="m277.296 103.973c-3.886.529-7.706-1.67-8.96-5.461-.776-2.346-1.642-4.651-2.594-6.911-28.536 10.08-49.044 37.31-49.044 69.254 0 4.268 3.459 7.726 7.726 7.726s7.726-3.459 7.726-7.726c0-27.559 19.333-50.913 45.144-56.839v-.043z" fill="#ddeafb"/></g><path d="m383.193 242.797c0-4.268-3.459-7.726-7.726-7.726s-7.726 3.459-7.726 7.726c0 26.412 12.897 49.858 32.715 64.403h42.26c.827 0 1.647-.032 2.468-.061-34.397-1.276-61.991-29.64-61.991-64.342z" fill="#ddeafb"/></g></g><path d="m228.949 273.067h66.412c5.824 0 9.937 5.706 8.095 11.232l-26.646 79.936c-1.842 5.526 2.271 11.232 8.095 11.232h16.869c6.38 0 10.503 6.745 7.595 12.423l-62.443 121.92c-2.342 4.164-8.713 1.92-7.927-2.793l15.255-87.416c.911-5.221-3.107-10-8.406-10h-39.3c-5.343 0-9.372-4.854-8.387-10.106l22.4-119.467c.757-4.037 4.281-6.961 8.388-6.961z" fill="#ffe07d"/><path d="m393.371 341.333h30.879c5.505 0 9.392 5.393 7.651 10.615l-12.428 37.284c-1.741 5.222 2.146 10.615 7.651 10.615 6.029 0 9.927 6.375 7.178 11.741l-33.304 65.026c-1.339 2.38-4.979 1.097-4.53-1.596l8.065-46.215c.861-4.934-2.936-9.451-7.945-9.451h-14.822c-5.05 0-8.857-4.588-7.927-9.551l11.604-61.889c.717-3.814 4.047-6.579 7.928-6.579z" fill="#fff0af"/><path d="m91.321 341.333h30.879c5.505 0 9.392 5.393 7.651 10.615l-12.428 37.284c-1.741 5.222 2.146 10.615 7.651 10.615 6.029 0 9.927 6.375 7.178 11.741l-33.304 65.026c-1.339 2.38-4.979 1.097-4.53-1.596l8.065-46.215c.861-4.934-2.936-9.451-7.945-9.451h-14.821c-5.05 0-8.857-4.588-7.927-9.551l11.604-61.889c.716-3.814 4.047-6.579 7.927-6.579z" fill="#fff0af"/><path d="m301.775 375.467h-16.87c-5.824 0-9.937-5.706-8.095-11.232l26.645-79.936c1.842-5.526-2.271-11.232-8.095-11.232h-23.694c5.824 0 9.937 5.706 8.095 11.232l-26.645 79.936c-1.842 5.526 2.271 11.232 8.095 11.232h16.869c6.38 0 10.503 6.745 7.595 12.423l-39.267 76.669-7.408 42.458c-.785 4.713 5.585 6.958 7.927 2.793l62.443-121.92c2.909-5.678-1.215-12.423-7.595-12.423z" fill="#ffd064"/></g></svg>