<?xml version="1.0" encoding="iso-8859-1"?>
<!-- Generator: Adobe Illustrator 19.0.0, SVG Export Plug-In . SVG Version: 6.00 Build 0)  -->
<svg version="1.1" id="Capa_1" xmlns="http://www.w3.org/2000/svg" xmlns:xlink="http://www.w3.org/1999/xlink" x="0px" y="0px"
	 viewBox="0 0 511.999 511.999" style="enable-background:new 0 0 511.999 511.999;" xml:space="preserve">
<path style="fill:#F7D88B;" d="M411.721,309.5l62.946-43.023c7.37-5.038,7.37-15.91,0-20.947l-62.946-43.023
	c-6.092-4.164-9.146-11.536-7.782-18.788l14.088-74.932c1.65-8.774-6.038-16.461-14.812-14.812l-74.932,14.088
	c-7.252,1.364-14.624-1.69-18.788-7.782l-43.023-62.946c-5.038-7.37-15.91-7.37-20.947,0l-43.023,62.946
	c-4.164,6.092-11.536,9.146-18.788,7.782l-74.932-14.088c-8.774-1.649-16.461,6.038-14.812,14.812l14.088,74.932
	c1.363,7.252-1.69,14.624-7.782,18.788L37.331,245.53c-7.37,5.038-7.37,15.91,0,20.947l62.946,43.023
	c6.092,4.164,9.146,11.536,7.782,18.788l-14.088,74.932c-1.649,8.774,6.038,16.461,14.812,14.812l74.932-14.088
	c7.252-1.364,14.624,1.69,18.788,7.782l43.023,62.946c5.038,7.37,15.91,7.37,20.947,0l43.023-62.946
	c4.164-6.092,11.536-9.146,18.788-7.782l74.932,14.088c8.774,1.65,16.461-6.038,14.812-14.812l-14.088-74.932
	C402.575,321.035,405.629,313.664,411.721,309.5z"/>
<circle style="fill:#F49E73;" cx="255.995" cy="256.006" r="136.328"/>
<g>
	<path style="fill:#EF9067;" d="M255.999,392.332c29.18,0,56.215-9.173,78.389-24.785
		c-148.205-22.476-161.671-194.146-89.906-247.383c-69.901,5.848-124.812,64.427-124.812,135.84
		C119.671,331.295,180.707,392.332,255.999,392.332z"/>
	<path style="fill:#EF9067;" d="M337.975,74.441c-2.086,0-4.207-0.401-6.254-1.249c-8.346-3.458-12.31-13.027-8.853-21.374
		l14.17-34.208c3.457-8.348,13.029-12.31,21.374-8.853c8.346,3.458,12.31,13.027,8.853,21.374l-14.17,34.207
		C350.486,70.638,344.394,74.441,337.975,74.441z"/>
	<path style="fill:#EF9067;" d="M488.126,368.519c-2.086,0-4.207-0.401-6.254-1.249l-34.208-14.17
		c-8.346-3.458-12.31-13.027-8.853-21.374c3.457-8.347,13.028-12.31,21.374-8.853l34.208,14.17
		c8.346,3.458,12.31,13.027,8.853,21.374C500.637,364.716,494.545,368.519,488.126,368.519z"/>
	<path style="fill:#EF9067;" d="M58.068,190.384c-2.086,0-4.207-0.402-6.254-1.249l-34.208-14.17
		c-8.347-3.458-12.311-13.027-8.853-21.374c3.457-8.347,13.028-12.31,21.374-8.853l34.208,14.17
		c8.347,3.458,12.31,13.027,8.853,21.374C70.578,186.581,64.486,190.384,58.068,190.384z"/>
	<path style="fill:#EF9067;" d="M159.84,504.5c-2.086,0-4.207-0.401-6.254-1.249c-8.346-3.458-12.31-13.027-8.853-21.374
		l14.17-34.208c3.457-8.348,13.028-12.31,21.374-8.853c8.346,3.458,12.31,13.027,8.853,21.374l-14.17,34.207
		C172.351,500.696,166.259,504.5,159.84,504.5z"/>
	<path style="fill:#EF9067;" d="M174.023,74.441c-6.42,0-12.51-3.803-15.12-10.103l-14.17-34.207
		c-3.457-8.347,0.507-17.916,8.853-21.374c8.346-3.455,17.917,0.506,21.374,8.853l14.17,34.208
		c3.457,8.346-0.507,17.916-8.853,21.374C178.23,74.039,176.109,74.441,174.023,74.441z"/>
	<path style="fill:#EF9067;" d="M23.872,368.519c-6.42,0-12.511-3.803-15.12-10.103c-3.457-8.347,0.507-17.916,8.853-21.374
		l34.208-14.17c8.345-3.456,17.917,0.506,21.374,8.853c3.457,8.347-0.507,17.916-8.853,21.374l-34.208,14.17
		C28.079,368.117,25.958,368.519,23.872,368.519z"/>
	<path style="fill:#EF9067;" d="M453.93,190.384c-6.42,0-12.511-3.803-15.12-10.103c-3.457-8.347,0.507-17.916,8.853-21.374
		l34.208-14.17c8.346-3.455,17.917,0.506,21.374,8.853c3.457,8.347-0.507,17.916-8.853,21.374l-34.208,14.17
		C458.137,189.982,456.017,190.384,453.93,190.384z"/>
	<path style="fill:#EF9067;" d="M352.158,504.5c-6.42,0-12.511-3.803-15.12-10.103l-14.17-34.207
		c-3.457-8.346,0.507-17.916,8.853-21.374c8.345-3.455,17.915,0.507,21.374,8.853l14.17,34.208
		c3.457,8.346-0.507,17.916-8.853,21.374C356.365,504.098,354.244,504.5,352.158,504.5z"/>
</g>
<g>
	<ellipse style="fill:#F27281;" cx="218.486" cy="227.306" rx="22.792" ry="18.15"/>
	<ellipse style="fill:#F27281;" cx="342.024" cy="227.306" rx="22.792" ry="18.15"/>
</g>
<path d="M328.851,80.12c2.917,1.208,5.986,1.82,9.124,1.82c9.688,0,18.342-5.783,22.049-14.732l14.17-34.207
	c5.034-12.154-0.758-26.138-12.912-31.173c-5.888-2.438-12.371-2.438-18.259,0c-5.889,2.439-10.476,7.024-12.913,12.912
	l-14.17,34.208C310.907,61.102,316.699,75.085,328.851,80.12z M329.797,54.689l14.171-34.208c0.904-2.186,2.607-3.888,4.794-4.793
	c1.094-0.453,2.242-0.679,3.392-0.679c1.147,0,2.295,0.226,3.387,0.678c4.514,1.87,6.665,7.063,4.796,11.575l-14.17,34.208
	c-1.378,3.324-4.593,5.473-8.191,5.473c-1.158,0-2.297-0.228-3.384-0.678C330.08,64.393,327.928,59.201,329.797,54.689z
	 M453.93,197.883c3.139,0,6.208-0.612,9.124-1.82l34.208-14.17c12.154-5.035,17.946-19.019,12.913-31.172
	c-5.034-12.153-19.018-17.948-31.174-12.913l-34.208,14.17c-12.153,5.035-17.946,19.019-12.913,31.172
	C435.588,192.101,444.244,197.883,453.93,197.883z M450.534,165.837l34.207-14.169c1.105-0.458,2.251-0.674,3.379-0.674
	c3.479,0,6.786,2.061,8.197,5.468c1.869,4.513-0.282,9.705-4.795,11.574l-34.207,14.17c-1.087,0.45-2.225,0.678-3.385,0.678
	c-3.599,0-6.814-2.148-8.19-5.472C443.872,172.898,446.022,167.706,450.534,165.837z M14.735,181.894l34.209,14.17
	c2.915,1.207,5.984,1.82,9.123,1.82c9.687,0,18.342-5.783,22.05-14.733c5.033-12.154-0.76-26.138-12.913-31.172l-34.208-14.17
	c-5.888-2.438-12.372-2.439-18.26,0c-5.889,2.439-10.476,7.025-12.913,12.913C-3.21,162.875,2.581,176.859,14.735,181.894z
	 M15.681,156.461c0.905-2.186,2.607-3.888,4.794-4.794c1.094-0.453,2.242-0.679,3.391-0.679c1.148,0,2.297,0.227,3.39,0.679
	l34.208,14.17c4.513,1.869,6.663,7.062,4.795,11.574c-1.378,3.325-4.593,5.473-8.191,5.473c-1.159,0-2.298-0.228-3.384-0.678
	l-34.208-14.17C15.963,166.166,13.811,160.974,15.681,156.461z M151.974,67.209c3.708,8.949,12.362,14.731,22.049,14.731
	c3.138,0,6.207-0.612,9.124-1.821c12.153-5.035,17.945-19.019,12.911-31.172l-14.17-34.208
	c-5.033-12.15-19.016-17.946-31.173-12.911c-12.153,5.035-17.945,19.019-12.911,31.173L151.974,67.209z M156.455,15.686
	c1.105-0.458,2.251-0.674,3.379-0.674c3.479,0,6.786,2.061,8.197,5.468l14.17,34.208c1.869,4.513-0.282,9.705-4.794,11.574
	c-1.087,0.45-2.226,0.679-3.384,0.679c-3.599,0-6.814-2.148-8.191-5.473l-14.17-34.208
	C149.793,22.748,151.944,17.555,156.455,15.686z M411.31,326.902c-0.814-4.327,1.009-8.727,4.643-11.211l62.946-43.022
	c5.507-3.765,8.795-9.995,8.795-16.665c0-6.671-3.288-12.901-8.795-16.666l-62.947-43.023c-3.634-2.483-5.456-6.883-4.643-11.21
	l14.088-74.932c1.232-6.556-0.848-13.286-5.565-18.003c-4.717-4.717-11.448-6.797-18.004-5.566l-74.932,14.088
	c-4.329,0.814-8.727-1.01-11.211-4.644l-43.02-62.945c-3.765-5.508-9.994-8.796-16.666-8.796c-6.672,0-12.901,3.288-16.666,8.796
	L196.312,96.05c-2.484,3.633-6.883,5.454-11.211,4.644L110.17,86.606c-6.558-1.231-13.287,0.848-18.004,5.566
	c-4.718,4.717-6.798,11.447-5.565,18.003l14.088,74.932c0.813,4.326-1.009,8.727-4.644,11.21L33.099,239.34
	c-5.507,3.765-8.795,9.995-8.795,16.666c0,6.671,3.288,12.901,8.795,16.665l62.946,43.022c3.634,2.484,5.457,6.884,4.644,11.21
	l-5.798,30.842c-0.765,4.071,1.915,7.991,5.985,8.757c4.071,0.762,7.991-1.914,8.757-5.985l5.798-30.842
	c1.912-10.174-2.374-20.523-10.921-26.366l-62.947-43.023c-2.04-1.394-2.26-3.458-2.26-4.282c0-0.823,0.22-2.888,2.26-4.282
	l62.946-43.023c8.547-5.842,12.833-16.19,10.921-26.366l-14.088-74.932c-0.457-2.428,0.848-4.044,1.43-4.625
	c0.583-0.582,2.202-1.884,4.626-1.43l74.932,14.087c10.171,1.917,20.523-2.374,26.366-10.921l43.022-62.946
	c1.394-2.04,3.458-2.26,4.281-2.26c0.823,0,2.888,0.22,4.282,2.26l43.022,62.946c5.843,8.547,16.192,12.835,26.365,10.921
	l74.932-14.087c2.426-0.455,4.044,0.848,4.626,1.43c0.582,0.582,1.887,2.198,1.43,4.625l-14.088,74.932
	c-1.912,10.176,2.374,20.525,10.921,26.366l62.946,43.023c2.04,1.394,2.26,3.458,2.26,4.282c0,0.823-0.22,2.888-2.26,4.282
	l-62.945,43.022c-8.548,5.841-12.834,16.19-10.922,26.366l14.088,74.932c0.457,2.428-0.848,4.043-1.43,4.625
	c-0.582,0.582-2.2,1.886-4.626,1.43l-74.932-14.087c-10.169-1.916-20.523,2.374-26.366,10.921l-43.022,62.946
	c-1.394,2.04-3.458,2.26-4.281,2.26c-0.823,0-2.888-0.22-4.282-2.26l-43.022-62.946c-5.842-8.547-16.189-12.834-26.365-10.921
	l-74.932,14.087c-2.424,0.457-4.043-0.848-4.626-1.43c-0.582-0.582-1.887-2.198-1.43-4.625l1.722-9.156
	c0.766-4.071-1.914-7.992-5.985-8.757c-4.065-0.766-7.991,1.914-8.757,5.984l-1.722,9.156c-1.232,6.556,0.848,13.286,5.565,18.003
	c4.717,4.717,11.451,6.795,18.004,5.566l74.932-14.088c4.33-0.813,8.727,1.01,11.211,4.643l43.021,62.946
	c3.765,5.507,9.995,8.796,16.666,8.796c6.671,0,12.901-3.289,16.666-8.796l43.021-62.946c2.484-3.633,6.88-5.457,11.211-4.643
	l74.932,14.088c6.56,1.229,13.286-0.848,18.004-5.566c4.718-4.717,6.798-11.447,5.565-18.003L411.31,326.902z M287.384,204.626
	c-1.801,2.066-4.399,3.251-7.129,3.251c-2.73,0-5.328-1.185-7.129-3.251c-2.723-3.124-7.46-3.448-10.582-0.727
	c-3.122,2.721-3.448,7.459-0.727,10.582c4.65,5.336,11.37,8.396,18.438,8.396c7.067,0,13.787-3.061,18.438-8.396
	c2.722-3.123,2.396-7.86-0.727-10.582C294.841,201.178,290.107,201.503,287.384,204.626z M321.242,201.148v8.049
	c0,4.142,3.357,7.5,7.5,7.5s7.5-3.358,7.5-7.5v-8.049c0-4.142-3.357-7.5-7.5-7.5C324.599,193.648,321.242,197.006,321.242,201.148z
	 M224.269,201.148v8.049c0,4.142,3.357,7.5,7.5,7.5s7.5-3.358,7.5-7.5v-8.049c0-4.142-3.357-7.5-7.5-7.5
	C227.627,193.648,224.269,197.006,224.269,201.148z M497.263,330.113l-34.208-14.17c-5.888-2.438-12.372-2.438-18.26,0.001
	c-5.889,2.439-10.475,7.024-12.913,12.912c-5.034,12.154,0.758,26.138,12.912,31.173l34.209,14.17
	c2.915,1.208,5.984,1.82,9.123,1.82c9.688,0,18.343-5.783,22.049-14.732C515.209,349.132,509.418,335.148,497.263,330.113z
	 M496.318,355.546c-1.377,3.325-4.593,5.473-8.191,5.473c-1.159,0-2.298-0.228-3.384-0.678l-34.208-14.17
	c-4.513-1.869-6.664-7.062-4.794-11.575c0.904-2.185,2.607-3.888,4.794-4.793c1.094-0.453,2.242-0.679,3.391-0.679
	c1.148,0,2.297,0.226,3.39,0.679l34.208,14.17C496.036,345.841,498.187,351.033,496.318,355.546z M67.203,315.945
	c-5.888-2.438-12.372-2.438-18.26,0l-34.208,14.17C2.581,335.148-3.21,349.132,1.823,361.286
	c3.706,8.95,12.361,14.733,22.049,14.733c3.139,0,6.208-0.612,9.124-1.82l34.208-14.17c12.154-5.035,17.946-19.019,12.913-31.171
	C77.678,322.968,73.091,318.384,67.203,315.945z M61.465,346.171l-34.207,14.17c-1.087,0.45-2.226,0.678-3.385,0.678
	c-3.599,0-6.814-2.148-8.191-5.473c-1.869-4.513,0.282-9.705,4.795-11.574l34.208-14.17c1.093-0.453,2.241-0.679,3.39-0.679
	c1.148,0,2.298,0.227,3.391,0.68c2.187,0.905,3.889,2.608,4.795,4.794C68.128,339.109,65.976,344.301,61.465,346.171z
	 M377.659,213.514c1.366,3.911,5.643,5.974,9.554,4.608c3.91-1.366,5.974-5.643,4.608-9.553
	c-20.136-57.656-74.718-96.393-135.821-96.393c-79.308,0-143.829,64.521-143.829,143.829s64.522,143.829,143.829,143.829
	s143.829-64.521,143.829-143.829c0-3.684-0.142-7.416-0.422-11.09c-0.315-4.13-3.899-7.221-8.049-6.909
	c-4.13,0.315-7.223,3.918-6.908,8.048c0.252,3.297,0.379,6.645,0.379,9.95c0,71.037-57.792,128.829-128.829,128.829
	S127.171,327.04,127.171,256.004s57.792-128.829,128.829-128.829C310.733,127.176,359.625,161.872,377.659,213.514z
	 M183.146,431.886c-12.153-5.034-26.138,0.759-31.172,12.913l-14.17,34.207c-5.034,12.154,0.758,26.138,12.911,31.172
	c2.916,1.208,5.986,1.821,9.125,1.821c9.688,0,18.343-5.783,22.048-14.732l14.17-34.207
	C201.091,450.904,195.299,436.922,183.146,431.886z M182.201,457.319l-14.171,34.208c-1.376,3.324-4.591,5.472-8.189,5.472
	c-1.158,0-2.297-0.228-3.384-0.679c-4.513-1.869-6.664-7.062-4.795-11.574l14.171-34.208c1.411-3.408,4.718-5.468,8.195-5.468
	c1.128,0,2.273,0.216,3.379,0.674C181.919,447.614,184.07,452.806,182.201,457.319z M360.024,444.799
	c-5.034-12.152-19.021-17.945-31.173-12.912c-12.153,5.035-17.945,19.019-12.911,31.173l14.169,34.206
	c3.706,8.95,12.36,14.733,22.049,14.733c3.139,0,6.209-0.613,9.124-1.82c12.154-5.035,17.946-19.019,12.912-31.173L360.024,444.799z
	 M355.541,496.321c-1.086,0.45-2.225,0.678-3.383,0.678c-3.599,0-6.814-2.148-8.191-5.473l-14.17-34.207
	c-1.869-4.513,0.282-9.706,4.792-11.574c1.105-0.457,2.251-0.674,3.379-0.674c3.478,0,6.786,2.061,8.198,5.468l14.17,34.207
	C362.206,489.259,360.054,494.452,355.541,496.321z"/>
<g>
</g>
<g>
</g>
<g>
</g>
<g>
</g>
<g>
</g>
<g>
</g>
<g>
</g>
<g>
</g>
<g>
</g>
<g>
</g>
<g>
</g>
<g>
</g>
<g>
</g>
<g>
</g>
<g>
</g>
</svg>
