<svg id="Capa_1" enable-background="new 0 0 512 512" height="512" viewBox="0 0 512 512" width="512" xmlns="http://www.w3.org/2000/svg"><g><g><circle cx="327.978" cy="240.557" fill="#feb137" r="76.584"/><g fill="#ffd15b"><path d="m318.623 133.627c-7.207.631-13.561-4.701-14.191-11.908l-3.994-45.651c-.631-7.207 4.701-13.561 11.908-14.191 7.207-.631 13.561 4.701 14.191 11.908l3.994 45.651c.631 7.207-4.701 13.56-11.908 14.191z"/><path d="m318.623 133.627c-7.207.631-13.561-4.701-14.191-11.908l-3.994-45.651c-.631-7.207 4.701-13.561 11.908-14.191 7.207-.631 13.561 4.701 14.191 11.908l3.994 45.651c.631 7.207-4.701 13.56-11.908 14.191z"/><path d="m432.699 229.348c-.631-7.207 4.701-13.561 11.908-14.191l45.651-3.994c7.207-.631 13.561 4.701 14.191 11.908.631 7.207-4.701 13.561-11.908 14.191l-45.651 3.994c-7.207.63-13.561-4.701-14.191-11.908z"/><path d="m408.464 306.21c4.65-5.542 12.913-6.265 18.455-1.615l35.104 29.456c5.542 4.65 6.265 12.913 1.615 18.455-4.65 5.542-12.913 6.265-18.455 1.615l-35.104-29.456c-5.542-4.65-6.265-12.913-1.615-18.455z"/><path d="m408.464 306.21c4.65-5.542 12.913-6.265 18.455-1.615l35.104 29.456c5.542 4.65 6.265 12.913 1.615 18.455-4.65 5.542-12.913 6.265-18.455 1.615l-35.104-29.456c-5.542-4.65-6.265-12.913-1.615-18.455z"/><path d="m191.963 124.544c4.65-5.542 12.913-6.265 18.455-1.615l35.104 29.456c5.542 4.65 6.265 12.913 1.615 18.455-4.65 5.542-12.913 6.265-18.455 1.615l-35.104-29.456c-5.543-4.651-6.266-12.913-1.615-18.455z"/><path d="m441.782 102.687c5.542 4.65 6.265 12.913 1.615 18.455l-29.456 35.104c-4.65 5.542-12.913 6.265-18.455 1.615-5.542-4.65-6.265-12.913-1.615-18.455l29.456-35.104c4.65-5.542 12.913-6.265 18.455-1.615z"/></g><path d="m356.904 333.056c3.336-46.713-39.674-82.721-84.824-71.761-9.153-41.242-45.942-72.084-89.939-72.084-52.143 0-94.189 43.329-92.049 95.943-45.061-.158-82.592 36.494-82.592 82.506 0 44.496 35.224 80.758 79.308 82.44v.068h265.052c32.403 0 58.671-26.268 58.671-58.671-.001-30.702-23.588-55.88-53.627-58.441z" fill="#d8ecfe"/><path d="m356.904 333.056c3.336-46.713-39.674-82.721-84.824-71.761-9.153-41.242-45.942-72.084-89.939-72.084-11.25 0-22.029 2.021-31.997 5.714 43.098.929 78.908 31.432 87.921 72.04 45.15-10.96 88.16 25.048 84.824 71.761 30.039 2.56 53.626 27.738 53.626 58.44 0 23.39-13.69 43.577-33.492 53.001h8.837c32.403 0 58.67-26.268 58.67-58.671 0-30.701-23.587-55.879-53.626-58.44z" fill="#c4e2ff"/></g><g><path d="m296.96 122.233c1.014 11.548 11.065 19.729 22.32 18.723 11.531-1.011 19.722-11.04 18.723-22.315l-3.994-45.654c-1.013-11.528-11.035-19.718-22.317-18.723-11.558 1.012-19.72 11.06-18.726 22.316zm16.542-53.049c2.868 0 5.313 2.246 5.563 5.111l3.995 45.656c.015.167.021.333.021.497 0 2.869-2.246 5.313-5.112 5.564-.002 0-.003 0-.004.001-3.087.261-5.797-2.062-6.063-5.091l-3.995-45.654c-.015-.168-.021-.334-.021-.499.001-3.009 2.482-5.585 5.616-5.585z"/><path d="m489.604 203.549-45.654 3.993c-11.55 1.014-19.728 11.069-18.722 22.32 1.012 11.532 11.037 19.719 22.314 18.723l45.652-3.994c10.721-.938 18.805-9.754 18.805-20.507.001-12.171-10.293-21.604-22.395-20.535zm2.284 26.099-45.655 3.995c-3.088.266-5.797-2.06-6.062-5.093 0 0 0-.001-.001-.002-.272-3.118 2.089-5.8 5.09-6.063l45.655-3.994c.168-.015.334-.021.499-.021 2.868 0 5.313 2.246 5.564 5.115.015.168.021.334.021.499.001 2.869-2.245 5.313-5.111 5.564z"/><path d="m466.845 328.164-35.105-29.457c-8.692-7.291-21.692-6.197-29.021 2.54-.001 0-.001 0-.001 0-7.294 8.697-6.196 21.691 2.54 29.021l35.105 29.457c8.692 7.291 21.691 6.198 29.021-2.54 7.294-8.697 6.197-21.691-2.539-29.021zm-8.951 19.38c-1.968 2.344-5.495 2.697-7.889.689l-35.105-29.456c-2.336-1.961-2.708-5.483-.689-7.89 1.965-2.344 5.494-2.697 7.888-.689l35.105 29.456c2.34 1.966 2.703 5.489.69 7.89z"/><path d="m188.756 148.602 35.105 29.457c8.693 7.292 21.693 6.195 29.019-2.538 7.296-8.693 6.2-21.691-2.538-29.022l-35.105-29.457c-8.691-7.291-21.691-6.197-29.021 2.54-7.294 8.691-6.197 21.689 2.54 29.02zm8.951-19.378c0-.001.001-.001.001-.002 1.966-2.344 5.494-2.697 7.889-.689l35.104 29.456c2.345 1.969 2.701 5.495.69 7.89-1.966 2.344-5.494 2.697-7.889.689l-35.104-29.456c-2.333-1.958-2.711-5.483-.691-7.888z"/><path d="m390.665 163.465c8.691 7.291 21.691 6.197 29.021-2.539l29.457-35.105c7.291-8.692 6.197-21.692-2.54-29.021 0-.001 0-.001 0-.001-8.691-7.291-21.691-6.197-29.021 2.539l-29.457 35.105c-7.291 8.692-6.198 21.691 2.54 29.022zm8.951-19.38 29.456-35.105c1.967-2.344 5.494-2.697 7.89-.689 2.344 1.968 2.697 5.495.689 7.889l-29.456 35.105c-1.967 2.344-5.494 2.697-7.89.689-2.343-1.968-2.696-5.495-.689-7.889z"/><path d="m240.964 442.809c-169.066 0-151.355.029-153.87-.062-40.427-1.543-72.094-34.462-72.094-74.945 0-17.858 6.378-35.152 17.959-48.697 13.952-16.317 34.398-26.31 57.133-26.31 2.042 0 3.996-.832 5.41-2.306 2.646-2.754 2.012-5.456 2.012-9.036 0-7.625 1.014-15.18 3.013-22.456 1.098-3.994-1.251-8.122-5.245-9.22-3.997-1.098-8.122 1.251-9.219 5.245-2.06 7.498-3.231 15.241-3.493 23.065-23.52 1.907-45.447 13.065-61.011 31.269-.006.007-.012.014-.018.021-13.892 16.257-21.541 37.004-21.541 58.425 0 23.434 8.958 45.623 25.225 62.482 15.979 16.56 37.337 26.267 60.245 27.405 1 .18-8.493.119 155.494.119 4.142 0 7.5-3.357 7.5-7.5s-3.358-7.499-7.5-7.499z"/><path d="m364.573 326.706c-.063-3.454-.376-6.846-.886-10.174 32.17-15.106 52.543-49.95 47.656-87.093-5.981-45.432-47.897-78.515-94.34-72.39-31.217 4.11-55.975 24.817-66.891 51.608-1.681-1.572-3.413-3.094-5.206-4.55-17.669-14.352-39.959-22.255-62.764-22.255-31.434 0-60.376 14.377-79.406 39.444-2.504 3.3-1.86 8.004 1.439 10.509 3.298 2.504 8.003 1.86 10.508-1.438 16.168-21.299 40.756-33.515 67.458-33.515 39.463 0 74.153 27.983 82.617 66.209.905 4.067 4.983 6.656 9.092 5.663 40.009-9.719 78.559 22.306 75.573 63.939-.291 4.092 2.758 7.658 6.845 8.007 26.222 2.235 46.763 24.623 46.763 50.968.001 28.202-22.842 51.17-51.171 51.17h-75.896c-4.143 0-7.5 3.357-7.5 7.5s3.357 7.5 7.5 7.5h75.896c36.541 0 66.172-29.623 66.171-66.171 0-16.681-6.229-32.613-17.538-44.86-9.622-10.418-22.181-17.396-35.92-20.071zm-87.014-73.959c-3.284-10.897-8.701-21.72-15.994-31.361 7.527-26.171 30.254-45.891 57.399-49.465 38.259-5.038 72.604 22.227 77.509 59.476 3.882 29.495-11.618 57.271-36.606 70.297-12.332-33.127-46.268-54.155-82.308-48.947z"/></g></g></svg>