<svg height="512" viewBox="0 0 128 128" width="512" xmlns="http://www.w3.org/2000/svg"><g><g><g fill="#09607d"><path d="m53.227 105.6a1.751 1.751 0 0 1 -1.238-2.988l12.4-12.4a1.75 1.75 0 0 1 2.474 2.475l-12.4 12.4a1.743 1.743 0 0 1 -1.236.513z"/><path d="m69.022 105.6a1.751 1.751 0 0 1 -1.237-2.988l11.139-11.141a1.749 1.749 0 0 1 2.476 2.474l-11.14 11.139a1.744 1.744 0 0 1 -1.238.516z"/><path d="m84.819 105.6a1.751 1.751 0 0 1 -1.237-2.988l11.889-11.891a1.749 1.749 0 0 1 2.474 2.479l-11.888 11.884a1.744 1.744 0 0 1 -1.238.516z"/><path d="m100.615 105.6a1.751 1.751 0 0 1 -1.237-2.988l11.515-11.512a1.749 1.749 0 0 1 2.474 2.474l-11.515 11.514a1.741 1.741 0 0 1 -1.237.512z"/></g><g fill="#09607d"><path d="m53.227 118.606a1.75 1.75 0 0 1 -1.238-2.987l9-9a1.75 1.75 0 0 1 2.474 2.475l-9 9a1.748 1.748 0 0 1 -1.236.512z"/><path d="m69.022 118.606a1.75 1.75 0 0 1 -1.237-2.987l9-9a1.75 1.75 0 1 1 2.475 2.481l-9 9a1.747 1.747 0 0 1 -1.238.506z"/><path d="m84.819 118.606a1.75 1.75 0 0 1 -1.237-2.987l9-9a1.75 1.75 0 0 1 2.475 2.475l-9 9a1.747 1.747 0 0 1 -1.238.512z"/><path d="m100.615 118.606a1.75 1.75 0 0 1 -1.237-2.987l9-9a1.75 1.75 0 1 1 2.474 2.475l-9 9a1.744 1.744 0 0 1 -1.237.512z"/></g><path d="m53.913 37.86a19.109 19.109 0 0 1 18.7 15.2 21.1 21.1 0 0 1 15.706 12.92 16.411 16.411 0 0 1 15.808-3.23v-.17a8.9 8.9 0 0 1 2.606-6.293l8.211-8.211-8.211-8.211a8.9 8.9 0 0 1 -2.606-6.293v-11.612h-11.612a8.9 8.9 0 0 1 -6.293-2.606l-8.211-8.211-8.211 8.211a8.9 8.9 0 0 1 -6.293 2.606h-11.607v11.612a8.89 8.89 0 0 1 -1.283 4.582 19.185 19.185 0 0 1 3.296-.294z" fill="#ffb655"/><path d="m47.31 73.41c.12 0 .236.014.355.018a21.073 21.073 0 0 1 40.654-7.443 16.439 16.439 0 0 1 26.451 7.464c.253-.018.505-.039.762-.039a10.719 10.719 0 0 1 0 21.437h-68.222a10.719 10.719 0 0 1 0-21.437z" fill="#beebfa"/><path d="m11.471 56.648c.233 0 .461.019.69.035a14.91 14.91 0 0 1 23.989-6.769 19.108 19.108 0 0 1 36.463 3.151 21.013 21.013 0 0 0 -24.948 20.363c-.119 0-.235-.018-.355-.018a10.664 10.664 0 0 0 -7.073 2.68h-28.766a9.721 9.721 0 0 1 0-19.442z" fill="#9ee2f8"/><path d="m72.613 53.065a21.1 21.1 0 0 1 15.706 12.92 16.476 16.476 0 0 1 4.546-2.785 21.193 21.193 0 1 0 -33.789-24.627 19.135 19.135 0 0 1 13.537 14.492z" fill="#ffe477"/><path d="m91.215 49.826a1.749 1.749 0 0 1 -1.75-1.75 11.466 11.466 0 0 0 -11.453-11.453 1.75 1.75 0 0 1 0-3.5 14.97 14.97 0 0 1 14.953 14.953 1.749 1.749 0 0 1 -1.75 1.75z" fill="#ffb655"/></g><g><path d="m115.993 71.669a18.114 18.114 0 0 0 -16.9-11.458c-.553 0-1.1.034-1.65.084a22.75 22.75 0 0 0 3.526-12.219 22.936 22.936 0 0 0 -42.789-11.5 20.618 20.618 0 0 0 -4.263-.463c-.2 0-.4.015-.6.021a10.516 10.516 0 0 0 .332-2.559v-9.864h9.862a10.583 10.583 0 0 0 7.531-3.12l6.974-6.973 6.972 6.973a10.582 10.582 0 0 0 7.531 3.12h9.862v9.861a10.577 10.577 0 0 0 3.119 7.528l6.974 6.973-3.38 3.38a1.75 1.75 0 0 0 2.474 2.475l4.618-4.617a1.751 1.751 0 0 0 0-2.475l-8.211-8.211a7.1 7.1 0 0 1 -2.094-5.056v-11.608a1.749 1.749 0 0 0 -1.75-1.75h-11.616a7.1 7.1 0 0 1 -5.056-2.095l-8.21-8.21a1.751 1.751 0 0 0 -2.475 0l-8.211 8.209a7.1 7.1 0 0 1 -5.056 2.1h-11.607a1.75 1.75 0 0 0 -1.75 1.75v11.607a7.108 7.108 0 0 1 -.69 3.017 20.714 20.714 0 0 0 -13.99 10.625 16.662 16.662 0 0 0 -24.53 7.7 11.471 11.471 0 0 0 .531 22.93 1.75 1.75 0 1 0 0-3.5 7.971 7.971 0 0 1 0-15.942c.167 0 .332.014.564.031a1.763 1.763 0 0 0 1.8-1.219 13.16 13.16 0 0 1 21.165-5.979 1.75 1.75 0 0 0 2.773-.674 17.346 17.346 0 0 1 32.414.433c-.482-.031-.968-.051-1.457-.051a22.936 22.936 0 0 0 -22.73 20.785 12.392 12.392 0 0 0 -6.4 2.612h-7.48a1.75 1.75 0 0 0 0 3.5h4.434a12.448 12.448 0 0 0 10.756 18.76h10.69l-6.013 6.012a1.75 1.75 0 1 0 2.475 2.475l8.489-8.487h10.849l-6.013 6.012a1.75 1.75 0 1 0 2.475 2.475l8.485-8.487h10.847l-6.012 6.012a1.75 1.75 0 1 0 2.475 2.475l8.486-8.487h10.848l-6.013 6.012a1.75 1.75 0 1 0 2.474 2.475l8.488-8.487h5.191a12.468 12.468 0 0 0 .462-24.928zm-54.357-34.043a19.433 19.433 0 1 1 30.2 24.109 18.041 18.041 0 0 0 -2.836 1.533 22.662 22.662 0 0 0 -14.965-11.7 20.931 20.931 0 0 0 -12.399-13.942zm53.9 55.471h-68.226a8.969 8.969 0 0 1 0-17.937l.3.018a1.75 1.75 0 0 0 1.807-1.721 19.281 19.281 0 0 1 22.819-18.686l.086.016a19.21 19.21 0 0 1 14.37 11.844 1.75 1.75 0 0 0 2.773.676 14.69 14.69 0 0 1 23.635 6.669 1.808 1.808 0 0 0 1.863 1.214c.187-.014.375-.03.566-.03a8.969 8.969 0 1 1 0 17.937z"/><path d="m23.124 74.34h-2.654a1.75 1.75 0 0 0 0 3.5h2.654a1.75 1.75 0 0 0 0-3.5z"/><path d="m89.465 48.076a1.75 1.75 0 0 0 3.5 0 14.97 14.97 0 0 0 -14.953-14.953 1.75 1.75 0 0 0 0 3.5 11.466 11.466 0 0 1 11.453 11.453z"/><path d="m60.989 106.62-9 9a1.75 1.75 0 0 0 2.475 2.475l9-9a1.75 1.75 0 0 0 -2.474-2.475z"/><path d="m76.785 106.62-9 9a1.75 1.75 0 0 0 2.475 2.475l9-9a1.75 1.75 0 1 0 -2.475-2.475z"/><path d="m92.581 106.62-9 9a1.75 1.75 0 0 0 2.475 2.475l9-9a1.75 1.75 0 0 0 -2.475-2.475z"/><path d="m108.378 106.62-9 9a1.75 1.75 0 0 0 2.474 2.475l9-9a1.75 1.75 0 1 0 -2.474-2.475z"/></g></g></svg>