<svg id="Layer_1" enable-background="new 0 0 256 256" height="512" viewBox="0 0 256 256" width="512" xmlns="http://www.w3.org/2000/svg"><path d="m187.356 89.387c-1.266 0-2.517.061-3.76.151-6.776-24.344-29.092-42.214-55.596-42.214-19.369 0-36.496 9.55-46.966 24.187l-6.811 12.568c-2.536 6.501-3.944 13.567-3.944 20.965 0 .439.023.872.033 1.308-3.095-.695-6.309-1.074-9.614-1.074-24.133 0-43.698 19.564-43.698 43.699 0 14.75 7.315 27.782 18.507 35.696-1.613 3.872-2.507 8.12-2.507 12.577 0 18.087 14.663 32.75 32.75 32.75 3.395 0 6.669-.517 9.749-1.476 7.539 6.82 17.534 10.976 28.501 10.976 19.51 0 35.937-13.15 40.932-31.067 10.704-.67 19.905-6.862 24.801-15.757h18.324v-.018c28.198-.377 50.943-23.339 50.943-51.627 0-28.522-23.122-51.644-51.644-51.644z" fill="#87796f"/><path d="m187.355 87.888c-.84 0-1.702.024-2.654.077-7.481-24.874-30.622-42.141-56.701-42.141-19.059 0-37.071 9.276-48.186 24.813-.482.674-.327 1.611.347 2.093.673.481 1.609.327 2.093-.347 10.553-14.752 27.653-23.56 45.746-23.56 25.145 0 47.412 16.907 54.15 41.116.192.688.829 1.163 1.554 1.094 1.383-.1 2.543-.146 3.651-.146 27.649 0 50.145 22.494 50.145 50.144 0 27.275-22.189 49.763-49.464 50.127-.07.001-.14.007-.207.018h-18.097c-.547 0-1.051.298-1.314.776-4.821 8.761-13.636 14.362-23.58 14.983-.638.04-1.18.479-1.352 1.095-4.919 17.646-21.156 29.97-39.486 29.97-10.183 0-19.947-3.76-27.495-10.588-.394-.355-.946-.474-1.452-.32-3 .935-6.13 1.408-9.303 1.408-17.231 0-31.25-14.019-31.25-31.25 0-4.154.805-8.191 2.392-12 .27-.648.055-1.396-.519-1.802-11.191-7.913-17.873-20.8-17.873-34.472 0-23.269 18.931-42.199 42.199-42.199 3.096 0 6.22.35 9.285 1.038.452.102.923-.012 1.279-.304.357-.292.56-.732.55-1.193l-.016-.498c-.009-.258-.018-.517-.018-.776 0-7.017 1.292-13.887 3.841-20.42.301-.771-.08-1.642-.853-1.942-.768-.301-1.641.08-1.942.853-2.62 6.716-3.979 13.771-4.044 20.977-2.68-.487-5.391-.733-8.083-.733-24.923 0-45.199 20.276-45.199 45.199 0 14.25 6.775 27.703 18.184 36.226-1.449 3.849-2.184 7.896-2.184 12.048 0 18.886 15.364 34.25 34.25 34.25 3.188 0 6.339-.438 9.377-1.3 8.01 6.969 18.229 10.798 28.874 10.798 19.319 0 36.473-12.757 42.081-31.153 10.246-.977 19.298-6.757 24.524-15.671h17.451c.085 0 .169-.007.25-.021 28.8-.511 52.193-24.293 52.193-53.123.001-29.304-23.84-53.144-53.144-53.144z" fill="#3a312a"/><path d="m187.36 90.89c-1.11 0-2.27.04-3.66.14-.7.05-1.36-.4-1.55-1.09-6.74-24.21-29.01-41.12-54.15-41.12-3.24 0-6.43.28-9.52.81 21.1 3.64 38.79 19.2 44.67 40.31.19.69.85 1.14 1.55 1.09 1.39-.1 2.55-.14 3.66-.14 27.65 0 50.14 22.49 50.14 50.14 0 26.66-21.2 48.74-47.62 50.07-.03.03-.06.05-.09.08h17.04c.07-.01.14-.02.21-.02 27.27-.37 49.46-22.85 49.46-50.13 0-27.65-22.49-50.14-50.14-50.14z" fill="#695b51"/><path d="m47.911 26.198c-.974 11.564-13.025 13.389-13.025 13.389 10.347.487 12.925 14.059 12.925 14.059.221-9.677 13.321-14.202 13.321-14.202-9.813-.586-13.221-13.246-13.221-13.246z" fill="#d7e057"/><path d="m61.223 37.948c-8.604-.516-11.832-12.025-11.863-12.142-.19-.701-.855-1.158-1.584-1.102-.725.066-1.298.642-1.359 1.367-.859 10.216-11.313 11.964-11.754 12.032-.763.116-1.313.791-1.273 1.561.04.771.657 1.385 1.428 1.421 9.027.426 11.498 12.719 11.521 12.843.138.712.76 1.218 1.473 1.218.042 0 .084-.002.126-.005.764-.064 1.357-.693 1.375-1.46.194-8.509 12.191-12.777 12.313-12.819.676-.234 1.092-.914.994-1.622s-.683-1.249-1.397-1.292zm-13.567 10.346c-1.356-3.131-3.708-6.908-7.586-8.877 2.931-1.404 6.408-3.913 8.201-8.273 1.551 3.071 4.2 6.881 8.334 8.723-3.006 1.64-6.922 4.405-8.949 8.427z" fill="#3a312a"/><path d="m26.213 43.179c-.689 8.179-9.213 9.47-9.213 9.47 7.318.344 9.142 9.944 9.142 9.944.156-6.844 9.422-10.045 9.422-10.045-6.941-.415-9.351-9.369-9.351-9.369z" fill="#d7e057"/><path d="m35.654 51.052c-5.767-.346-7.972-8.187-7.993-8.266-.19-.702-.865-1.16-1.582-1.102-.726.065-1.3.643-1.361 1.368-.579 6.871-7.646 8.066-7.942 8.113-.763.116-1.313.791-1.273 1.561.04.771.657 1.385 1.428 1.421 6.035.284 7.724 8.645 7.739 8.727.136.713.759 1.22 1.473 1.22.041 0 .083-.002.125-.005.765-.063 1.358-.693 1.376-1.461.13-5.709 8.331-8.633 8.411-8.661.677-.233 1.094-.913.997-1.622-.099-.709-.684-1.25-1.398-1.293zm-9.585 6.794c-.924-1.885-2.34-3.947-4.447-5.279 1.855-1.041 3.697-2.63 4.871-4.917 1.057 1.874 2.653 3.955 4.941 5.225-1.849 1.1-3.989 2.738-5.365 4.971z" fill="#3a312a"/><path d="m26.213 16.521c-.689 8.18-9.213 9.471-9.213 9.471 7.318.344 9.142 9.944 9.142 9.944.156-6.845 9.422-10.045 9.422-10.045-6.941-.415-9.351-9.37-9.351-9.37z" fill="#d7e057"/><path d="m35.654 24.394c-5.767-.345-7.972-8.186-7.993-8.265-.19-.701-.865-1.159-1.582-1.102-.726.065-1.3.643-1.361 1.368-.579 6.871-7.646 8.066-7.942 8.113-.763.116-1.313.791-1.273 1.561.04.771.657 1.385 1.428 1.421 6.035.284 7.724 8.645 7.739 8.727.136.713.759 1.22 1.473 1.22.041 0 .083-.002.125-.005.765-.063 1.358-.693 1.376-1.461.13-5.709 8.331-8.634 8.412-8.662.676-.234 1.093-.913.996-1.622-.099-.709-.684-1.251-1.398-1.293zm-9.585 6.794c-.924-1.885-2.34-3.947-4.447-5.279 1.855-1.041 3.697-2.63 4.871-4.917 1.057 1.874 2.654 3.955 4.941 5.224-1.849 1.1-3.989 2.74-5.365 4.972z" fill="#3a312a"/><circle cx="231.5" cy="231.5" fill="#87796f" r="8"/><path d="m231.5 222c-5.238 0-9.5 4.262-9.5 9.5s4.262 9.5 9.5 9.5 9.5-4.262 9.5-9.5-4.262-9.5-9.5-9.5zm0 16c-3.584 0-6.5-2.916-6.5-6.5s2.916-6.5 6.5-6.5 6.5 2.916 6.5 6.5-2.916 6.5-6.5 6.5z" fill="#3a312a"/><circle cx="231.5" cy="48.5" fill="#87796f" r="8"/><path d="m231.5 39c-5.238 0-9.5 4.262-9.5 9.5s4.262 9.5 9.5 9.5 9.5-4.262 9.5-9.5-4.262-9.5-9.5-9.5zm0 16c-3.584 0-6.5-2.916-6.5-6.5s2.916-6.5 6.5-6.5 6.5 2.916 6.5 6.5-2.916 6.5-6.5 6.5z" fill="#3a312a"/><circle cx="44" cy="78" fill="#87796f" r="8"/><path d="m44 68.5c-5.238 0-9.5 4.262-9.5 9.5s4.262 9.5 9.5 9.5 9.5-4.262 9.5-9.5-4.262-9.5-9.5-9.5zm0 16c-3.584 0-6.5-2.916-6.5-6.5s2.916-6.5 6.5-6.5 6.5 2.916 6.5 6.5-2.916 6.5-6.5 6.5z" fill="#3a312a"/><circle cx="24.5" cy="229.5" fill="#87796f" r="8"/><path d="m24.5 220c-5.238 0-9.5 4.262-9.5 9.5s4.262 9.5 9.5 9.5 9.5-4.262 9.5-9.5-4.262-9.5-9.5-9.5zm0 16c-3.584 0-6.5-2.916-6.5-6.5s2.916-6.5 6.5-6.5 6.5 2.916 6.5 6.5-2.916 6.5-6.5 6.5z" fill="#3a312a"/><circle cx="181.5" cy="218.5" fill="#87796f" r="8"/><path d="m181.5 209c-5.238 0-9.5 4.262-9.5 9.5s4.262 9.5 9.5 9.5 9.5-4.262 9.5-9.5-4.262-9.5-9.5-9.5zm0 16c-3.584 0-6.5-2.916-6.5-6.5s2.916-6.5 6.5-6.5 6.5 2.916 6.5 6.5-2.916 6.5-6.5 6.5z" fill="#3a312a"/><circle cx="186.5" cy="25.5" fill="#87796f" r="8"/><path d="m186.5 16c-5.238 0-9.5 4.262-9.5 9.5s4.262 9.5 9.5 9.5 9.5-4.262 9.5-9.5-4.262-9.5-9.5-9.5zm0 16c-3.584 0-6.5-2.916-6.5-6.5s2.916-6.5 6.5-6.5 6.5 2.916 6.5 6.5-2.916 6.5-6.5 6.5z" fill="#3a312a"/><circle cx="202.5" cy="70.5" fill="#87796f" r="8"/><path d="m202.5 61c-5.238 0-9.5 4.262-9.5 9.5s4.262 9.5 9.5 9.5 9.5-4.262 9.5-9.5-4.262-9.5-9.5-9.5zm0 16c-3.584 0-6.5-2.916-6.5-6.5s2.916-6.5 6.5-6.5 6.5 2.916 6.5 6.5-2.916 6.5-6.5 6.5z" fill="#3a312a"/><circle cx="94.5" cy="32.5" fill="#87796f" r="8"/><path d="m94.5 23c-5.238 0-9.5 4.262-9.5 9.5s4.262 9.5 9.5 9.5 9.5-4.262 9.5-9.5-4.262-9.5-9.5-9.5zm0 16c-3.584 0-6.5-2.916-6.5-6.5s2.916-6.5 6.5-6.5 6.5 2.916 6.5 6.5-2.916 6.5-6.5 6.5z" fill="#3a312a"/></svg>