<svg height="512pt" viewBox="0 -10 512 512" width="512pt" xmlns="http://www.w3.org/2000/svg"><path d="m64.171875 123.550781c-32.546875 38.152344-52.183594 87.632813-52.183594 141.699219 0 120.671875 97.824219 218.492188 218.492188 218.492188 3.980469 0 7.945312-.105469 11.875-.324219l48.589843-48.589844v-100.472656l-82.148437-36.644531v-145.945313zm0 0" fill="#bbe8ee"/><path d="m427.328125 360.152344c13.867187-28.695313 21.636719-60.898438 21.636719-94.902344 0-53.5-19.238282-102.515625-51.164063-140.496094l-189.003906 27.011719v145.945313l82.148437 36.644531zm0 0" fill="#bbe8ee"/><path d="m427.328125 360.152344c-33.691406 69.777344-103.394531 118.898437-184.972656 123.269531l-5.675781-13.78125c-1.042969-2.53125-1.542969-5.183594-1.542969-7.800781 0-6.472656 3.078125-12.765625 8.601562-16.707032 5.414063-3.839843 8.617188-10.066406 8.617188-16.699218v-6.976563c0-5.203125-1.980469-10.214843-5.542969-14.015625l-10.703125-11.410156c-6.566406-7.003906-7.390625-17.636719-1.980469-25.566406l2.875-4.210938c7.683594-11.277344 2.414063-26.773437-10.539062-31.027344l-31.066406-10.195312c-2.851563-.9375-5.25-2.882812-6.757813-5.480469l-21.304687-36.648437c-4.632813-7.988282-16.117188-8.140625-20.972657-.273438l-5.097656 8.265625c-2.253906 3.648438-6.207031 5.808594-10.398437 5.808594-.691407 0-1.390626-.058594-2.082032-.179687-7.0625-1.214844-11.5625-8.207032-9.761718-15.136719l11.03125-42.230469c.871093-3.363281 3.144531-6.195312 6.234374-7.789062l22.480469-11.570313c4.140625-2.125 6.632813-6.371094 6.632813-10.871094 0-.878906-.09375-1.773437-.292969-2.652343-2.085937-9.394532-9.648437-16.585938-19.125-18.207032l-14.804687-2.53125c-4.671876-.792968-9.164063-2.472656-13.21875-4.933594l-32.621094-19.796874c-8.0625-4.902344-14.003906-12.644532-16.640625-21.703126l-4.53125-15.550781v-.011719c40.078125-46.984374 99.710937-76.78125 166.3125-76.78125 67.164062 0 127.25 30.304688 167.316406 77.996094l-8.878906 15.789063c-1.734375 3.097656-4.191407 5.65625-7.089844 7.503906-2.898437 1.859375-6.246094 3.015625-9.789063 3.300781-7.222656.578125-13.65625 4.785156-17.078124 11.164063l-8.132813 15.152343c-3.96875 7.402344-11.921875 11.78125-20.308594 11.183594l-5.648437-.410156c-.9375-.066406-1.867188-.09375-2.804688-.09375-11.039062 0-21.625 4.617188-29.152344 12.8125-4.746093 5.183594-8.023437 11.535156-9.503906 18.40625l-3.402344 15.84375c-1.203124 5.582031-3.589843 10.84375-7.019531 15.402344l-18.539062 24.734375c-4.3125 5.761719-3.078125 13.941406 2.75 18.167969l16.0625 11.644531c3.117187 2.257812 7.078125 3.003906 10.8125 2.039062l22.480469-5.847656c2.0625-.539063 4.167968-.796875 6.253906-.796875 6.59375 0 13.011718 2.617188 17.757812 7.441406 4.683594 4.753906 11.082032 7.4375 17.75 7.4375h12.683594c4.074219 0 8.085938.996094 11.675781 2.910156l12.832031 6.804688c1.230469.652344 2.40625 1.410156 3.507813 2.261719zm0 0" fill="#8bdaa3"/><path d="m242.355469 483.421875 1.335937-1.335937c-108.027344-13.210938-191.703125-105.238282-191.703125-216.835938 0-50.941406 17.441407-97.808594 46.675781-134.96875l-34.492187-6.730469c-4.070313 4.769531-7.933594 9.714844-11.585937 14.824219-26.339844 36.859375-40.597657 81.585938-40.597657 126.875 0 32.054688 6.902344 62.492188 19.300781 89.917969 20.25 44.785156 55.984376 82.269531 99.722657 104.671875 29.835937 15.28125 63.644531 23.902344 99.46875 23.902344 3.980469 0 7.945312-.105469 11.875-.320313zm0 0" fill="#8dcdd7"/><path d="m241.703125 481.832031.652344 1.589844c.019531-.003906.039062-.003906.054687-.003906 1.347656-.074219 2.6875-.15625 4.027344-.257813 1.359375-.09375 2.71875-.222656 4.089844-.332031-2.960938-.269531-5.898438-.609375-8.824219-.996094zm0 0" fill="#7cce92"/><path d="m68.699219 139.101562c2.074219 7.128907 6.203125 13.433594 11.792969 18.191407 6.835937-12.003907 14.769531-23.300781 23.679687-33.753907 36.019531-42.230468 87.835937-70.558593 146.3125-75.863281-1.328125-.121093-2.664063-.222656-4-.320312-5.324219-.382813-10.664063-.597657-16.003906-.597657-51.699219 0-102.457031 18.671876-141.789063 52.25-8.804687 7.515626-17.007812 15.722657-24.519531 24.542969zm0 0" fill="#7cce92"/><path d="m169.527344 464.394531c21.296875 0 38.558594-17.261719 38.558594-38.558593 0-19.773438-14.878907-36.0625-34.050782-38.296876-4.726562-29.058593-29.9375-51.242187-60.335937-51.242187-24.015625 0-44.789063 13.847656-54.789063 33.992187-1.402344-.128906-2.824218-.195312-4.261718-.195312-26.039063 0-47.148438 21.109375-47.148438 47.148438 0 26.042968 21.109375 47.152343 47.148438 47.152343zm0 0" fill="#c1c4c7"/><path d="m358.105469 123.238281c-19.238281 0-34.835938-15.597656-34.835938-34.835937 0-17.863282 13.445313-32.585938 30.765625-34.601563 4.273438-26.253906 27.050782-46.300781 54.515625-46.300781 21.695313 0 40.46875 12.511719 49.5 30.714844 1.269531-.113282 2.550781-.175782 3.851563-.175782 23.527344 0 42.597656 19.074219 42.597656 42.601563 0 23.523437-19.070312 42.597656-42.597656 42.597656zm0 0" fill="#adb0b3"/><path d="m154.644531 120.789062v12.367188c0 4.144531 3.355469 7.5 7.5 7.5 4.140625 0 7.5-3.355469 7.5-7.5v-12.367188c0-4.140624-3.359375-7.5-7.5-7.5-4.144531 0-7.5 3.359376-7.5 7.5zm0 0"/><path d="m306.3125 133.15625v-12.367188c0-4.140624-3.359375-7.5-7.5-7.5-4.144531 0-7.5 3.359376-7.5 7.5v12.367188c0 4.144531 3.355469 7.5 7.5 7.5 4.140625 0 7.5-3.355469 7.5-7.5zm0 0"/><path d="m252.988281 137.234375c2.726563-3.117187 2.410157-7.855469-.710937-10.582031-3.117188-2.726563-7.855469-2.410156-10.582032.707031-2.71875 3.113281-6.808593 4.898437-11.21875 4.898437-4.410156 0-8.5-1.785156-11.21875-4.898437-2.726562-3.117187-7.464843-3.4375-10.582031-.710937-3.121093 2.726562-3.4375 7.464843-.710937 10.585937 5.566406 6.371094 13.773437 10.023437 22.511718 10.023437 8.738282 0 16.945313-3.652343 22.511719-10.023437zm0 0"/><path d="m462.402344 30.539062c-11.296875-18.957031-31.511719-30.539062-53.855469-30.539062-29.113281 0-53.902344 19.613281-60.835937 47.347656-8.503907 2.140625-15.917969 6.828125-21.460938 13.164063-30.050781-14.105469-62.234375-21.253907-95.765625-21.253907-66.273437 0-128.96875 28.945313-172.019531 79.414063-.039063.046875-.070313.09375-.109375.140625-14.296875 16.785156-26.035157 35.523438-34.886719 55.6875-1.667969 3.792969.058594 8.21875 3.851562 9.882812 3.789063 1.664063 8.214844-.0625 9.878907-3.851562 6.382812-14.535156 14.367187-28.269531 23.816406-40.988281 3.351563 11.511719 10.0625 21.371093 20.433594 27.671875 0 0 32.617187 19.796875 32.617187 19.796875 4.859375 2.945312 10.25 4.964843 15.851563 5.917969 10.445312 0 25.261719 3.214843 27.875 15 .476562 2.140624-.589844 4.132812-2.457031 5.199218l-22.480469 11.574219c-4.992188 2.570313-8.65625 7.15625-10.058594 12.5625 0 0-11.023437 42.203125-11.03125 42.238281-2.871094 10.984375 4.507813 22.480469 15.699219 24.402344 7.886718 1.40625 15.980468-2.273438 20.183594-9.074219 0 0 5.097656-8.261719 5.101562-8.265625 1.863281-3.015625 6.335938-2.9375 8.101562.109375l21.300782 36.640625c2.429687 4.1875 6.300781 7.328125 10.90625 8.839844 0 0 31.019531 10.183594 31.0625 10.199219 8.097656 2.65625 11.484375 12.632812 6.6875 19.671875-2.800782 4.105468-5.574219 8.039062-6.867188 12.917968-2.425781 9.183594.21875 19.308594 6.699219 26.21875l10.699219 11.410157c2.265625 2.417969 3.515625 5.574219 3.515625 8.886719 0 6.5625.550781 13.296874-5.472657 17.570312-7.355468 5.25-11.75 13.777344-11.75 22.8125 0 5.160156 1.722657 9.710938 3.652344 14.398438-17.117187.085937-33.929687-1.882813-50.246094-5.800782.894532-.230468 1.773438-.5 2.652344-.785156 18.707032-6.058594 31.894532-24.136719 31.894532-43.820312 0-20.773438-15.011719-39.914063-35.214844-44.773438-.929688-3.824219-2.167969-7.507812-3.683594-11.027344-10.625-24.640625-34.976562-41.238281-62.988281-41.238281-24.59375 0-46.832031 12.832031-59.148438 33.800781-3.625.007813-7.179687.367188-10.730469 1.082032-15.933593-30.1875-24.332031-64.089844-24.332031-98.429688 0-19.523438 2.671875-38.871094 7.941407-57.511719 1.128906-3.984375-1.191407-8.128906-5.175782-9.257812-3.988281-1.125-8.132812 1.191406-9.257812 5.179687-5.644532 19.964844-8.507813 40.6875-8.507813 61.589844 0 36.039062 8.648438 71.636719 25.058594 103.476562-17.535156 9.109376-29.546875 27.429688-29.546875 48.515626 0 30.136718 24.515625 54.652343 54.648438 54.652343h84.25c28.894531 12.828125 59.695312 19.347657 91.582031 19.347657 4.140625 0 8.261719-.113282 12.246093-.332032h.03125c55.972657-3 108.589844-26.621094 148.15625-66.507812 2.917969-2.941406 2.898438-7.691406-.042968-10.605469-2.9375-2.917969-7.6875-2.898437-10.605469.042969-35.695313 35.984375-82.753906 57.789062-133.027344 61.742187 0 0-3.621093-8.792969-3.625-8.796875-3.996093-9.699218 4.074219-13.855468 9.414063-20.03125 6.433594-7.4375 6.828125-15.957031 6.828125-25.292968 0-7.140626-2.691407-13.941407-7.574219-19.148438 0 0-10.683594-11.390625-10.699219-11.410156-6.109375-6.515625-2.664062-14.152344 1.617188-20.421875 10.359375-15.179688 2.984375-36.667969-14.398438-42.378907l-31.0625-10.195312c-1.3125-.433594-1.71875-1.230469-2.613281-2.125 0 0-21.28125-36.605469-21.300781-36.640625-3.457031-5.941406-9.917969-9.726563-16.785157-9.816406-6.75-.09375-13.40625 3.449219-17.058593 9.367187 0 0-5.054688 8.191406-5.09375 8.257813-2.761719 4.476562-9.9375 1.457031-8.609375-3.664063l11.035156-42.246094c.335938-1.289062 1.214844-2.386718 2.410156-3 0 0 22.425782-11.542968 22.46875-11.566406 7.816406-4.023437 12.179688-13.238281 10.238282-21.820312-4.539063-20.097656-22.539063-23.597656-39.988282-26.503906-3.742187-.640626-7.34375-1.984376-10.589844-3.957032 0 0-32.609374-19.792968-32.617187-19.796875-10.890625-6.609375-13.398437-17.617187-16.722656-29.019531 40.09375-45.246094 97.4375-71.117188 157.96875-71.117188 30.792969 0 60.367187 6.453126 88.011719 19.1875-.019532.050782-.03125.101563-.050782.148438-1.769531 4.714844-2.671875 9.769531-2.671875 14.808594 0 23.34375 18.992188 42.335937 42.335938 42.335937h27.722656c-1.152344 2.046875-2.304687 4.09375-3.453125 6.140625-2.230469 3.964844-6.398438 6.628906-10.933594 6.992188-9.703125.777344-18.488281 6.515625-23.085937 15.09375 0 0-8.132813 15.148437-8.132813 15.152344-4.769531 8.890624-13.769531 6.726562-22.152344 6.726562-21.882812 0-41.394531 15.773438-45.992187 37.144531-2.058594 9.582031-3.023437 20.253907-9.09375 28.320313 0 0-18.527344 24.726562-18.539063 24.742187-6.734374 8.988281-4.734374 22.144531 4.351563 28.730469 0 0 16.070313 11.652344 16.070313 11.652344 4.832031 3.503906 11.28125 4.722656 17.097656 3.21875 0 0 22.480468-5.847656 22.488281-5.847656 8.550781-2.226563 14.082031 3.089843 20.410156 7.824218 5.578125 4.171875 12.449219 6.5 19.457031 6.5 6.753907 0 14.640626-1.269531 20.839844 2.035156 5.015625 2.507813 10.839844 4.941407 15.28125 8.390626l37.410156 28.769531c-5.402343 10.40625-11.703124 20.40625-18.78125 29.796875-2.492187 3.308594-1.832031 8.011718 1.476563 10.503906s8.011719 1.832031 10.503906-1.476562c8.890625-11.796876 16.640625-24.496094 23.03125-37.738282 14.851563-30.738281 22.382813-63.765625 22.382813-98.160156 0-48.503906-15.6875-95.753906-44.402344-134.511719h49.835938c27.625 0 50.101562-22.472656 50.101562-50.101562 0-27.453125-22.203125-49.824219-49.597656-50.097657zm-447.402344 386.703126c0-17.660157 11.609375-32.65625 27.597656-37.769532 5.027344-1.609375 10.386719-2.1875 15.640625-1.714844 3.035157.273438 6.035157-1.40625 7.390625-4.136718 1.234375-2.484375 2.640625-4.839844 4.195313-7.058594 9.957031-14.214844 26.128906-22.769531 43.875-22.769531 26.433593 0 48.695312 18.90625 52.933593 44.949219.527344 3.257812 3.257813 5.863281 6.535157 6.246093 15.632812 1.820313 27.417969 15.082031 27.417969 30.847657 0 3.210937-.488282 6.308593-1.398438 9.226562-3.9375 12.632812-15.746094 21.832031-29.660156 21.832031h-114.878906c-21.863282 0-39.648438-17.785156-39.648438-39.652343zm409.425781-68.785157s-34.8125-26.769531-34.8125-26.773437c-5.203125-4-11.628906-6.699219-17.410156-9.761719-4.652344-2.480469-9.910156-3.792969-15.203125-3.792969-8.621094 0-18.433594 1.558594-25.085938-5.199218-7.992187-8.125-20.21875-11.53125-31.25-8.640626l-22.46875 5.84375c-1.5625.40625-3.242187.085938-4.53125-.847656 0 0-16.03125-11.625-16.0625-11.648437-2.398437-1.738281-2.921874-5.234375-1.148437-7.597657 0 0 18.523437-24.722656 18.527344-24.722656 7.363281-9.828125 9.203125-22.246094 11.761719-34.179687 3.304687-15.378907 17.890624-26.324219 33.589843-25.21875 8.988281.636719 18.695313-.25 26.003907-6.054688 7.550781-6 10.824218-15.585937 15.234374-23.808593 2.230469-4.152344 6.367188-6.855469 11.070313-7.234376 9.453125-.753906 18.183594-6.324218 22.8125-14.601562l3.421875-6.082031c27.539062 36.464843 42.589844 81.1875 42.589844 127.113281 0 28.992188-5.730469 56.941406-17.039063 83.207031zm37.472657-232.71875h-103.792969c-15.074219 0-27.335938-12.261719-27.335938-27.339843 0-13.574219 10.496094-25.5625 24.132813-27.148438 3.328125-.386719 5.996094-2.9375 6.535156-6.246094 3.769531-23.179687 23.582031-40.003906 47.109375-40.003906 18.261719 0 34.65625 10.171875 42.785156 26.546875 1.375 2.769531 4.3125 4.414063 7.386719 4.136719 20.25-1.816406 38.28125 14.601562 38.28125 34.953125 0 19.355469-15.746094 35.101562-35.101562 35.101562zm0 0"/></svg>