<svg id="Capa_1" enable-background="new 0 0 512 512" height="512" viewBox="0 0 512 512" width="512" xmlns="http://www.w3.org/2000/svg"><g><g><g fill="#ddebfd"><path d="m166.788 338.157c-51.471 0-96.716 26.626-122.736 66.85-.832 1.286-.832 2.958 0 4.244 26.019 40.224 71.265 66.849 122.736 66.849s96.716-26.626 122.736-66.849c.832-1.286.832-2.958 0-4.244-26.02-40.224-71.265-66.85-122.736-66.85z"/><path d="m469.488 61.589h-8.072c-6.281-30.864-33.577-54.089-66.293-54.089s-60.013 23.225-66.293 54.089c-.887 4.384-1.357 8.916-1.357 13.561 0 16.91 6.202 32.368 16.458 44.224h125.557c7.977 0 15.205-3.236 20.433-8.464s8.464-12.448 8.464-20.433c0-15.954-12.944-28.888-28.897-28.888z"/><path d="m449.927 201.155c-6.668-6.668-15.889-10.794-26.057-10.794h-52.303c6.221-15.162 9.716-31.737 9.872-49.102.652-72.973-58.553-133.208-131.526-133.755-71.89-.539-130.655 56.14-133.464 127.21-.097 2.458-2.118 4.398-4.577 4.399-10.491.002-35.786.004-35.786.004-34.501 0-62.47 27.969-62.47 62.47s27.969 62.47 62.47 62.47h347.187c20.041 0 36.877-15.762 37.434-35.795.294-10.584-3.884-20.211-10.78-27.107z"/></g><path d="m449.927 201.155c-6.668-6.668-15.889-10.794-26.057-10.794h-33.275c10.169 0 19.389 4.126 26.057 10.794 6.896 6.896 11.074 16.523 10.779 27.106-.557 20.033-17.393 35.795-37.434 35.795h33.275c20.041 0 36.877-15.762 37.434-35.795.295-10.583-3.883-20.21-10.779-27.106z" fill="#bed9fd"/><path d="m348.163 141.259c-.141 15.773-3.037 30.894-8.229 44.896-.757 2.041.747 4.206 2.923 4.206h28.71c6.221-15.162 9.716-31.737 9.872-49.102.652-72.973-58.553-133.208-131.526-133.755-6.001-.045-11.907.317-17.7 1.045 65.635 8.279 116.556 65.008 115.95 132.71z" fill="#bed9fd"/><path d="m132.894 342.119c-23.426 12.239-39.425 36.748-39.425 65.01 0 28.26 15.999 52.77 39.424 65.008 10.878 2.585 22.225 3.962 33.895 3.962s23.016-1.377 33.895-3.962c23.425-12.239 39.424-36.748 39.424-65.008 0-28.262-15.999-52.771-39.425-65.01-10.878-2.585-22.224-3.962-33.893-3.962-11.67 0-23.017 1.376-33.895 3.962z" fill="#75cff9"/><circle cx="166.788" cy="407.128" fill="#5d91b9" r="36.823"/></g><g><path d="m469.493 54.09h-2.204c-9.241-31.683-38.658-54.09-72.166-54.09-23.575 0-45.819 11.248-59.92 29.826-9.538-7.485-20.07-13.757-31.358-18.591-19.346-8.316-34.237-10.455-54.95-11.235-40.667.006-79.212 17.6-105.88 48.372-2.712 3.131-2.374 7.867.756 10.58 3.131 2.713 7.868 2.374 10.58-.756 23.925-27.608 58.507-43.361 95.048-43.19 34.615.14 65.74 14.294 88.52 37.452 15.999 16.265 27.318 36.356 32.614 58.541 7.947 33.211 2.112 69.392-18.047 99.124-2.325 3.429-1.43 8.092 1.999 10.417 3.414 2.314 8.081 1.445 10.417-1.999 4.44-6.548 8.317-13.488 11.584-20.68h47.388c16.417 0 29.803 13.493 29.34 30.19-.437 15.718-13.867 28.504-29.937 28.504h-60.799c-4.142 0-7.5 3.357-7.5 7.5s3.358 7.5 7.5 7.5h60.799c24.114 0 44.271-19.328 44.931-43.087.698-25.145-19.457-45.607-44.334-45.607h-41.586c3.753-11.7 5.971-24.061 6.516-36.503.261-5.94.16-12.697-.477-19.488h81.167c20.116 0 36.39-16.272 36.39-36.39-.002-20.065-16.326-36.39-36.391-36.39zm0 57.78h-83.395c-5.593-27.277-19.368-52.462-39.583-72.138 11.248-15.385 29.378-24.732 48.608-24.732 28.488 0 53.28 20.223 58.95 48.085.711 3.494 3.784 6.005 7.35 6.005h8.07c11.794 0 21.39 9.596 21.39 21.391-.001 11.824-9.563 21.389-21.39 21.389z"/><path d="m111.262 340.993-36.54-36.541c-2.929-2.928-7.678-2.928-10.606 0-2.929 2.93-2.929 7.678 0 10.607l32.504 32.504c-23.551 12.092-43.93 30.286-58.863 53.371-2.433 3.763-2.433 8.625.001 12.389 39.884 61.657 117.026 86.066 184.561 59.94l36.54 36.541c1.464 1.464 3.384 2.196 5.303 2.196s3.839-.732 5.303-2.196c2.929-2.93 2.929-7.678 0-10.607l-32.504-32.504c23.551-12.092 43.93-30.285 58.862-53.368 2.435-3.764 2.435-8.628 0-12.391-40.68-62.889-118.35-85.555-184.561-59.941zm86.744 8.206c21.365 11.532 34.603 33.641 34.603 57.93 0 15.182-5.176 29.511-14.27 40.941l-15.376-15.376c5.125-7.23 8.15-16.049 8.15-25.566 0-24.439-19.883-44.323-44.323-44.323-9.517 0-18.336 3.025-25.566 8.151l-15.362-15.362c3.01-2.385 6.254-4.528 9.712-6.394 20.543-4.721 41.855-4.729 62.432-.001zm-56.554 43.198 40.069 40.069c-4.332 2.529-9.363 3.985-14.731 3.985-16.169 0-29.323-13.154-29.323-29.323 0-5.368 1.457-10.399 3.985-14.731zm10.607-10.607c4.332-2.529 9.364-3.985 14.731-3.985 16.168 0 29.323 13.154 29.323 29.323 0 5.368-1.456 10.399-3.985 14.731zm-100.421 25.338c12.322-18.377 28.523-33.195 47.13-43.681-8.214 12.78-12.796 27.853-12.796 43.682 0 15.828 4.581 30.899 12.795 43.679-18.607-10.486-34.808-25.304-47.129-43.68zm83.937 57.929c-21.364-11.531-34.602-33.639-34.602-57.928 0-15.183 5.175-29.512 14.27-40.942l15.376 15.376c-5.125 7.23-8.15 16.049-8.15 25.566 0 24.439 19.883 44.323 44.323 44.323 9.517 0 18.335-3.025 25.565-8.15l15.362 15.362c-3.01 2.385-6.255 4.528-9.713 6.395-20.544 4.718-41.854 4.726-62.431-.002zm99.239-14.249c8.214-12.78 12.795-27.851 12.795-43.679 0-15.83-4.582-30.902-12.797-43.682 18.608 10.486 34.808 25.304 47.13 43.681-12.321 18.377-28.521 33.195-47.128 43.68z"/><path d="m460.724 304.512h-225.76c-4.142 0-7.5 3.357-7.5 7.5s3.358 7.5 7.5 7.5h225.759c4.142 0 7.5-3.357 7.5-7.5s-3.357-7.5-7.499-7.5z"/><path d="m460.724 352.07h-162.106c-4.142 0-7.5 3.357-7.5 7.5s3.358 7.5 7.5 7.5h162.105c4.142 0 7.5-3.357 7.5-7.5s-3.357-7.5-7.499-7.5z"/><path d="m460.724 399.628h-125.146c-4.142 0-7.5 3.357-7.5 7.5s3.358 7.5 7.5 7.5h125.146c4.142 0 7.5-3.357 7.5-7.5s-3.358-7.5-7.5-7.5z"/><path d="m327.476 271.556c4.142 0 7.5-3.357 7.5-7.5s-3.358-7.5-7.5-7.5h-251.388c-30.311 0-54.97-24.659-54.97-54.97s24.66-54.972 54.971-54.972h35.788c6.51-.003 11.812-5.101 12.069-11.604.673-17.028 4.712-33.419 12.006-48.715 1.783-3.739.197-8.216-3.542-9.998-3.739-1.784-8.215-.196-9.998 3.541-7.773 16.301-12.248 33.708-13.317 51.776h-33.007c-38.582 0-69.97 31.391-69.97 69.972s31.389 69.97 69.97 69.97z"/></g></g></svg>