<svg id="Capa_1" enable-background="new 0 0 512.003 512.003" height="512" viewBox="0 0 512.003 512.003" width="512" xmlns="http://www.w3.org/2000/svg"><g><g><g><path d="m386.144 272.732c0-66.002-53.505-119.506-119.506-119.506-47.264 0-88.115 27.44-107.503 67.256-10.995-4.814-23.133-7.503-35.904-7.503-49.501 0-89.63 40.129-89.63 89.63s40.129 89.63 89.63 89.63h262.914c33.001 0 59.753-26.753 59.753-59.753-.001-33.002-26.753-59.754-59.754-59.754z" fill="#a0c8ff"/><path d="m419.194 153.222c0 31.275-17.09 58.555-42.434 73.026-18.119-42.903-60.604-73.026-110.12-73.026-5.248 0-10.405.336-15.469.999-.01-.336-.01-.662-.01-.999 0-46.398 37.624-84.022 84.022-84.022s84.011 37.624 84.011 84.022z" fill="#ffcd69"/><g fill="#cfd3df"><path d="m482.001 502.003h-146.076c-11.046 0-20-8.954-20-20 0-11.046 8.954-20 20-20h146.076c11.046 0 20 8.954 20 20 0 11.045-8.954 20-20 20z"/><path d="m255.926 462.003h-79.848c11.046 0 20-8.954 20-20 0-11.046-8.954-20-20-20h-146.077c-11.046 0-20 8.954-20 20 0 11.046 8.954 20 20 20h79.848c-11.045 0-20 8.954-20 20 0 11.046 8.955 20 20 20h146.076c11.045 0 20-8.954 20-20 0-11.046-8.954-20-19.999-20z"/><path d="m346.077 412.238h-90c-11.046 0-20-8.954-20-20 0-11.046 8.954-20 20-20h90c11.046 0 20 8.954 20 20 0 11.046-8.954 20-20 20z"/><path d="m446.077 412.238h-20c-11.046 0-20-8.954-20-20 0-11.046 8.954-20 20-20h20c11.046 0 20 8.954 20 20 0 11.046-8.954 20-20 20z"/></g></g></g><g><path d="m123.232 402.243h104.567c4.13 11.637 15.244 19.995 28.278 19.995h90c13.035 0 24.149-8.359 28.278-19.995h11.785c3.827 0 7.614-.319 11.343-.93 3.855 12.119 15.214 20.925 28.594 20.925h20c16.542 0 30-13.458 30-30 0-15.504-11.823-28.299-26.926-29.843 4.405-9.273 6.75-19.469 6.75-29.912 0-35.181-26.183-64.361-60.09-69.082-.802-11.332-3.097-22.405-6.807-33.097 24.981-17.493 40.189-46.293 40.189-77.082 0-51.844-42.174-94.022-94.012-94.022-49.306 0-89.867 38.152-93.72 86.484-36.678 7.204-68.292 29.842-87.012 62.301-10.03-3.322-20.495-5.002-31.22-5.002-54.937 0-99.631 44.693-99.631 99.63.003 54.936 44.697 99.63 99.634 99.63zm222.845-.005h-90c-5.5 0-9.975-4.464-9.998-9.959 0-.012.002-.024.002-.036 0-.014-.002-.027-.002-.041.02-5.497 4.497-9.964 9.998-9.964h90c5.514 0 10 4.486 10 10s-4.486 10-10 10zm110-10c0 5.514-4.486 10-10 10h-20c-5.514 0-10-4.486-10-10 0-.644.067-1.272.184-1.883.01-.062.025-.122.034-.184.955-4.525 4.977-7.933 9.783-7.933h20c5.513 0 9.999 4.486 9.999 10zm-120.894-313.038c40.811 0 74.012 33.206 74.012 74.022 0 22.855-10.65 44.318-28.355 58.245-11.108-20.848-28.446-38.678-49.822-50.951-21.405-12.289-45.559-18.273-69.162-17.306 4.905-36.095 35.907-64.01 73.327-64.01zm-211.951 143.783c11.083 0 21.81 2.24 31.883 6.658.014.006.028.01.043.016 20.101 8.826 35.819 25.738 43.124 46.406 1.451 4.105 5.31 6.67 9.429 6.67 1.105 0 2.23-.186 3.333-.574 5.207-1.841 7.936-7.555 6.096-12.762-7.938-22.456-23.813-41.362-44.318-53.179 17.184-28.556 46.304-47.777 79.63-52.078.052-.007.104-.014.155-.021 47.391-6.876 96.79 21.459 114.903 65.907.002.005.004.01.006.015.044.107.084.215.132.322 4.446 10.601 7.157 21.715 8.105 33.147-9.755 1.461-19.095 4.968-27.441 10.365-4.638 2.999-5.967 9.189-2.968 13.827 1.914 2.96 5.127 4.571 8.407 4.571 1.859 0 3.742-.518 5.42-1.603 8.027-5.19 17.347-7.934 26.956-7.937.005 0 .009.001.014.001 27.439 0 49.761 22.317 49.761 49.75 0 10.774-3.487 21.186-9.888 29.756-12.434.026-23.114 7.656-27.633 18.478-3.973 1.008-8.071 1.526-12.24 1.526h-11.782c-4.127-11.642-15.243-20.005-28.281-20.005h-90c-13.038 0-24.155 8.363-28.282 20.005h-104.564c-43.908 0-79.631-35.722-79.631-79.63 0-43.909 35.723-79.631 79.631-79.631z"/><path d="m291.215 36c1.257 4.391 5.26 7.251 9.609 7.251.911 0 1.838-.126 2.757-.389 5.31-1.521 8.382-7.057 6.862-12.366l-6.654-23.245c-1.521-5.311-7.063-8.381-12.366-6.862-5.31 1.521-8.382 7.057-6.862 12.366z"/><path d="m200.064 89.684 21.176 11.749c1.537.852 3.201 1.258 4.843 1.258 3.516 0 6.927-1.858 8.753-5.15 2.68-4.829.936-10.916-3.893-13.596l-21.176-11.749c-4.829-2.678-10.917-.937-13.596 3.893-2.68 4.829-.936 10.916 3.893 13.595z"/><path d="m439.422 222.499 21.176 11.75c1.537.853 3.201 1.258 4.843 1.258 3.516 0 6.926-1.858 8.753-5.15 2.68-4.829.937-10.916-3.893-13.596l-21.176-11.75c-4.829-2.678-10.915-.936-13.596 3.893-2.679 4.828-.936 10.915 3.893 13.595z"/><path d="m455.153 128.882c.911 0 1.838-.126 2.757-.389l23.244-6.654c5.31-1.521 8.382-7.057 6.862-12.366-1.521-5.31-7.061-8.38-12.366-6.862l-23.244 6.654c-5.31 1.52-8.382 7.057-6.862 12.366 1.256 4.391 5.259 7.251 9.609 7.251z"/><path d="m390.864 52.876c1.537.853 3.201 1.258 4.843 1.258 3.516 0 6.927-1.858 8.753-5.15l11.75-21.177c2.68-4.829.937-10.916-3.893-13.596-4.828-2.679-10.917-.936-13.596 3.893l-11.75 21.177c-2.68 4.828-.937 10.915 3.893 13.595z"/><path d="m482.001 452.003h-5.924c-5.523 0-10 4.478-10 10 0 5.523 4.477 10 10 10h5.924c5.514 0 10 4.486 10 10s-4.486 10-10 10h-146.076c-5.514 0-10-4.486-10-10s4.486-10 10-10h60.152c5.522 0 10-4.477 10-10 0-5.522-4.478-10-10-10h-60.152c-16.542 0-30 13.458-30 30s13.458 30 30 30h146.076c16.542 0 30-13.458 30-30s-13.458-30-30-30z"/><circle cx="436.077" cy="462.003" r="10"/><path d="m255.925 452.003h-51.562c1.109-3.129 1.714-6.495 1.714-10 0-16.542-13.458-30-30-30h-146.076c-16.542 0-30 13.458-30 30s13.458 30 30 30h51.562c-1.109 3.129-1.714 6.495-1.714 10 0 16.542 13.458 30 30 30h146.076c16.542 0 30-13.458 30-30s-13.458-30-30-30zm0 40h-146.076c-5.514 0-10-4.486-10-10s4.486-10 10-10c5.522 0 10-4.477 10-10 0-5.522-4.478-10-10-10h-79.848c-5.514 0-10-4.486-10-10s4.486-10 10-10h146.076c5.514 0 10 4.486 10 10s-4.486 10-10 10c-5.522 0-10 4.478-10 10 0 5.523 4.478 10 10 10h79.848c5.514 0 10 4.486 10 10 0 5.513-4.486 10-10 10z"/></g></g></svg>