<svg height="512" viewBox="0 0 512 512" width="512" xmlns="http://www.w3.org/2000/svg"><g id="filled_outline" data-name="filled outline"><path d="m440 496a8 8 0 0 1 -8-8v-48a8 8 0 0 1 16 0v48a8 8 0 0 1 -8 8z" fill="#5f4623"/><path d="m312 496a8 8 0 0 1 -8-8v-48a8 8 0 0 1 16 0v48a8 8 0 0 1 -8 8z" fill="#5f4623"/><circle cx="256" cy="88" fill="#fbb540" r="64"/><rect fill="#029532" height="248" rx="48" width="96" x="264" y="192"/><rect fill="#027e2a" height="200" rx="48" width="96" x="392" y="240"/><path d="m128 496a8 8 0 0 1 -8-8v-48a8 8 0 0 1 16 0v48a8 8 0 0 1 -8 8z" fill="#5f4623"/><path d="m120 152-56 184h24l-48 104h160l-48-104h24z" fill="#029532"/><path d="m432 368h-129.371a23.949 23.949 0 0 0 1.371-8 24 24 0 0 0 -24-24h56a16 16 0 0 0 16-16 16 16 0 0 0 -16-16h72a16 16 0 0 0 16-16 16 16 0 0 0 -16-16h-176a16 16 0 0 0 -16 16 16 16 0 0 0 16 16h-72a16 16 0 0 0 -16 16 16 16 0 0 0 16 16h-56a24 24 0 0 0 -24 24 23.949 23.949 0 0 0 1.371 8h-37.371a20 20 0 0 0 -20 20 20 20 0 0 0 20 20h136a20 20 0 0 0 20-20 20.04 20.04 0 0 0 -.4-4h56.4a16 16 0 0 0 16 16h160a16 16 0 0 0 16-16 16 16 0 0 0 -16-16z" fill="#eaeae8"/><path d="m48 272h88a16 16 0 0 0 16-16 15.9 15.9 0 0 0 -2.158-8h46.158a20 20 0 0 0 20-20 20 20 0 0 0 -20-20h-112a20 20 0 0 0 -20 20 19.885 19.885 0 0 0 4.027 12h-20.027a16 16 0 0 0 -16 16 16 16 0 0 0 16 16z" fill="#eaeae8"/><path d="m488 496h-464a8 8 0 0 1 0-16h464a8 8 0 0 1 0 16z" fill="#027e2a"/><g fill="#eaeae8"><path d="m400 64h-96a16 16 0 0 0 -16 16 16 16 0 0 0 16 16h-32a16 16 0 0 0 -16 16 16 16 0 0 0 16 16h72a16 16 0 0 0 16-16 16 16 0 0 0 -16-16h56a16 16 0 0 0 16-16 16 16 0 0 0 -16-16z"/><rect height="32" rx="16" width="112" x="112" y="72"/><path d="m464 144h-48a16 16 0 0 0 -16 16 15.9 15.9 0 0 0 2.158 8h-10.158a16 16 0 0 0 -16 16 16 16 0 0 0 16 16h48a16 16 0 0 0 16-16 15.9 15.9 0 0 0 -2.158-8h10.158a16 16 0 0 0 16-16 16 16 0 0 0 -16-16z"/></g><path d="m496 392v-104a56 56 0 0 0 -106.6-24h-21.4v-24a56 56 0 0 0 -112 0v24h-24a24 24 0 0 0 -22.629 32h-37.183l-12.174-40h35.986a28 28 0 0 0 0-56h-53.029l-15.318-50.329a8 8 0 0 0 -15.306 0l-15.318 50.329h-13.029a28.021 28.021 0 0 0 -27.716 32h-8.284a24 24 0 0 0 0 48h24.682l-16.335 53.671a8 8 0 0 0 7.653 10.329h11.5l-7.385 16h-24.115a28 28 0 0 0 -1.708 55.943l-9.556 20.7a8 8 0 0 0 7.264 11.357h80v32h-96a8 8 0 0 0 0 16h464a8 8 0 0 0 0-16h-40v-32.581a56.078 56.078 0 0 0 48-55.419zm-56-144a40.045 40.045 0 0 1 40 40v104a40.016 40.016 0 0 1 -76.687 16h28.687a24 24 0 0 0 0-48h-32v-48h8a24 24 0 0 0 0-48 40.092 40.092 0 0 1 32-16zm-72 112v-48h16v48zm-16 0h-40a31.8 31.8 0 0 0 -4.3-16h28.3a23.9 23.9 0 0 0 16-6.131zm-80-120a40 40 0 0 1 80 0v24h-80zm-152-60.524 6.247 20.524h-12.494zm-80 76.524a8.009 8.009 0 0 1 8-8h20.027a8 8 0 0 0 6.392-12.811 11.878 11.878 0 0 1 -2.419-7.189 12.013 12.013 0 0 1 12-12h112a12 12 0 0 1 0 24h-46.158a8 8 0 0 0 -6.922 12.012 7.85 7.85 0 0 1 1.08 3.988 8.009 8.009 0 0 1 -8 8h-88a8.009 8.009 0 0 1 -8-8zm34.8 72 14.609-48h46.591a23.854 23.854 0 0 0 13.355-4.07l6.235 20.483a24 24 0 0 0 -18.219 31.587h-33.371a31.841 31.841 0 0 0 -10.85 1.9 7.988 7.988 0 0 0 -5.15-1.9zm-42.8 60a12.013 12.013 0 0 1 12-12h29.189.037.027 8.118a8 8 0 0 0 7.543-10.667 16 16 0 0 1 15.086-21.333h56a8 8 0 0 0 0-16 8 8 0 0 1 0-16h72a8 8 0 0 0 0-16 8 8 0 0 1 0-16h176a8 8 0 0 1 0 16h-72a8 8 0 0 0 0 16 8 8 0 0 1 0 16h-56a8 8 0 0 0 0 16 16 16 0 0 1 15.086 21.333 8 8 0 0 0 7.543 10.667h129.371a8 8 0 0 1 0 16h-160a8.009 8.009 0 0 1 -8-8 8 8 0 0 0 -8-8h-56.4a8 8 0 0 0 -7.84 9.593 12.013 12.013 0 0 1 -11.76 14.407h-136a12.013 12.013 0 0 1 -12-12zm280 44a40.244 40.244 0 0 1 -36.658-24h73.345a39.858 39.858 0 0 1 -36.687 24zm-252.112-16h120.112.111l7.386 16h-134.997zm76.112 32h64a8 8 0 0 0 7.264-11.353l-11.712-25.375a28.043 28.043 0 0 0 12.163-19.272h41.656a24.082 24.082 0 0 0 7.662 10.729 56.326 56.326 0 0 0 46.967 44.685v32.586h-168zm184 32v-32.57a55.74 55.74 0 0 0 45.676-39.43h20.648a55.74 55.74 0 0 0 45.676 39.43v32.57z"/><path d="m128 112h60.1a72.016 72.016 0 0 0 121.566 24h34.334a24 24 0 0 0 22.629-32h33.371a24 24 0 0 0 0-48h-79.5a72.017 72.017 0 0 0 -132.4 8h-60.1a24 24 0 0 0 0 48zm280-32a8.009 8.009 0 0 1 -8 8h-56a8 8 0 0 0 0 16 8 8 0 0 1 0 16h-72a8 8 0 0 1 0-16h32a8 8 0 0 0 0-16 8 8 0 0 1 0-16h96a8.009 8.009 0 0 1 8 8zm-152-48a55.91 55.91 0 0 1 46.031 24.087 24 24 0 0 0 -20.66 31.913h-9.371a24 24 0 0 0 0 48h12.853a56.027 56.027 0 0 1 -79.465-24h2.612a24 24 0 0 0 0-48h-2.612a55.983 55.983 0 0 1 50.612-32zm-128 48h80a8 8 0 0 1 0 16h-80a8 8 0 0 1 0-16z"/><path d="m392 160a24 24 0 0 0 0 48h48a24.028 24.028 0 0 0 24-24 24 24 0 0 0 0-48h-48a24.028 24.028 0 0 0 -24 24zm80 0a8.009 8.009 0 0 1 -8 8h-10.158a8 8 0 0 0 -6.922 12.012 7.85 7.85 0 0 1 1.08 3.988 8.009 8.009 0 0 1 -8 8h-48a8 8 0 0 1 0-16h10.158a8 8 0 0 0 6.921-12.012 7.859 7.859 0 0 1 -1.079-3.988 8.009 8.009 0 0 1 8-8h48a8.009 8.009 0 0 1 8 8z"/></g></svg>