<?xml version="1.0"?>
<svg xmlns="http://www.w3.org/2000/svg" viewBox="0 0 64 64" width="512" height="512"><g id="flat"><path d="M3,27s12-8,29-4,29-2,29-2-1.51,18.5-28,9C27.1,27.883,22,25,3,27Z" style="fill:#92cdde"/><path d="M9,32s11-4,24,3c8.805,4.741,22,1,22,1S42,49,28,39C24.087,36.205,18,32,9,32Z" style="fill:#92cdde"/><path d="M45.75,20.749a26.97,26.97,0,0,1-5.975-.774,65.376,65.376,0,0,0-23.6-.991l-.358-1.967a66.151,66.151,0,0,1,24.4,1.008c6.2,1.431,9.079.471,10.407-.584A3.48,3.48,0,0,0,52,15a1,1,0,0,1,.02-.2,3.563,3.563,0,0,0-.61-2.631A4.246,4.246,0,0,0,48,11c-4.781,0-4.992,2.7-5,3.013L41,14c0-.05.08-5,7-5,2.253,0,3.924.645,4.966,1.916A5.524,5.524,0,0,1,54,15.106a5.519,5.519,0,0,1-2.119,3.9A9.626,9.626,0,0,1,45.75,20.749Z" style="fill:#418abd"/><path d="M50,57c-6.92,0-7-4.95-7-5h2c.008.3.219,3,5,3a3.961,3.961,0,0,0,3.18-1.178,5.181,5.181,0,0,0,.834-3.658A1,1,0,0,1,54,50a2.473,2.473,0,0,0-1.056-1.7c-1.283-.981-4.182-1.832-10.719-.323-13.417,3.091-24.5-8.791-24.962-9.3l1.473-1.352c.107.115,10.766,11.537,23.039,8.7,5.927-1.368,10.122-1.117,12.467.749A4.4,4.4,0,0,1,56,49.908a7.063,7.063,0,0,1-1.291,5.207A5.849,5.849,0,0,1,50,57Z" style="fill:#418abd"/><path d="M33,52c-7.292,0-15.32-6.951-15.658-7.247l1.316-1.506C18.735,43.314,26.463,50,33,50Z" style="fill:#418abd"/><path d="M9.511,17.859,8.485,16.143C8.7,16.015,13.862,13,26,13v2C14.5,15,9.56,17.831,9.511,17.859Z" style="fill:#418abd"/><rect x="28" y="13" width="2" height="2" style="fill:#418abd"/><rect x="11" y="37" width="2" height="2" style="fill:#92cdde"/><rect x="11" y="41" width="2" height="2" style="fill:#92cdde"/><rect x="9" y="39" width="2" height="2" style="fill:#92cdde"/><rect x="13" y="39" width="2" height="2" style="fill:#92cdde"/><rect x="36" y="53" width="2" height="2" style="fill:#92cdde"/><rect x="36" y="57" width="2" height="2" style="fill:#92cdde"/><rect x="34" y="55" width="2" height="2" style="fill:#92cdde"/><rect x="38" y="55" width="2" height="2" style="fill:#92cdde"/><rect x="35" y="7" width="2" height="2" style="fill:#92cdde"/><rect x="35" y="11" width="2" height="2" style="fill:#92cdde"/><rect x="33" y="9" width="2" height="2" style="fill:#92cdde"/><rect x="37" y="9" width="2" height="2" style="fill:#92cdde"/><rect x="8" y="7" width="2" height="2" style="fill:#92cdde"/><rect x="8" y="11" width="2" height="2" style="fill:#92cdde"/><rect x="6" y="9" width="2" height="2" style="fill:#92cdde"/><rect x="10" y="9" width="2" height="2" style="fill:#92cdde"/><path d="M46.406,29.605a26.782,26.782,0,0,1-5.616-.627l.42-1.956c13.118,2.809,17.869-5.423,17.916-5.507l1.748.97C60.828,22.568,56.779,29.605,46.406,29.605Z" style="fill:#418abd"/></g></svg>
