<svg id="Capa_1" enable-background="new 0 0 512 512" height="512" viewBox="0 0 512 512" width="512" xmlns="http://www.w3.org/2000/svg"><g id="XMLID_998_"><path id="XMLID_235_" d="m344.281 118.643c-9.447-5.54-19.807-8.128-30.017-8.062-4.298-56.265-51.313-100.581-108.679-100.581-53.668 0-98.276 38.788-107.323 89.859-6.956-2.492-14.449-3.859-22.263-3.859-36.45 0-65.999 29.549-65.999 65.999 0 35.016 27.274 63.647 61.735 65.847l.013.152h6.24 206.058 28.211v-.043c20.938.812 41.633-9.632 52.973-28.971 16.4-27.97 7.021-63.94-20.949-80.341z" fill="#8aa8bd"/><path id="XMLID_1600_" d="m453.187 191.161c-.575-62.768-51.627-113.476-114.531-113.476-43.231 0-80.863 23.953-100.362 59.307-20.736-22.916-55.283-29.209-83.236-13.265-22.729 12.965-35.013 37.169-33.888 61.629-36.819 10.458-63.79 44.322-63.79 84.493 0 48.51 39.325 87.835 87.835 87.835 26.986 0 51.125-12.174 67.238-31.325 16.112 19.151 40.252 31.325 67.238 31.325s51.125-12.174 67.238-31.325c16.112 19.151 40.252 31.325 67.238 31.325 48.51 0 87.835-39.325 87.835-87.835-.002-34.488-19.891-64.317-48.815-78.688z" fill="#c5d3de"/><path id="XMLID_237_" d="m264.127 226.994h-77.698l-42.762 88.006h45.333l-27.5 83.333 101.159-109.007-31.992 1.769z" fill="#ffa96b"/><g id="XMLID_272_"><path id="XMLID_1050_" d="m512 269.85c0-35.369-18.627-67.322-49.011-84.78-.76-13.451-3.662-26.559-8.651-39.043-2.05-5.129-7.867-7.624-12.998-5.574-5.128 2.05-7.624 7.869-5.574 12.997 4.805 12.021 7.302 24.74 7.421 37.803.035 3.764 2.18 7.189 5.551 8.864 26.685 13.258 43.262 39.979 43.262 69.733 0 42.918-34.917 77.835-77.835 77.835-23.022 0-44.741-10.119-59.587-27.763-1.899-2.258-4.7-3.562-7.651-3.562s-5.752 1.304-7.652 3.562c-14.844 17.644-36.562 27.763-59.585 27.763-16.058 0-31.542-4.929-44.539-14.016l34.838-37.541c2.773-2.989 3.455-7.362 1.722-11.052-1.734-3.691-5.573-5.968-9.604-5.735l-14.441.799 25.326-48.519c1.618-3.1 1.499-6.82-.313-9.811-1.813-2.99-5.055-4.817-8.552-4.817h-77.698c-3.829 0-7.321 2.186-8.994 5.63l-42.762 88.006c-1.506 3.099-1.311 6.755.518 9.676 1.828 2.92 5.031 4.694 8.477 4.694h31.503l-6.271 19.005c-7.625 2.436-15.57 3.681-23.685 3.681-42.918 0-77.835-34.917-77.835-77.835 0-34.632 23.243-65.421 56.522-74.874 4.465-1.269 7.471-5.442 7.257-10.079-.996-21.652 10.061-41.763 28.854-52.483 23.18-13.223 52.982-8.474 70.866 11.288 2.168 2.396 5.356 3.599 8.57 3.224 3.209-.373 6.041-2.274 7.602-5.104 18.417-33.393 53.519-54.137 91.605-54.137 14.129 0 27.828 2.767 40.718 8.225 5.091 2.155 10.954-.224 13.108-5.31 2.153-5.086-.225-10.954-5.31-13.107-15.371-6.508-31.694-9.808-48.517-9.808-8.338 0-16.552.848-24.549 2.457-19.07-42.28-61.648-70.142-108.521-70.142-54.137 0-100.785 36.177-114.775 87.449-4.858-.964-9.81-1.449-14.811-1.449-41.906 0-75.999 34.093-75.999 76 0 33.855 22.484 63.189 53.977 72.72-4.265 11.002-6.598 22.872-6.598 35.131 0 53.946 43.889 97.835 97.835 97.835 5.512 0 10.961-.475 16.324-1.377l-9.534 28.892c-1.474 4.465.362 9.354 4.411 11.745 1.584.936 3.339 1.39 5.081 1.39 2.71 0 5.387-1.1 7.334-3.198l52.614-56.696c16.787 12.462 37.123 19.245 58.246 19.245 25.199 0 49.151-9.641 67.237-26.77 18.087 17.129 42.04 26.77 67.238 26.77 53.946-.002 97.835-43.891 97.835-97.837zm-492-107.85c0-30.878 25.121-56 55.999-56 6.473 0 12.828 1.101 18.891 3.273 2.771.993 5.842.714 8.392-.764 2.548-1.479 4.314-4.005 4.828-6.906 8.375-47.284 49.369-81.603 97.475-81.603 38.02 0 72.636 22.036 89.052 55.734-23.426 8.86-43.915 24.679-58.446 45.687-10.168-7.971-22.301-13.36-35.171-15.498-17.444-2.897-35.529.342-50.918 9.119-23.103 13.178-37.538 36.867-38.9 63.061-19.992 7.42-36.633 21.127-47.907 38.427-25.034-5.803-43.295-28.333-43.295-54.53zm178.496 156.134c1.006-3.047.488-6.393-1.393-8.993-1.879-2.601-4.894-4.141-8.103-4.141h-29.356l33.044-68.006h54.939l-25.825 49.474c-1.663 3.188-1.488 7.022.46 10.044 1.948 3.023 5.394 4.772 8.957 4.568l7.263-.402-53.111 57.233z"/><path id="XMLID_1055_" d="m120.911 394.429c-3.906-3.905-10.236-3.905-14.143 0l-31 31c-3.905 3.905-3.905 10.237 0 14.143 1.953 1.953 4.512 2.929 7.071 2.929s5.118-.976 7.071-2.929l31-31c3.906-3.906 3.906-10.238.001-14.143z"/><path id="XMLID_1056_" d="m241.811 394.429c-3.906-3.905-10.236-3.905-14.143 0l-31 31c-3.905 3.905-3.905 10.237 0 14.143 1.953 1.953 4.512 2.929 7.071 2.929s5.118-.976 7.071-2.929l31-31c3.906-3.906 3.906-10.238.001-14.143z"/><path id="XMLID_1057_" d="m362.711 394.429c-3.906-3.905-10.236-3.905-14.143 0l-31 31c-3.905 3.905-3.905 10.237 0 14.143 1.953 1.953 4.512 2.929 7.071 2.929s5.118-.976 7.071-2.929l31-31c3.906-3.906 3.906-10.238.001-14.143z"/><path id="XMLID_1059_" d="m469.468 394.429-31 31c-3.905 3.905-3.905 10.237 0 14.143 1.953 1.953 4.512 2.929 7.071 2.929s5.118-.976 7.071-2.929l31-31c3.905-3.905 3.905-10.237 0-14.143-3.906-3.906-10.236-3.906-14.142 0z"/><path id="XMLID_1147_" d="m137.769 463.929-31 31c-3.905 3.905-3.905 10.237 0 14.143 1.953 1.953 4.512 2.929 7.071 2.929s5.118-.976 7.071-2.929l31-31c3.905-3.905 3.905-10.237 0-14.143-3.906-3.906-10.236-3.906-14.142 0z"/><path id="XMLID_1150_" d="m258.668 463.929-31 31c-3.905 3.905-3.905 10.237 0 14.143 1.953 1.953 4.512 2.929 7.071 2.929s5.118-.976 7.071-2.929l31-31c3.905-3.905 3.905-10.237 0-14.143-3.906-3.906-10.236-3.906-14.142 0z"/><path id="XMLID_1151_" d="m379.568 463.929-31 31c-3.905 3.905-3.905 10.237 0 14.143 1.953 1.953 4.512 2.929 7.071 2.929s5.118-.976 7.071-2.929l31-31c3.905-3.905 3.905-10.237 0-14.143s-10.235-3.906-14.142 0z"/><path id="XMLID_1152_" d="m420.45 122.06c2.63 0 5.21-1.07 7.069-2.93 1.86-1.86 2.931-4.44 2.931-7.07s-1.07-5.21-2.931-7.07c-1.859-1.87-4.439-2.93-7.069-2.93-2.631 0-5.21 1.06-7.07 2.93-1.86 1.86-2.93 4.43-2.93 7.07 0 2.63 1.069 5.21 2.93 7.07s4.439 2.93 7.07 2.93z"/></g></g></svg>