<?xml version="1.0" encoding="iso-8859-1"?>
<!-- Generator: Adobe Illustrator 19.0.0, SVG Export Plug-In . SVG Version: 6.00 Build 0)  -->
<svg version="1.1" id="Capa_1" xmlns="http://www.w3.org/2000/svg" xmlns:xlink="http://www.w3.org/1999/xlink" x="0px" y="0px"
	 viewBox="0 0 512.002 512.002" style="enable-background:new 0 0 512.002 512.002;" xml:space="preserve">
<path style="fill:#CF8BFC;" d="M503.23,227.856c0,62.652-49.74,112.342-120.798,112.342s-131.964,0-109.632,71.291
	s-71.058,92.903-71.058,92.903c2.832-7.826,4.69-15.389,5.614-22.627c0.142-1.015,0.254-2.01,0.345-3.005c0-0.02,0-0.041,0.01-0.061
	c4.04-43.132-25.449-73.687-79.057-73.687c-81.929,0-97.45-92.903-24.363-123.143c43.294-17.927,98.455-8.547,139.181-12.313
	c4.365-0.396,8.557-0.954,12.557-1.705c0.091-0.01,0.183-0.02,0.264-0.041c1.898-0.365,3.746-0.772,5.542-1.228
	c18.688-4.751,32.189-14.953,36.635-36.564c12.222-59.445-75.605-46.999-100.455-42.35c-0.091,0.01-0.173,0.03-0.244,0.051
	c-2.355,0.436-4.121,0.812-5.147,1.036c-0.061,0.02-0.132,0.03-0.193,0.041c-0.183,0.03-0.345,0.071-0.467,0.102
	c-0.244,0.051-0.376,0.081-0.376,0.081c-0.599,0.112-1.188,0.213-1.797,0.315C-26.646,227.004-24.373,73.266,68.763,26.947
	c10.182-5.065,20.749-8.963,31.478-11.887c87.665-23.936,186.77,16.993,186.77,16.993s-126.96-2.375-142.836,57.546
	c-12.466,47.04,75.839,23.764,157.047,23.764C453.489,113.362,503.23,165.204,503.23,227.856z"/>
<g>
	<path style="fill:#9966CC;" d="M356.333,208.813c-10.415,32.291-45,46.634-94.496,57.77c18.688-4.751,32.189-14.953,36.635-36.564
		c12.222-59.445-75.605-46.999-100.455-42.35C229.973,181.374,369.834,156.626,356.333,208.813z"/>
	<path style="fill:#9966CC;" d="M207.711,478.7c4.04-43.132-25.449-73.687-79.057-73.687c-81.929,0-97.45-92.903-24.363-123.143
		c43.294-17.927,98.455-8.547,139.181-12.313l0.183,0.873c-172.568,18.993-90.345,110.951-66.49,126.685
		C200.514,412.515,212.675,432.288,207.711,478.7z"/>
	<path style="fill:#9966CC;" d="M189.795,189.293C-26.646,227.004-24.373,73.266,68.764,26.947
		c10.182-5.065,20.749-8.963,31.478-11.887C-7.684,89.689,116.738,200.885,189.795,189.293z"/>
</g>
<g>
	<path style="fill:#F9D366;" d="M460.921,95.031l18.124-3.675c8.556-1.735,8.556-13.963,0-15.698l-18.124-3.675
		c-17.86-3.621-31.819-17.58-35.439-35.439l-3.675-18.124c-1.735-8.556-13.963-8.556-15.698,0l-3.675,18.124
		c-3.621,17.86-17.58,31.819-35.439,35.439l-18.124,3.675c-8.556,1.735-8.556,13.963,0,15.698l18.124,3.675
		c17.86,3.621,31.819,17.58,35.439,35.439l3.675,18.124c1.735,8.556,13.963,8.556,15.698,0l3.675-18.124
		C429.102,112.61,443.061,98.652,460.921,95.031z"/>
	<path style="fill:#F9D366;" d="M233.505,321.49l18.124-3.675c8.556-1.735,8.556-13.963,0-15.698l-18.124-3.675
		c-17.86-3.621-31.819-17.58-35.439-35.439l-3.675-18.124c-1.735-8.556-13.963-8.556-15.698,0l-3.675,18.124
		c-3.621,17.86-17.58,31.819-35.439,35.439l-18.124,3.675c-8.556,1.735-8.556,13.963,0,15.698l18.124,3.675
		c17.86,3.621,31.819,17.58,35.439,35.439l3.675,18.124c1.735,8.556,13.963,8.556,15.698,0l3.675-18.124
		C201.686,339.07,215.645,325.111,233.505,321.49z"/>
</g>
<g>
	<path style="fill:#9966CC;" d="M256.031,267.852c0.091-0.01,0.183-0.02,0.264-0.041c-0.081,0.01-0.173,0.03-0.254,0.051
		L256.031,267.852z"/>
	<path style="fill:#9966CC;" d="M375.62,292.052c43.65-5.076,73.088-48.725,73.088-80.194c0,0,15.734,36.036-13.196,64.967
		S375.62,292.052,375.62,292.052z"/>
</g>
<path d="M387.802,387.463c-4.206,0-7.613,3.409-7.613,7.613v20.175c0,4.205,3.408,7.613,7.613,7.613s7.613-3.409,7.613-7.613
	v-20.175C395.415,390.872,392.006,387.463,387.802,387.463z"/>
<path d="M387.802,441.78c-4.206,0-7.613,3.409-7.613,7.613v20.175c0,4.205,3.408,7.613,7.613,7.613s7.613-3.409,7.613-7.613v-20.175
	C395.415,445.189,392.006,441.78,387.802,441.78z"/>
<path d="M425.047,424.709h-20.175c-4.206,0-7.613,3.409-7.613,7.613c0,4.205,3.408,7.613,7.613,7.613h20.175
	c4.206,0,7.613-3.409,7.613-7.613C432.66,428.118,429.253,424.709,425.047,424.709z"/>
<path d="M370.73,424.709h-20.174c-4.206,0-7.613,3.409-7.613,7.613c0,4.205,3.408,7.613,7.613,7.613h20.174
	c4.206,0,7.613-3.409,7.613-7.613C378.343,428.118,374.935,424.709,370.73,424.709z"/>
<path d="M192.927,196.468c0.127-0.022,0.256-0.049,0.382-0.078c19.321-4.467,73.549-12.074,92.205,6.132
	c6.073,5.926,7.872,14.42,5.499,25.964c-4.92,23.933-22.021,33.24-63.097,34.335c-4.204,0.113-7.52,3.611-7.407,7.814
	c0.111,4.134,3.496,7.41,7.607,7.41c0.069,0,0.138-0.001,0.207-0.002c12.292-0.328,24.398-1.297,35.314-4.047
	c47.025-10.449,92.13-24.682,100.153-63.648c0.849-4.118-1.803-8.144-5.921-8.992c-4.117-0.85-8.143,1.803-8.992,5.921
	c-2.835,13.768-12.084,24.246-29.11,32.976c-5.973,3.063-12.732,5.778-19.897,8.223c2.654-4.824,4.721-10.411,6.06-16.924
	c3.452-16.799,0.159-30.236-9.79-39.937C283.87,179.65,262,174.393,231.15,175.993c-21.041,1.09-38.874,5.018-41.075,5.518
	c-24.308,4.321-45.164,6.146-63.085,6.145c-72.656-0.004-96.784-30.019-104.334-45.304c-6.846-13.86-8.104-29.957-3.637-46.548
	c4.418-16.41,14.406-32.364,28.127-44.922c3.101-2.838,3.314-7.655,0.475-10.756s-7.656-3.314-10.756-0.475
	C21.036,54.138,9.476,72.674,4.315,91.845c-5.443,20.222-3.823,40.018,4.689,57.249c10.678,21.62,31.562,37.588,60.393,46.18
	C101.733,204.912,143.295,205.312,192.927,196.468z"/>
<path d="M72.154,33.762C118.472,10.726,173.4,13.313,211.322,19.537c12.569,2.064,24.157,4.652,34.219,7.266
	c-40.575,4.769-97.628,18.96-108.725,60.844c-1.47,5.55-1.799,10.575-1.014,15.055c-13.555-6.005-24.617-17.444-24.617-40.064
	c0-4.205-3.409-7.613-7.613-7.613s-7.613,3.409-7.613,7.613c0,44.766,34.565,58.108,63.654,61.403
	c7.976,1.956,17.635,2.686,28.64,2.686c14.4,0,31.094-1.244,49.287-2.598c20.833-1.551,42.377-3.156,63.684-3.156
	c23.548,0,45.345,1.276,64.782,3.793c4.155,0.533,7.987-2.403,8.527-6.573c0.54-4.17-2.402-7.988-6.573-8.528
	c-20.083-2.601-42.537-3.919-66.737-3.919c-21.874,0-43.704,1.626-64.816,3.198c-28.221,2.101-57.16,4.25-73.166,0.4
	c-0.447-0.161-0.913-0.28-1.397-0.356c-4.232-1.17-7.444-2.815-9.318-5.072c-0.801-0.964-3.237-3.898-0.993-12.37
	c7.187-27.126,42.741-39.815,71.303-45.683c32.533-6.683,63.731-6.197,64.032-6.196c3.642,0.066,6.851-2.476,7.596-6.061
	c0.745-3.583-1.164-7.191-4.548-8.588c-1.307-0.54-32.517-13.304-75.769-20.448c-40.237-6.643-98.712-9.339-148.775,15.561
	c-3.765,1.873-5.299,6.443-3.426,10.207C63.819,34.101,68.39,35.635,72.154,33.762z"/>
<path d="M497.442,175.676c-9.686-16.583-24.623-30.442-44.396-41.192c-3.695-2.009-8.317-0.641-10.325,3.052
	c-2.009,3.694-0.643,8.317,3.052,10.325c33.071,17.98,49.841,44.895,49.841,79.999c0,39.206-20.845,73.382-55.761,91.422
	c-3.737,1.93-5.199,6.523-3.27,10.258c1.352,2.618,4.013,4.12,6.77,4.12c1.177,0,2.371-0.274,3.489-0.851
	c40.074-20.704,63.998-59.937,63.998-104.949C510.841,208.455,506.333,190.898,497.442,175.676z"/>
<path d="M293.509,357.033c0.027-0.012,0.053-0.027,0.08-0.04c19.621-9.176,53.457-9.181,88.843-9.181
	c11.77,0,23.28-1.31,34.211-3.894c4.092-0.967,6.625-5.068,5.657-9.16c-0.966-4.092-5.073-6.628-9.16-5.657
	c-9.785,2.313-20.115,3.486-30.708,3.486c-38.272,0-72.634,0.002-95.239,10.542c-24.12,8.072-52.532,25.901-60.939,52.174
	c-1.282,4.005,0.926,8.29,4.93,9.571c0.771,0.247,1.553,0.364,2.323,0.364c3.222,0,6.214-2.062,7.249-5.295
	c2.636-8.237,9.364-18.108,21.034-26.928c-2.551,11.131-1.314,24.603,3.745,40.753c4.985,15.913,3.903,30.303-3.217,42.768
	c-11.128,19.483-34.49,30.813-49.23,36.296c5.507-24.022,2.193-46.009-9.729-62.994c-14.683-20.92-41.214-32.441-74.705-32.441
	c-17.323,0-32.43-4.551-43.686-13.161c-9.898-7.572-16.651-18.287-19.013-30.171c-2.404-12.094-0.209-24.892,6.18-36.04
	c7.18-12.527,19.306-22.597,35.067-29.12c11.475-4.749,24.813-7.844,40.779-9.461c4.183-0.423,7.232-4.159,6.807-8.342
	c-0.423-4.184-4.162-7.228-8.342-6.807c-17.461,1.769-32.202,5.217-45.067,10.54c-42.572,17.617-55.968,53.978-50.359,82.198
	c3.085,15.519,11.855,29.475,24.697,39.297c13.935,10.66,32.241,16.293,52.937,16.293c28.386,0,50.491,9.22,62.241,25.962
	c11.294,16.092,12.604,38.542,3.686,63.214c-0.948,2.622-0.386,5.554,1.465,7.64c1.463,1.648,3.545,2.561,5.695,2.561
	c0.57,0,1.146-0.064,1.716-0.196c2.106-0.487,51.829-12.342,72.048-47.659c9.335-16.306,10.869-34.787,4.559-54.931
	c-6.1-19.47-5.807-33.368,0.892-42.486C283.922,362.696,288.195,359.529,293.509,357.033z"/>
<path d="M462.433,102.493l18.124-3.675c7.371-1.494,12.517-7.79,12.517-15.311c0-7.521-5.147-13.817-12.517-15.311l-18.124-3.675
	c-14.895-3.02-26.471-14.595-29.491-29.491l-3.675-18.124c-1.495-7.371-7.791-12.518-15.311-12.518s-13.815,5.148-15.31,12.518
	l-3.675,18.124c-3.02,14.895-14.595,26.471-29.491,29.49l-18.124,3.675c-7.371,1.494-12.517,7.79-12.517,15.311
	c0,7.52,5.147,13.816,12.517,15.311l18.124,3.675c14.896,3.02,26.471,14.595,29.491,29.491l3.675,18.124
	c1.495,7.371,7.791,12.517,15.31,12.517c7.52,0,13.816-5.147,15.311-12.517l3.675-18.124
	C435.962,117.089,447.539,105.513,462.433,102.493z M418.019,128.958l-3.675,18.124c-0.033,0.162-0.072,0.248-0.064,0.248
	c-0.129,0.091-0.516,0.091-0.622,0.024c-0.013-0.019-0.054-0.106-0.087-0.272l-3.675-18.124
	c-4.238-20.904-20.484-37.15-41.388-41.389l-18.124-3.675c-0.148-0.029-0.232-0.066-0.246-0.066c-0.002,0-0.002,0-0.002,0.002
	c-0.092-0.13-0.092-0.517-0.023-0.623c0.019-0.013,0.106-0.054,0.272-0.087l18.124-3.675c20.905-4.238,37.151-20.484,41.388-41.388
	l3.675-18.124c0.038-0.186,0.064-0.25,0.064-0.249c0.13-0.092,0.518-0.091,0.621-0.023c0.014,0.019,0.055,0.106,0.088,0.272
	l3.675,18.124c4.239,20.904,20.485,37.151,41.388,41.388l18.124,3.675c0.172,0.035,0.246,0.075,0.248,0.064
	c0.092,0.13,0.092,0.517,0.023,0.623c-0.019,0.013-0.106,0.054-0.272,0.087l-18.124,3.675
	C438.504,91.808,422.259,108.054,418.019,128.958z"/>
<path d="M235.018,290.982c-14.895-3.02-26.471-14.596-29.491-29.491l-3.675-18.124c-1.494-7.371-7.79-12.518-15.311-12.518
	c-7.521,0-13.817,5.148-15.311,12.518l-3.675,18.124c-3.02,14.895-14.596,26.471-29.491,29.491l-18.124,3.675
	c-7.371,1.494-12.518,7.79-12.518,15.311c0,7.52,5.148,13.816,12.518,15.311l18.124,3.675c14.895,3.02,26.471,14.596,29.491,29.491
	l3.675,18.124c1.494,7.371,7.79,12.518,15.311,12.518c7.52,0,13.816-5.148,15.311-12.518l3.675-18.124
	c3.02-14.895,14.596-26.471,29.491-29.491l18.124-3.675c7.37-1.494,12.518-7.79,12.518-15.311s-5.148-13.817-12.518-15.311
	L235.018,290.982z M250.389,310.266c-0.019,0.013-0.106,0.054-0.272,0.087l-18.124,3.675c-20.904,4.239-37.15,20.485-41.389,41.389
	l-3.675,18.124c-0.032,0.162-0.072,0.249-0.065,0.249l0,0c-0.129,0.092-0.516,0.093-0.622,0.023
	c-0.013-0.019-0.054-0.106-0.087-0.272l-3.675-18.124c-4.239-20.904-20.485-37.15-41.389-41.389l-18.124-3.675
	c-0.148-0.03-0.233-0.066-0.247-0.066c-0.002,0-0.002,0-0.002,0.001c-0.091-0.13-0.091-0.516-0.023-0.622
	c0.019-0.013,0.106-0.054,0.272-0.087l18.124-3.675c20.904-4.239,37.15-20.485,41.389-41.389l3.675-18.124
	c0.032-0.162,0.072-0.249,0.065-0.249l0,0c0.131-0.092,0.517-0.091,0.622-0.023c0.013,0.019,0.054,0.106,0.087,0.272l3.675,18.124
	c4.239,20.904,20.485,37.15,41.389,41.389l18.124,3.675c0.172,0.035,0.253,0.071,0.249,0.064
	C250.456,309.774,250.456,310.16,250.389,310.266z"/>
<g>
</g>
<g>
</g>
<g>
</g>
<g>
</g>
<g>
</g>
<g>
</g>
<g>
</g>
<g>
</g>
<g>
</g>
<g>
</g>
<g>
</g>
<g>
</g>
<g>
</g>
<g>
</g>
<g>
</g>
</svg>
