<svg id="Layer_1" enable-background="new 0 0 512 512" height="512" viewBox="0 0 512 512" width="512" xmlns="http://www.w3.org/2000/svg"><g><g><g fill="#eaf3f9"><circle cx="68.192" cy="400.506" r="15.01"/><circle cx="453.486" cy="391.109" r="15.01"/><circle cx="302.29" cy="489.49" r="15.01"/></g><circle cx="213.156" cy="431.135" fill="#d2e8f7" r="25.016"/><circle cx="342.316" cy="395.168" fill="#d2e8f7" r="25.016"/></g><g><path d="m504.5 249.05c0 32.31-20.04 65.4-48.36 79.17-8.71 4.24-18.2 6.65-28.13 6.65h-317.66c-56.8 0-102.85-46.05-102.85-102.85 0-53.53 40.9-97.5 93.15-102.39 15.51-65.27 71.23-114.96 139.57-121.41 4.98-.48 10.03-.72 15.14-.72 72.02 0 132.84 47.88 152.41 113.55 5.11-1.75 10.58-2.71 16.28-2.71 27.77 0 50.29 22.51 50.29 50.29 0 6.09-1.09 11.93-3.07 17.34 20.06 13.79 33.23 36.89 33.23 63.08z" fill="#eaf3f9"/><path d="m504.5 249.05c0 32.31-20.04 65.4-48.36 79.17 10.35-16.83 16.09-36.18 16.09-55.06 0-27.99-12.87-54.31-34.71-71.55 1.32-5.1 1.99-10.36 1.99-15.7 0-34.57-28.13-62.7-62.7-62.7-4.15 0-8.26.41-12.3 1.22-11.65-33.49-33.37-63.43-61.79-84.94-18.66-14.12-40.35-25.22-62.5-31.27 4.98-.48 10.03-.72 15.14-.72 72.02 0 132.84 47.88 152.41 113.55 5.11-1.75 10.58-2.71 16.28-2.71 27.77 0 50.29 22.51 50.29 50.29 0 6.09-1.09 11.93-3.07 17.34 20.06 13.79 33.23 36.89 33.23 63.08z" fill="#d2e8f7"/></g></g><g><path d="m131.492 66.518c3.096 2.753 7.837 2.473 10.588-.623 28.75-32.344 70.038-50.895 113.277-50.895 54.725 0 105.382 29.679 132.203 77.456 1.376 2.451 3.923 3.83 6.547 3.83 1.243 0 2.504-.31 3.665-.961 3.611-2.028 4.896-6.6 2.868-10.211-29.473-52.501-85.142-85.114-145.283-85.114-47.521 0-92.895 20.386-124.488 55.93-2.752 3.096-2.473 7.837.623 10.588z"/><path d="m480.011 183.101c1.216-4.705 1.829-9.552 1.829-14.472 0-31.866-25.926-57.792-57.792-57.792-6.375 0-12.67 1.047-18.708 3.113-3.919 1.34-6.009 5.604-4.669 9.523 1.341 3.92 5.606 6.011 9.524 4.669 4.472-1.53 9.133-2.305 13.853-2.305 23.596 0 42.792 19.196 42.792 42.792 0 5.075-.879 10.039-2.611 14.754-1.182 3.218-.032 6.827 2.793 8.769 18.771 12.898 29.978 34.167 29.978 56.895 0 12.93-3.502 26.266-10.129 38.568-1.964 3.647-.6 8.195 3.047 10.16 1.132.609 2.35.898 3.55.898 2.67 0 5.255-1.429 6.61-3.945 7.799-14.48 11.922-30.276 11.922-45.681 0-25.804-11.861-50.061-31.989-65.946z"/><path d="m467.299 311.996c-11.888 10.057-25.474 15.372-39.29 15.372h-243.478c-4.143 0-7.5 3.358-7.5 7.5s3.357 7.5 7.5 7.5h243.478c17.41 0 34.346-6.542 48.978-18.92 3.162-2.675 3.558-7.408.882-10.57s-7.408-3.557-10.57-.882z"/><path d="m152.901 334.868c0-4.142-3.357-7.5-7.5-7.5h-35.051c-52.576 0-95.35-42.773-95.35-95.349 0-49.509 37.121-90.318 86.347-94.924 3.201-.299 5.855-2.605 6.599-5.733 3.164-13.315 8.135-26.145 14.774-38.134 2.007-3.624.696-8.188-2.927-10.195-3.622-2.006-8.188-.697-10.194 2.927-6.448 11.643-11.466 24.009-14.946 36.826-25.198 3.593-48.365 15.8-65.703 34.732-18.669 20.383-28.95 46.841-28.95 74.501 0 60.847 49.503 110.349 110.35 110.349h35.052c4.142 0 7.499-3.358 7.499-7.5z"/><path d="m68.192 377.996c-12.412 0-22.51 10.098-22.51 22.51s10.098 22.51 22.51 22.51 22.51-10.098 22.51-22.51-10.098-22.51-22.51-22.51zm0 30.02c-4.141 0-7.51-3.369-7.51-7.51s3.369-7.51 7.51-7.51 7.51 3.369 7.51 7.51-3.369 7.51-7.51 7.51z"/><path d="m453.486 368.599c-12.412 0-22.51 10.098-22.51 22.51s10.098 22.51 22.51 22.51 22.51-10.098 22.51-22.51-10.098-22.51-22.51-22.51zm0 30.019c-4.141 0-7.51-3.369-7.51-7.51s3.369-7.51 7.51-7.51 7.51 3.369 7.51 7.51-3.369 7.51-7.51 7.51z"/><path d="m302.29 466.98c-12.412 0-22.51 10.098-22.51 22.51s10.098 22.51 22.51 22.51 22.51-10.098 22.51-22.51-10.098-22.51-22.51-22.51zm0 30.02c-4.141 0-7.51-3.369-7.51-7.51s3.369-7.51 7.51-7.51 7.51 3.369 7.51 7.51-3.369 7.51-7.51 7.51z"/><path d="m213.156 398.618c-17.93 0-32.517 14.587-32.517 32.517s14.587 32.516 32.517 32.516c17.929 0 32.516-14.586 32.516-32.516s-14.587-32.517-32.516-32.517zm0 50.033c-9.658 0-17.517-7.858-17.517-17.516 0-9.659 7.858-17.517 17.517-17.517s17.516 7.858 17.516 17.517c0 9.658-7.858 17.516-17.516 17.516z"/><path d="m342.315 362.652c-17.929 0-32.516 14.587-32.516 32.517 0 17.929 14.587 32.516 32.516 32.516 17.93 0 32.517-14.587 32.517-32.516 0-17.93-14.587-32.517-32.517-32.517zm0 50.033c-9.658 0-17.516-7.858-17.516-17.516 0-9.659 7.857-17.517 17.516-17.517s17.517 7.858 17.517 17.517c0 9.658-7.858 17.516-17.517 17.516z"/><path d="m132.311 205.954c4.143 0 7.5-3.358 7.5-7.5 0-20.987 17.074-38.062 38.062-38.062 4.143 0 7.5-3.358 7.5-7.5s-3.357-7.5-7.5-7.5c-29.258 0-53.062 23.804-53.062 53.062 0 4.142 3.357 7.5 7.5 7.5z"/><path d="m386.6 229.786c0 24.418-19.866 44.284-44.284 44.284-4.143 0-7.5 3.358-7.5 7.5s3.357 7.5 7.5 7.5c32.689 0 59.284-26.595 59.284-59.284 0-4.142-3.357-7.5-7.5-7.5s-7.5 3.358-7.5 7.5z"/><path d="m282.926 62.721c0 4.142 3.357 7.5 7.5 7.5 10.683 0 19.374 8.691 19.374 19.374 0 4.142 3.357 7.5 7.5 7.5s7.5-3.358 7.5-7.5c0-18.954-15.42-34.374-34.374-34.374-4.143 0-7.5 3.358-7.5 7.5z"/><path d="m148.376 370.79c-2.929 2.923-2.928 7.663 0 10.586 2.929 2.923 7.677 2.924 10.606 0s2.928-7.663 0-10.586-7.678-2.923-10.606 0z"/><path d="m119.406 457.024c-2.929 2.923-2.928 7.663 0 10.586 2.929 2.923 7.677 2.923 10.606 0s2.928-7.663 0-10.586c-2.929-2.924-7.678-2.924-10.606 0z"/><path d="m416.986 446.823c-2.929 2.923-2.928 7.663 0 10.586s7.677 2.923 10.606 0 2.928-7.663 0-10.586c-2.929-2.923-7.677-2.923-10.606 0z"/></g></svg>