<svg id="Capa_1" enable-background="new 0 0 512.013 512.013" height="512" viewBox="0 0 512.013 512.013" width="512" xmlns="http://www.w3.org/2000/svg"><g><g><path d="m297.423 140.033c-23.8 0-42.897-20.421-41.18-44.563 1.41-19.817 17.108-36.027 36.872-38.05 2.782-.285 5.513-.289 8.171-.041 3.628.338 6.974-1.954 8.161-5.398 8.925-25.883 33.482-44.481 62.397-44.481 21.694 0 40.935 10.471 52.965 26.631 3.067 4.12 7.852 6.537 12.988 6.504.104-.001.209-.001.314-.001 27.731 0 50.158 22.712 49.693 50.549-.455 27.251-23.256 48.851-50.511 48.851h-139.87z" fill="#ddeafb"/><path d="m438.111 40.633c-.105 0-.209 0-.314.001-5.136.034-9.921-2.384-12.988-6.504-12.03-16.159-31.271-26.63-52.965-26.63-3.918 0-7.751.353-11.481 1.007 16.908 2.978 31.595 12.392 41.445 25.623 3.067 4.12 7.852 6.537 12.988 6.504.104-.001.209-.001.314-.001 27.731 0 50.158 22.712 49.693 50.549-.455 27.251-23.256 48.851-50.511 48.851h23c27.255 0 50.056-21.6 50.511-48.851.465-27.837-21.961-50.549-49.692-50.549z" fill="#bed8fb"/><g><g><path d="m438.24 173.167h-.023c-1.221 0-2.271-.821-2.613-1.993-8.026-27.564-33.476-47.707-63.631-47.707-11.275 0-21.887 2.825-31.179 7.795-3.642 1.948-8.163.93-10.478-2.49-8.934-13.196-24.04-21.872-41.176-21.872-4.008 0-7.903.477-11.635 1.374-4.043.972-8.218-1.2-9.524-5.148-12.002-36.299-46.202-62.492-86.524-62.492-50.322 0-91.117 40.794-91.117 91.117 0 1.143.029 2.278.077 3.409.047 1.119-.32 2.217-1.009 3.1l-.071.091c-.863 1.106-2.17 1.758-3.571 1.835-44.09 2.402-79.009 39.258-78.247 84.123.77 45.352 38.501 81.391 83.861 81.391h345.872c36.419 0 66.776-28.971 67.249-65.387.48-37.001-29.37-67.146-66.261-67.146z" fill="#ecf4ff"/><path d="m438.24 173.167h-.023c-1.221 0-2.271-.821-2.613-1.993-8.026-27.564-33.476-47.707-63.631-47.707-11.275 0-21.887 2.825-31.179 7.795-3.642 1.948-8.163.93-10.478-2.49-8.934-13.196-24.04-21.872-41.176-21.872-4.008 0-7.903.477-11.635 1.374-4.043.972-8.218-1.2-9.524-5.148-12.002-36.299-46.202-62.492-86.524-62.492-50.322 0-91.117 40.794-91.117 91.117 0 1.143.029 2.278.077 3.409.047 1.119-.32 2.217-1.009 3.1l-.071.091c-.863 1.106-2.17 1.758-3.571 1.835-44.09 2.402-79.009 39.258-78.247 84.123.77 45.352 38.501 81.391 83.861 81.391h345.872c36.419 0 66.776-28.971 67.249-65.387.48-37.001-29.37-67.146-66.261-67.146z" fill="#ecf4ff"/><path d="m438.24 173.167h-.023c-1.22 0-2.271-.821-2.613-1.993-8.026-27.564-33.476-47.707-63.631-47.707-3.921 0-7.759.349-11.492 1.004 24.976 4.374 45.142 22.728 52.123 46.703.341 1.172 1.392 1.993 2.613 1.993h.023c36.891 0 66.741 30.145 66.261 67.146-.472 36.417-30.829 65.387-67.249 65.387h23c36.419 0 66.776-28.97 67.249-65.387.48-37.001-29.37-67.146-66.261-67.146z" fill="#ddeafb"/></g></g><path d="m229.748 272.567h64.466c5.654 0 9.646 5.539 7.858 10.903l-25.865 77.595c-1.788 5.364 2.204 10.903 7.858 10.903h16.375c6.193 0 10.196 6.547 7.373 12.059l-60.613 118.347c-2.274 4.042-8.458 1.863-7.695-2.711l14.808-84.855c.884-5.068-3.016-9.707-8.16-9.707h-38.148c-5.186 0-9.097-4.712-8.141-9.81l21.744-115.967c.733-3.918 4.154-6.757 8.14-6.757z" fill="#ffe07d"/><path d="m389.353 338.833h29.975c5.344 0 9.117 5.235 7.427 10.304l-12.064 36.192c-1.69 5.069 2.083 10.304 7.427 10.304 5.853 0 9.636 6.188 6.968 11.397l-32.328 63.121c-1.299 2.31-4.833 1.065-4.397-1.549l7.829-44.862c.836-4.789-2.85-9.174-7.712-9.174h-14.388c-4.902 0-8.598-4.454-7.694-9.271l11.264-60.076c.693-3.702 3.926-6.386 7.693-6.386z" fill="#fff0af"/><path d="m96.152 338.833h29.975c5.343 0 9.117 5.235 7.427 10.304l-12.064 36.192c-1.69 5.069 2.083 10.304 7.427 10.304 5.853 0 9.636 6.188 6.968 11.397l-32.329 63.121c-1.299 2.31-4.833 1.065-4.397-1.549l7.829-44.862c.836-4.789-2.85-9.174-7.712-9.174h-14.388c-4.902 0-8.598-4.454-7.694-9.271l11.264-60.076c.694-3.702 3.927-6.386 7.694-6.386z" fill="#fff0af"/><path d="m300.441 371.967h-16.375c-5.654 0-9.646-5.539-7.858-10.903l25.865-77.595c1.788-5.364-2.204-10.903-7.858-10.903h-23c5.654 0 9.646 5.539 7.858 10.903l-25.865 77.595c-1.788 5.364 2.204 10.903 7.858 10.903h16.375c6.193 0 10.196 6.547 7.373 12.059l-38.117 74.423-7.192 41.214c-.762 4.575 5.421 6.754 7.695 2.711l60.614-118.348c2.823-5.512-1.18-12.059-7.373-12.059z" fill="#ffd064"/></g><g><path d="m441.754 165.749c-2.254-6.581-5.392-12.694-9.252-18.227l5.738.012c31.54 0 57.2-25.66 57.2-57.2 0-31.541-25.66-57.2-57.2-57.2-1.56 0-3.136.067-4.716.2-13.518-20.684-36.655-33.334-61.551-33.334-31.954 0-59.654 20.206-69.633 49.935-1.59-.156-3.188-.234-4.788-.234-15.729 0-30.361 7.718-39.42 20.067-4.452-5.512-9.5-10.563-15.071-15.026-17.395-13.934-39.273-21.608-61.605-21.608-21.211 0-41.423 6.632-58.45 19.181-3.335 2.457-4.046 7.152-1.589 10.487 2.458 3.335 7.154 4.046 10.487 1.588 14.432-10.635 31.566-16.256 49.552-16.256 29.426 0 55.71 15.094 70.67 38.792l.926 1.512c3.392 5.635 6.149 11.735 8.173 18.217-17.757 9.918-29.286 28.845-29.286 49.947 0 4.142 3.357 7.5 7.5 7.5s7.5-3.358 7.5-7.5c0-17.244 10.503-32.541 26.052-38.995.023-.009-.023.009 0 0 5.13-2.127 10.562-3.206 16.148-3.206 16.235 0 31.217 9.494 38.167 24.186.943 1.996 2.72 3.475 4.853 4.042 2.133.566 4.409.166 6.22-1.1 9.894-6.909 21.51-10.561 33.593-10.561 26.854 0 50.264 18.141 56.927 44.116.872 3.401 3.962 5.735 7.498 5.633 0 0 1.397-.049 1.842-.049 32.404 0 58.767 26.363 58.767 58.767s-26.362 58.767-58.767 58.767-58.767-26.363-58.767-58.767c0-4.142-3.357-7.5-7.5-7.5s-7.5 3.358-7.5 7.5c0 23.962 11.491 45.284 29.244 58.767h-88.65l4.12-12.359c1.6-4.8.789-10.115-2.169-14.22-2.958-4.104-7.745-6.555-12.805-6.555h-64.466c-7.591 0-14.114 5.415-15.513 12.874l-3.799 20.259h-73.994c-4.143 0-7.5 3.358-7.5 7.5s3.357 7.5 7.5 7.5h71.184l-15.132 80.708c-.869 4.63.358 9.364 3.367 12.989 3.008 3.625 7.435 5.704 12.145 5.704h38.148c.091 0 .365 0 .601.279.234.279.187.549.171.639l-14.816 84.911c-.947 5.679 2.184 10.981 7.613 12.894 1.321.466 2.662.69 3.976.69 4.085 0 7.904-2.166 10.04-5.961.048-.085.095-.172.14-.259l60.612-118.348c2.526-4.932 2.31-10.7-.581-15.428s-7.924-7.551-13.466-7.551h-16.375c-.1 0-.401 0-.636-.325-.234-.325-.139-.612-.107-.706l16.745-50.235h138.171c40.675 0 73.767-33.092 73.767-73.767 0-39.5-31.202-71.847-70.253-73.686zm-104.999-40.832c-10.508-15.723-28.413-25.517-47.615-25.517-4.74 0-9.4.574-13.932 1.712-2.021-6.166-4.668-12.109-7.854-17.749 5.677-11.28 17.403-18.663 30.198-18.663 2.809 0 5.607.348 8.316 1.033 1.951.493 4.021.182 5.74-.865 1.72-1.047 2.946-2.741 3.403-4.702 6.205-26.593 29.627-45.166 56.962-45.166 17.901 0 34.661 8.222 45.668 21.953-21.73 8.339-36.602 29.306-36.602 53.38 0 4.142 3.357 7.5 7.5 7.5s7.5-3.358 7.5-7.5c0-20.531 14.648-38.01 34.83-41.56.004-.001 4.105-.648 7.37-.64 23.27.059 42.2 18.931 42.2 42.2s-18.931 42.2-42.185 42.2l-19.734-.04c-12.816-10.412-29.099-16.526-46.548-16.526-12.419 0-24.446 3.074-35.217 8.95zm-67.663 233.775c-1.6 4.8-.789 10.116 2.169 14.22s7.745 6.555 12.805 6.555h16.375c.132 0 .438 0 .668.375.229.374.089.648.028.766l-50.425 98.456 10.988-62.965c.803-4.602-.46-9.293-3.466-12.869-3.007-3.577-7.41-5.628-12.083-5.628h-38.148c-.091 0-.367 0-.603-.283-.234-.283-.184-.555-.167-.645l16.773-89.456c.001-.005.002-.009.003-.014l4.968-26.497c.068-.37.393-.638.77-.638h64.466c.1 0 .401 0 .636.325.234.325.139.611.107.706l-7.453 22.358c-.002.007-.005.013-.007.02z"/><path d="m106.441 313.2c4.142 0 7.5-3.358 7.5-7.5s-3.358-7.5-7.5-7.5h-16.101c-41.539 0-75.333-33.794-75.333-75.333 0-41.514 33.754-75.293 75.258-75.334.151.005.302.01.455.01h.002c41.363.207 74.952 33.913 74.952 75.324 0 4.142 3.357 7.5 7.5 7.5s7.5-3.358 7.5-7.5c0-47.276-36.506-86.18-82.808-90.018-.005-.365-.025-.738-.025-1.099 0-17.018 5.08-33.393 14.69-47.353 2.349-3.412 1.487-8.082-1.925-10.431-3.411-2.349-8.083-1.487-10.431 1.925-11.341 16.474-17.335 35.79-17.335 55.859 0 .362.002.726.007 1.091-46.317 3.821-82.84 42.739-82.84 90.025 0 49.81 40.523 90.333 90.333 90.333h16.101z"/><path d="m422.118 388.133c-.071 0-.169 0-.267-.137-.099-.136-.067-.228-.045-.296l12.064-36.192c1.554-4.662.766-9.824-2.107-13.81s-7.521-6.365-12.435-6.365h-29.975c-7.371 0-13.707 5.258-15.065 12.503l-11.265 60.076c-.844 4.497.349 9.094 3.271 12.615 2.921 3.52 7.221 5.539 11.795 5.539h14.388c.054 0 .153 0 .252.117.098.117.081.215.071.268l-7.837 44.915c-.791 4.737 1.923 9.334 6.452 10.93 1.084.382 2.194.565 3.288.565 3.48 0 6.801-1.85 8.591-5.035.048-.085.094-.17.139-.257l32.329-63.121c2.453-4.79 2.241-10.392-.565-14.983-2.809-4.59-7.697-7.332-13.079-7.332zm.292 15.479-16.83 32.86 1.997-11.441c.779-4.47-.447-9.025-3.366-12.499-2.92-3.473-7.197-5.465-11.734-5.465h-14.388c-.058 0-.154 0-.253-.119s-.08-.214-.07-.271l11.265-60.076c.029-.155.165-.268.323-.268h29.975c.071 0 .168 0 .267.136.099.137.067.229.045.296l-12.064 36.19c-1.554 4.661-.767 9.824 2.105 13.81 2.873 3.987 7.522 6.367 12.436 6.367.091 0 .184 0 .28.157.096.159.054.242.012.323z"/><path d="m128.917 388.133c-.071 0-.168 0-.267-.137-.098-.137-.067-.229-.045-.296l12.064-36.192c1.554-4.661.766-9.824-2.107-13.81s-7.521-6.366-12.435-6.366h-29.975c-7.371 0-13.707 5.258-15.065 12.503l-11.264 60.076c-.844 4.497.349 9.095 3.271 12.615 2.921 3.52 7.221 5.539 11.795 5.539h14.388c.054 0 .153 0 .252.117.098.117.081.215.071.268l-7.84 44.92c-.789 4.736 1.926 9.332 6.454 10.927 1.083.382 2.193.565 3.287.565 3.48 0 6.8-1.849 8.591-5.033.048-.085.095-.171.14-.259l32.328-63.121c2.453-4.79 2.241-10.392-.565-14.983-2.808-4.591-7.696-7.333-13.078-7.333zm.292 15.479-16.829 32.86 1.997-11.441c.779-4.47-.447-9.025-3.367-12.499-2.919-3.473-7.196-5.465-11.733-5.465h-14.389c-.058 0-.154 0-.253-.119s-.08-.214-.07-.271l11.264-60.076c.029-.155.165-.268.323-.268h29.976c.071 0 .168 0 .267.137.098.136.067.229.045.296l-12.064 36.192c-1.554 4.661-.766 9.824 2.107 13.81s7.521 6.366 12.435 6.366c.091 0 .184 0 .28.157.095.157.053.24.011.321z"/></g></g></svg>